{
date = "2015-06-01 20:02:20 +0000";
familyName = "new Font";
fontMaster = (
{
ascender = 800;
capHeight = 700;
descender = "-200";
id = "258ED206-D907-4350-8EBA-CBDDA1C16BF7";
xHeight = 500;
}
);
glyphs = (
{
glyphname = A;
lastChange = "2015-06-01 20:23:06 +0000";
layers = (
{
layerId = "258ED206-D907-4350-8EBA-CBDDA1C16BF7";
name = Regular;
paths = (
{
closed = 1;
nodes = (
"259 700 OFFCURVE",
"257 699 OFFCURVE",
"249 690 CURVE SMOOTH",
"244 683 OFFCURVE",
"230 646 OFFCURVE",
"230 637 CURVE SMOOTH",
"230 635 OFFCURVE",
"229 629 OFFCURVE",
"227 625 CURVE SMOOTH",
"224 621 OFFCURVE",
"220 607 OFFCURVE",
"216 594 CURVE SMOOTH",
"212 580 OFFCURVE",
"207 566 OFFCURVE",
"205 562 CURVE SMOOTH",
"200 551 OFFCURVE",
"191 524 OFFCURVE",
"182 491 CURVE SMOOTH",
"179 484 OFFCURVE",
"176 475 OFFCURVE",
"174 471 CURVE SMOOTH",
"172 467 OFFCURVE",
"168 458 OFFCURVE",
"166 450 CURVE SMOOTH",
"164 443 OFFCURVE",
"160 434 OFFCURVE",
"159 430 CURVE SMOOTH",
"157 426 OFFCURVE",
"153 414 OFFCURVE",
"150 402 CURVE SMOOTH",
"146 390 OFFCURVE",
"142 377 OFFCURVE",
"140 372 CURVE SMOOTH",
"135 362 OFFCURVE",
"116 308 OFFCURVE",
"111 292 CURVE SMOOTH",
"109 285 OFFCURVE",
"103 265 OFFCURVE",
"97 248 CURVE SMOOTH",
"91 230 OFFCURVE",
"83 207 OFFCURVE",
"79 196 CURVE SMOOTH",
"76 185 OFFCURVE",
"71 171 OFFCURVE",
"68 166 CURVE SMOOTH",
"65 160 OFFCURVE",
"63 153 OFFCURVE",
"62 148 CURVE SMOOTH",
"61 144 OFFCURVE",
"59 137 OFFCURVE",
"57 132 CURVE SMOOTH",
"48 111 OFFCURVE",
"41 93 OFFCURVE",
"38 78 CURVE SMOOTH",
"35 69 OFFCURVE",
"31 57 OFFCURVE",
"28 51 CURVE SMOOTH",
"23 44 OFFCURVE",
"21 37 OFFCURVE",
"20 27 CURVE SMOOTH",
"19 14 OFFCURVE",
"19 13 OFFCURVE",
"25 7 CURVE SMOOTH",
"31 0 LINE",
"107 0 LINE SMOOTH",
"205 0 OFFCURVE",
"199 -2 OFFCURVE",
"211 39 CURVE SMOOTH",
"214 51 OFFCURVE",
"218 66 OFFCURVE",
"219 72 CURVE SMOOTH",
"225 97 OFFCURVE",
"235 127 OFFCURVE",
"239 134 CURVE SMOOTH",
"244 142 LINE",
"261 141 LINE SMOOTH",
"272 140 OFFCURVE",
"279 141 OFFCURVE",
"281 142 CURVE SMOOTH",
"284 144 OFFCURVE",
"286 144 OFFCURVE",
"289 142 CURVE SMOOTH",
"291 141 OFFCURVE",
"294 139 OFFCURVE",
"296 139 CURVE SMOOTH",
"298 139 OFFCURVE",
"301 138 OFFCURVE",
"302 137 CURVE SMOOTH",
"303 136 OFFCURVE",
"305 136 OFFCURVE",
"307 137 CURVE SMOOTH",
"309 139 OFFCURVE",
"333 140 OFFCURVE",
"357 140 CURVE SMOOTH",
"361 139 OFFCURVE",
"370 140 OFFCURVE",
"377 140 CURVE SMOOTH",
"396 140 OFFCURVE",
"400 140 OFFCURVE",
"407 140 CURVE SMOOTH",
"412 139 OFFCURVE",
"437 142 OFFCURVE",
"447 144 CURVE SMOOTH",
"456 147 OFFCURVE",
"460 139 OFFCURVE",
"464 108 CURVE SMOOTH",
"465 100 OFFCURVE",
"469 85 OFFCURVE",
"473 74 CURVE SMOOTH",
"477 63 OFFCURVE",
"481 48 OFFCURVE",
"483 40 CURVE SMOOTH",
"487 21 OFFCURVE",
"492 10 OFFCURVE",
"499 6 CURVE SMOOTH",
"504 2 OFFCURVE",
"510 2 OFFCURVE",
"601 2 CURVE SMOOTH",
"666 2 OFFCURVE",
"699 3 OFFCURVE",
"701 4 CURVE SMOOTH",
"704 6 OFFCURVE",
"707 9 OFFCURVE",
"708 13 CURVE SMOOTH",
"710 18 OFFCURVE",
"710 21 OFFCURVE",
"705 38 CURVE SMOOTH",
"702 48 OFFCURVE",
"698 61 OFFCURVE",
"695 67 CURVE SMOOTH",
"691 77 OFFCURVE",
"686 92 OFFCURVE",
"676 120 CURVE SMOOTH",
"671 134 OFFCURVE",
"657 178 OFFCURVE",
"653 193 CURVE SMOOTH",
"651 202 OFFCURVE",
"646 215 OFFCURVE",
"642 224 CURVE SMOOTH",
"639 232 OFFCURVE",
"636 240 OFFCURVE",
"636 242 CURVE SMOOTH",
"636 243 OFFCURVE",
"634 249 OFFCURVE",
"632 253 CURVE SMOOTH",
"629 258 OFFCURVE",
"625 269 OFFCURVE",
"623 278 CURVE SMOOTH",
"621 287 OFFCURVE",
"616 301 OFFCURVE",
"613 308 CURVE SMOOTH",
"610 316 OFFCURVE",
"606 327 OFFCURVE",
"604 333 CURVE SMOOTH",
"602 338 OFFCURVE",
"600 347 OFFCURVE",
"598 352 CURVE SMOOTH",
"596 357 OFFCURVE",
"590 377 OFFCURVE",
"583 396 CURVE SMOOTH",
"577 416 OFFCURVE",
"570 435 OFFCURVE",
"569 439 CURVE SMOOTH",
"567 443 OFFCURVE",
"563 457 OFFCURVE",
"559 470 CURVE SMOOTH",
"555 483 OFFCURVE",
"549 499 OFFCURVE",
"546 505 CURVE SMOOTH",
"543 512 OFFCURVE",
"540 518 OFFCURVE",
"540 519 CURVE SMOOTH",
"540 521 OFFCURVE",
"537 532 OFFCURVE",
"533 544 CURVE SMOOTH",
"530 556 OFFCURVE",
"524 573 OFFCURVE",
"521 582 CURVE SMOOTH",
"518 591 OFFCURVE",
"515 600 OFFCURVE",
"513 602 CURVE SMOOTH",
"512 603 OFFCURVE",
"511 607 OFFCURVE",
"511 609 CURVE SMOOTH",
"511 612 OFFCURVE",
"509 619 OFFCURVE",
"499 642 CURVE SMOOTH",
"497 648 OFFCURVE",
"495 654 OFFCURVE",
"495 657 CURVE SMOOTH",
"495 659 OFFCURVE",
"494 663 OFFCURVE",
"493 664 CURVE SMOOTH",
"491 665 OFFCURVE",
"489 669 OFFCURVE",
"489 672 CURVE SMOOTH",
"487 681 OFFCURVE",
"474 695 OFFCURVE",
"466 697 CURVE SMOOTH",
"455 701 OFFCURVE",
"316 703 OFFCURVE",
"279 701 CURVE SMOOTH"
);
},
{
closed = 1;
nodes = (
"352 478 OFFCURVE",
"354 474 OFFCURVE",
"355 471 CURVE SMOOTH",
"357 462 OFFCURVE",
"368 430 OFFCURVE",
"375 412 CURVE SMOOTH",
"378 404 OFFCURVE",
"381 394 OFFCURVE",
"382 389 CURVE SMOOTH",
"382 384 OFFCURVE",
"384 377 OFFCURVE",
"386 373 CURVE SMOOTH",
"392 361 OFFCURVE",
"406 314 OFFCURVE",
"406 305 CURVE SMOOTH",
"406 303 OFFCURVE",
"404 300 OFFCURVE",
"402 298 CURVE SMOOTH",
"398 295 OFFCURVE",
"394 294 OFFCURVE",
"345 295 CURVE SMOOTH",
"277 295 OFFCURVE",
"280 292 OFFCURVE",
"299 348 CURVE SMOOTH",
"318 406 OFFCURVE",
"319 408 OFFCURVE",
"326 403 CURVE SMOOTH",
"332 399 OFFCURVE",
"334 400 OFFCURVE",
"350 412 CURVE SMOOTH",
"365 423 LINE",
"358 428 LINE SMOOTH",
"355 431 OFFCURVE",
"351 433 OFFCURVE",
"349 433 CURVE SMOOTH",
"348 432 OFFCURVE",
"343 433 OFFCURVE",
"339 434 CURVE SMOOTH",
"331 436 LINE",
"333 444 LINE SMOOTH",
"334 455 OFFCURVE",
"341 477 OFFCURVE",
"344 480 CURVE SMOOTH",
"346 483 OFFCURVE",
"348 483 OFFCURVE",
"351 480 CURVE SMOOTH"
);
}
);
width = 729;
}
);
unicode = 0041;
},
{
glyphname = B;
lastChange = "2015-06-01 20:23:06 +0000";
layers = (
{
layerId = "258ED206-D907-4350-8EBA-CBDDA1C16BF7";
name = Regular;
paths = (
{
closed = 1;
nodes = (
"32 698 OFFCURVE",
"29 693 OFFCURVE",
"26 689 CURVE SMOOTH",
"22 680 OFFCURVE",
"22 679 OFFCURVE",
"21 524 CURVE SMOOTH",
"20 438 OFFCURVE",
"20 348 OFFCURVE",
"20 324 CURVE SMOOTH",
"20 300 OFFCURVE",
"21 220 OFFCURVE",
"21 148 CURVE SMOOTH",
"21 25 OFFCURVE",
"22 14 OFFCURVE",
"25 10 CURVE SMOOTH",
"31 0 OFFCURVE",
"35 -1 OFFCURVE",
"142 0 CURVE SMOOTH",
"221 1 OFFCURVE",
"243 1 OFFCURVE",
"303 1 CURVE SMOOTH",
"369 0 OFFCURVE",
"459 3 OFFCURVE",
"471 6 CURVE SMOOTH",
"476 7 OFFCURVE",
"487 9 OFFCURVE",
"496 11 CURVE SMOOTH",
"521 16 OFFCURVE",
"526 17 OFFCURVE",
"532 20 CURVE SMOOTH",
"535 21 OFFCURVE",
"542 23 OFFCURVE",
"547 24 CURVE SMOOTH",
"558 27 OFFCURVE",
"579 37 OFFCURVE",
"583 42 CURVE SMOOTH",
"585 44 OFFCURVE",
"590 47 OFFCURVE",
"594 49 CURVE SMOOTH",
"605 55 OFFCURVE",
"621 70 OFFCURVE",
"630 83 CURVE SMOOTH",
"640 97 OFFCURVE",
"654 128 OFFCURVE",
"654 135 CURVE SMOOTH",
"654 138 OFFCURVE",
"656 145 OFFCURVE",
"658 153 CURVE SMOOTH",
"664 172 OFFCURVE",
"664 205 OFFCURVE",
"657 233 CURVE SMOOTH",
"654 245 OFFCURVE",
"649 257 OFFCURVE",
"647 261 CURVE SMOOTH",
"645 264 OFFCURVE",
"642 270 OFFCURVE",
"641 273 CURVE SMOOTH",
"637 286 OFFCURVE",
"610 315 OFFCURVE",
"596 320 CURVE SMOOTH",
"591 322 OFFCURVE",
"585 327 OFFCURVE",
"580 330 CURVE SMOOTH",
"570 338 OFFCURVE",
"543 351 OFFCURVE",
"537 351 CURVE SMOOTH",
"535 351 OFFCURVE",
"531 353 OFFCURVE",
"526 355 CURVE SMOOTH",
"517 358 OFFCURVE",
"515 363 OFFCURVE",
"522 363 CURVE SMOOTH",
"524 363 OFFCURVE",
"526 364 OFFCURVE",
"526 365 CURVE SMOOTH",
"526 366 OFFCURVE",
"530 369 OFFCURVE",
"536 371 CURVE SMOOTH",
"557 380 OFFCURVE",
"582 397 OFFCURVE",
"602 416 CURVE SMOOTH",
"625 439 OFFCURVE",
"635 459 OFFCURVE",
"641 491 CURVE SMOOTH",
"643 504 OFFCURVE",
"644 518 OFFCURVE",
"644 523 CURVE SMOOTH",
"644 540 OFFCURVE",
"635 574 OFFCURVE",
"627 585 CURVE SMOOTH",
"626 588 OFFCURVE",
"623 593 OFFCURVE",
"621 596 CURVE SMOOTH",
"618 602 OFFCURVE",
"603 621 OFFCURVE",
"590 634 CURVE SMOOTH",
"586 639 OFFCURVE",
"578 645 OFFCURVE",
"573 648 CURVE SMOOTH",
"568 650 OFFCURVE",
"561 654 OFFCURVE",
"558 657 CURVE SMOOTH",
"549 663 OFFCURVE",
"538 668 OFFCURVE",
"525 672 CURVE SMOOTH",
"519 674 OFFCURVE",
"513 676 OFFCURVE",
"513 677 CURVE SMOOTH",
"508 685 OFFCURVE",
"428 696 OFFCURVE",
"369 697 CURVE SMOOTH",
"348 697 OFFCURVE",
"290 697 OFFCURVE",
"239 698 CURVE SMOOTH",
"188 698 OFFCURVE",
"122 699 OFFCURVE",
"93 699 CURVE SMOOTH",
"61 700 OFFCURVE",
"37 700 OFFCURVE",
"35 699 CURVE SMOOTH"
);
},
{
closed = 1;
nodes = (
"391 556 OFFCURVE",
"410 546 OFFCURVE",
"425 520 CURVE SMOOTH",
"434 505 OFFCURVE",
"434 482 OFFCURVE",
"424 461 CURVE SMOOTH",
"420 453 OFFCURVE",
"402 437 OFFCURVE",
"396 437 CURVE SMOOTH",
"394 437 OFFCURVE",
"390 436 OFFCURVE",
"387 435 CURVE SMOOTH",
"385 433 OFFCURVE",
"376 431 OFFCURVE",
"368 430 CURVE SMOOTH",
"352 428 OFFCURVE",
"250 428 OFFCURVE",
"244 430 CURVE SMOOTH",
"235 433 OFFCURVE",
"234 437 OFFCURVE",
"235 489 CURVE SMOOTH",
"235 538 OFFCURVE",
"236 552 OFFCURVE",
"241 555 CURVE SMOOTH",
"245 558 OFFCURVE",
"286 560 OFFCURVE",
"315 559 CURVE SMOOTH",
"329 558 OFFCURVE",
"350 557 OFFCURVE",
"360 557 CURVE SMOOTH"
);
},
{
closed = 1;
nodes = (
"377 280 OFFCURVE",
"380 279 OFFCURVE",
"404 267 CURVE SMOOTH",
"424 257 OFFCURVE",
"428 254 OFFCURVE",
"434 240 CURVE SMOOTH",
"438 232 OFFCURVE",
"439 227 OFFCURVE",
"438 214 CURVE SMOOTH",
"438 193 OFFCURVE",
"433 180 OFFCURVE",
"420 166 CURVE SMOOTH",
"405 151 OFFCURVE",
"393 145 OFFCURVE",
"367 142 CURVE SMOOTH",
"344 140 OFFCURVE",
"342 140 OFFCURVE",
"318 142 CURVE SMOOTH",
"294 143 OFFCURVE",
"282 143 OFFCURVE",
"266 142 CURVE SMOOTH",
"250 141 OFFCURVE",
"240 143 OFFCURVE",
"237 149 CURVE SMOOTH",
"235 153 OFFCURVE",
"234 206 OFFCURVE",
"236 209 CURVE SMOOTH",
"236 210 OFFCURVE",
"236 214 OFFCURVE",
"235 220 CURVE SMOOTH",
"233 230 OFFCURVE",
"236 267 OFFCURVE",
"239 275 CURVE SMOOTH",
"240 278 OFFCURVE",
"242 279 OFFCURVE",
"245 278 CURVE SMOOTH",
"248 278 OFFCURVE",
"254 278 OFFCURVE",
"259 279 CURVE SMOOTH",
"265 280 OFFCURVE",
"285 280 OFFCURVE",
"305 280 CURVE SMOOTH",
"325 279 OFFCURVE",
"349 279 OFFCURVE",
"359 279 CURVE SMOOTH"
);
}
);
width = 682;
}
);
unicode = 0042;
},
{
glyphname = C;
lastChange = "2015-06-01 20:23:06 +0000";
layers = (
{
layerId = "258ED206-D907-4350-8EBA-CBDDA1C16BF7";
name = Regular;
paths = (
{
closed = 1;
nodes = (
"355 706 OFFCURVE",
"345 705 OFFCURVE",
"333 705 CURVE SMOOTH",
"322 705 OFFCURVE",
"309 704 OFFCURVE",
"306 704 CURVE SMOOTH",
"302 703 OFFCURVE",
"290 701 OFFCURVE",
"280 699 CURVE SMOOTH",
"254 695 OFFCURVE",
"231 688 OFFCURVE",
"212 679 CURVE SMOOTH",
"206 675 OFFCURVE",
"199 673 OFFCURVE",
"197 673 CURVE SMOOTH",
"196 673 OFFCURVE",
"190 669 OFFCURVE",
"184 665 CURVE SMOOTH",
"178 660 OFFCURVE",
"170 655 OFFCURVE",
"164 652 CURVE SMOOTH",
"156 648 OFFCURVE",
"138 635 OFFCURVE",
"123 622 CURVE SMOOTH",
"114 614 OFFCURVE",
"99 596 OFFCURVE",
"96 590 CURVE SMOOTH",
"95 586 OFFCURVE",
"92 583 OFFCURVE",
"91 583 CURVE SMOOTH",
"86 583 OFFCURVE",
"53 523 OFFCURVE",
"40 490 CURVE SMOOTH",
"36 480 OFFCURVE",
"31 464 OFFCURVE",
"30 456 CURVE SMOOTH",
"28 447 OFFCURVE",
"26 437 OFFCURVE",
"25 434 CURVE SMOOTH",
"20 416 OFFCURVE",
"18 351 OFFCURVE",
"22 303 CURVE SMOOTH",
"24 269 OFFCURVE",
"26 259 OFFCURVE",
"36 226 CURVE SMOOTH",
"39 217 OFFCURVE",
"42 206 OFFCURVE",
"43 201 CURVE SMOOTH",
"46 191 OFFCURVE",
"64 155 OFFCURVE",
"71 143 CURVE SMOOTH",
"74 139 OFFCURVE",
"79 132 OFFCURVE",
"82 127 CURVE SMOOTH",
"85 123 OFFCURVE",
"87 119 OFFCURVE",
"87 118 CURVE SMOOTH",
"87 117 OFFCURVE",
"92 112 OFFCURVE",
"97 106 CURVE SMOOTH",
"103 101 OFFCURVE",
"108 95 OFFCURVE",
"110 92 CURVE SMOOTH",
"116 83 OFFCURVE",
"163 44 OFFCURVE",
"176 38 CURVE SMOOTH",
"179 37 OFFCURVE",
"187 33 OFFCURVE",
"192 29 CURVE SMOOTH",
"210 19 OFFCURVE",
"254 4 OFFCURVE",
"275 0 CURVE SMOOTH",
"282 -1 OFFCURVE",
"292 -2 OFFCURVE",
"299 -4 CURVE SMOOTH",
"309 -5 OFFCURVE",
"342 -7 OFFCURVE",
"367 -8 CURVE SMOOTH",
"397 -9 OFFCURVE",
"463 4 OFFCURVE",
"474 12 CURVE SMOOTH",
"475 13 OFFCURVE",
"478 14 OFFCURVE",
"481 15 CURVE SMOOTH",
"490 18 OFFCURVE",
"534 40 OFFCURVE",
"545 47 CURVE SMOOTH",
"551 51 OFFCURVE",
"561 58 OFFCURVE",
"567 64 CURVE SMOOTH",
"574 70 OFFCURVE",
"579 74 OFFCURVE",
"580 74 CURVE SMOOTH",
"581 74 OFFCURVE",
"586 79 OFFCURVE",
"590 85 CURVE SMOOTH",
"595 91 OFFCURVE",
"602 100 OFFCURVE",
"606 104 CURVE SMOOTH",
"611 108 OFFCURVE",
"616 115 OFFCURVE",
"619 119 CURVE SMOOTH",
"629 132 OFFCURVE",
"657 190 OFFCURVE",
"662 210 CURVE SMOOTH",
"666 223 OFFCURVE",
"661 233 OFFCURVE",
"649 239 CURVE SMOOTH",
"639 243 OFFCURVE",
"625 246 OFFCURVE",
"608 247 CURVE SMOOTH",
"593 248 OFFCURVE",
"587 249 OFFCURVE",
"569 255 CURVE SMOOTH",
"542 264 OFFCURVE",
"515 266 OFFCURVE",
"508 261 CURVE SMOOTH",
"506 259 OFFCURVE",
"501 248 OFFCURVE",
"496 236 CURVE SMOOTH",
"490 223 OFFCURVE",
"483 209 OFFCURVE",
"479 203 CURVE SMOOTH",
"467 185 OFFCURVE",
"447 171 OFFCURVE",
"419 158 CURVE SMOOTH",
"416 157 OFFCURVE",
"413 155 OFFCURVE",
"411 154 CURVE SMOOTH",
"397 147 OFFCURVE",
"355 145 OFFCURVE",
"333 152 CURVE SMOOTH",
"315 158 OFFCURVE",
"308 162 OFFCURVE",
"293 176 CURVE SMOOTH",
"282 186 OFFCURVE",
"278 191 OFFCURVE",
"272 205 CURVE SMOOTH",
"257 238 OFFCURVE",
"251 258 OFFCURVE",
"250 287 CURVE SMOOTH",
"250 294 OFFCURVE",
"248 308 OFFCURVE",
"247 318 CURVE SMOOTH",
"246 329 OFFCURVE",
"245 352 OFFCURVE",
"246 375 CURVE SMOOTH",
"247 419 OFFCURVE",
"248 434 OFFCURVE",
"252 450 CURVE SMOOTH",
"263 497 OFFCURVE",
"263 497 OFFCURVE",
"277 518 CURVE SMOOTH",
"299 552 OFFCURVE",
"334 567 OFFCURVE",
"375 561 CURVE SMOOTH",
"400 557 OFFCURVE",
"407 554 OFFCURVE",
"425 536 CURVE SMOOTH",
"436 526 OFFCURVE",
"442 517 OFFCURVE",
"443 514 CURVE SMOOTH",
"444 511 OFFCURVE",
"446 506 OFFCURVE",
"448 502 CURVE SMOOTH",
"453 492 OFFCURVE",
"458 477 OFFCURVE",
"458 470 CURVE SMOOTH",
"458 460 OFFCURVE",
"462 451 OFFCURVE",
"469 449 CURVE SMOOTH",
"471 449 OFFCURVE",
"484 449 OFFCURVE",
"497 450 CURVE SMOOTH",
"510 452 OFFCURVE",
"525 453 OFFCURVE",
"530 453 CURVE SMOOTH",
"535 452 OFFCURVE",
"543 453 OFFCURVE",
"549 453 CURVE SMOOTH",
"559 454 OFFCURVE",
"586 456 OFFCURVE",
"626 459 CURVE SMOOTH",
"633 460 OFFCURVE",
"640 460 OFFCURVE",
"643 460 CURVE SMOOTH",
"650 460 OFFCURVE",
"657 469 OFFCURVE",
"657 478 CURVE SMOOTH",
"657 490 OFFCURVE",
"646 522 OFFCURVE",
"635 544 CURVE SMOOTH",
"631 552 OFFCURVE",
"627 562 OFFCURVE",
"626 566 CURVE SMOOTH",
"624 570 OFFCURVE",
"621 575 OFFCURVE",
"618 577 CURVE SMOOTH",
"616 580 OFFCURVE",
"614 583 OFFCURVE",
"614 584 CURVE SMOOTH",
"614 585 OFFCURVE",
"610 590 OFFCURVE",
"606 594 CURVE SMOOTH",
"601 598 OFFCURVE",
"596 604 OFFCURVE",
"595 608 CURVE SMOOTH",
"589 619 OFFCURVE",
"580 627 OFFCURVE",
"562 641 CURVE SMOOTH",
"552 648 OFFCURVE",
"542 656 OFFCURVE",
"540 659 CURVE SMOOTH",
"532 665 OFFCURVE",
"500 682 OFFCURVE",
"484 687 CURVE SMOOTH",
"465 694 OFFCURVE",
"457 696 OFFCURVE",
"441 698 CURVE SMOOTH",
"434 699 OFFCURVE",
"423 701 OFFCURVE",
"418 703 CURVE SMOOTH",
"413 704 OFFCURVE",
"405 705 OFFCURVE",
"401 705 CURVE SMOOTH",
"373 708 OFFCURVE",
"357 708 OFFCURVE",
"356 707 CURVE SMOOTH"
);
}
);
width = 683;
}
);
unicode = 0043;
},
{
glyphname = D;
lastChange = "2015-06-01 20:23:06 +0000";
layers = (
{
layerId = "258ED206-D907-4350-8EBA-CBDDA1C16BF7";
name = Regular;
paths = (
{
closed = 1;
nodes = (
"34 696 OFFCURVE",
"30 692 OFFCURVE",
"26 684 CURVE SMOOTH",
"24 678 OFFCURVE",
"23 657 OFFCURVE",
"22 551 CURVE SMOOTH",
"22 375 OFFCURVE",
"21 223 OFFCURVE",
"22 126 CURVE SMOOTH",
"22 81 OFFCURVE",
"21 37 OFFCURVE",
"21 30 CURVE SMOOTH",
"20 18 OFFCURVE",
"20 15 OFFCURVE",
"23 11 CURVE SMOOTH",
"32 0 OFFCURVE",
"38 -1 OFFCURVE",
"75 0 CURVE SMOOTH",
"155 3 OFFCURVE",
"234 4 OFFCURVE",
"291 3 CURVE SMOOTH",
"297 3 OFFCURVE",
"341 5 OFFCURVE",
"361 6 CURVE SMOOTH",
"393 9 OFFCURVE",
"436 17 OFFCURVE",
"446 23 CURVE SMOOTH",
"450 25 OFFCURVE",
"455 27 OFFCURVE",
"459 28 CURVE SMOOTH",
"462 28 OFFCURVE",
"466 30 OFFCURVE",
"467 31 CURVE SMOOTH",
"468 31 OFFCURVE",
"474 34 OFFCURVE",
"480 36 CURVE SMOOTH",
"499 44 OFFCURVE",
"504 46 OFFCURVE",
"526 61 CURVE SMOOTH",
"563 85 OFFCURVE",
"596 119 OFFCURVE",
"616 152 CURVE SMOOTH",
"620 158 OFFCURVE",
"626 168 OFFCURVE",
"630 175 CURVE SMOOTH",
"639 188 OFFCURVE",
"659 246 OFFCURVE",
"659 257 CURVE SMOOTH",
"659 260 OFFCURVE",
"660 269 OFFCURVE",
"661 276 CURVE SMOOTH",
"666 311 OFFCURVE",
"667 325 OFFCURVE",
"667 358 CURVE SMOOTH",
"668 397 OFFCURVE",
"665 419 OFFCURVE",
"655 458 CURVE SMOOTH",
"648 482 OFFCURVE",
"636 515 OFFCURVE",
"629 523 CURVE SMOOTH",
"626 527 OFFCURVE",
"622 534 OFFCURVE",
"620 539 CURVE SMOOTH",
"618 544 OFFCURVE",
"612 554 OFFCURVE",
"606 560 CURVE SMOOTH",
"601 566 OFFCURVE",
"595 574 OFFCURVE",
"593 577 CURVE SMOOTH",
"581 591 OFFCURVE",
"572 600 OFFCURVE",
"560 609 CURVE SMOOTH",
"553 614 OFFCURVE",
"544 620 OFFCURVE",
"541 624 CURVE SMOOTH",
"518 643 OFFCURVE",
"462 669 OFFCURVE",
"431 675 CURVE SMOOTH",
"424 677 OFFCURVE",
"406 680 OFFCURVE",
"391 683 CURVE SMOOTH",
"360 690 OFFCURVE",
"341 692 OFFCURVE",
"286 693 CURVE SMOOTH",
"231 694 OFFCURVE",
"93 698 OFFCURVE",
"83 698 CURVE SMOOTH",
"79 699 OFFCURVE",
"70 700 OFFCURVE",
"64 700 CURVE SMOOTH",
"57 701 OFFCURVE",
"48 700 OFFCURVE",
"44 699 CURVE SMOOTH"
);
},
{
closed = 1;
nodes = (
"293 550 OFFCURVE",
"303 549 OFFCURVE",
"307 549 CURVE SMOOTH",
"346 542 OFFCURVE",
"350 540 OFFCURVE",
"373 527 CURVE SMOOTH",
"405 508 OFFCURVE",
"432 473 OFFCURVE",
"439 442 CURVE SMOOTH",
"440 436 OFFCURVE",
"442 429 OFFCURVE",
"443 426 CURVE SMOOTH",
"447 416 OFFCURVE",
"447 404 OFFCURVE",
"447 353 CURVE SMOOTH",
"447 310 OFFCURVE",
"446 296 OFFCURVE",
"444 287 CURVE SMOOTH",
"442 281 OFFCURVE",
"441 273 OFFCURVE",
"441 270 CURVE SMOOTH",
"441 263 OFFCURVE",
"431 240 OFFCURVE",
"420 222 CURVE SMOOTH",
"411 206 OFFCURVE",
"394 187 OFFCURVE",
"382 179 CURVE SMOOTH",
"368 170 OFFCURVE",
"346 160 OFFCURVE",
"337 158 CURVE SMOOTH",
"332 158 OFFCURVE",
"326 156 OFFCURVE",
"323 155 CURVE SMOOTH",
"314 153 OFFCURVE",
"287 149 OFFCURVE",
"265 148 CURVE SMOOTH",
"238 147 OFFCURVE",
"238 147 OFFCURVE",
"238 174 CURVE SMOOTH",
"237 291 OFFCURVE",
"238 433 OFFCURVE",
"239 434 CURVE SMOOTH",
"240 435 OFFCURVE",
"239 459 OFFCURVE",
"238 487 CURVE SMOOTH",
"237 538 OFFCURVE",
"237 548 OFFCURVE",
"242 551 CURVE SMOOTH",
"243 552 OFFCURVE",
"249 552 OFFCURVE",
"256 552 CURVE SMOOTH",
"263 551 OFFCURVE",
"275 551 OFFCURVE",
"284 550 CURVE SMOOTH"
);
}
);
width = 687;
}
);
unicode = 0044;
},
{
glyphname = E;
lastChange = "2015-06-01 20:23:06 +0000";
layers = (
{
layerId = "258ED206-D907-4350-8EBA-CBDDA1C16BF7";
name = Regular;
paths = (
{
closed = 1;
nodes = (
"41 693 OFFCURVE",
"30 690 OFFCURVE",
"28 688 CURVE SMOOTH",
"26 687 OFFCURVE",
"25 681 OFFCURVE",
"25 673 CURVE SMOOTH",
"25 666 OFFCURVE",
"24 659 OFFCURVE",
"23 658 CURVE SMOOTH",
"22 657 OFFCURVE",
"21 534 OFFCURVE",
"21 385 CURVE SMOOTH",
"21 237 OFFCURVE",
"20 92 OFFCURVE",
"20 64 CURVE SMOOTH",
"20 36 OFFCURVE",
"20 12 OFFCURVE",
"21 10 CURVE SMOOTH",
"22 8 OFFCURVE",
"26 5 OFFCURVE",
"30 3 CURVE SMOOTH",
"37 0 OFFCURVE",
"45 0 OFFCURVE",
"83 0 CURVE SMOOTH",
"147 1 OFFCURVE",
"415 1 OFFCURVE",
"489 1 CURVE SMOOTH",
"559 0 OFFCURVE",
"565 1 OFFCURVE",
"570 12 CURVE SMOOTH",
"572 16 OFFCURVE",
"574 34 OFFCURVE",
"576 74 CURVE SMOOTH",
"580 140 OFFCURVE",
"579 145 OFFCURVE",
"567 153 CURVE SMOOTH",
"559 157 OFFCURVE",
"559 157 OFFCURVE",
"522 156 CURVE SMOOTH",
"502 155 OFFCURVE",
"454 155 OFFCURVE",
"415 155 CURVE SMOOTH",
"361 155 OFFCURVE",
"344 154 OFFCURVE",
"338 152 CURVE SMOOTH",
"333 150 OFFCURVE",
"329 150 OFFCURVE",
"327 151 CURVE SMOOTH",
"325 152 OFFCURVE",
"309 154 OFFCURVE",
"290 154 CURVE SMOOTH",
"263 154 OFFCURVE",
"255 154 OFFCURVE",
"253 152 CURVE SMOOTH",
"251 150 OFFCURVE",
"250 150 OFFCURVE",
"249 151 CURVE SMOOTH",
"248 152 OFFCURVE",
"246 153 OFFCURVE",
"243 153 CURVE SMOOTH",
"234 153 OFFCURVE",
"233 156 OFFCURVE",
"233 202 CURVE SMOOTH",
"233 246 OFFCURVE",
"236 268 OFFCURVE",
"240 273 CURVE SMOOTH",
"243 276 OFFCURVE",
"267 276 OFFCURVE",
"388 275 CURVE SMOOTH",
"439 275 OFFCURVE",
"441 275 OFFCURVE",
"444 290 CURVE SMOOTH",
"447 302 OFFCURVE",
"446 404 OFFCURVE",
"443 413 CURVE SMOOTH",
"440 423 OFFCURVE",
"434 426 OFFCURVE",
"410 428 CURVE SMOOTH",
"397 429 OFFCURVE",
"386 430 OFFCURVE",
"384 430 CURVE SMOOTH",
"349 428 OFFCURVE",
"336 428 OFFCURVE",
"283 428 CURVE SMOOTH",
"231 429 OFFCURVE",
"235 425 OFFCURVE",
"236 481 CURVE SMOOTH",
"236 541 OFFCURVE",
"237 543 OFFCURVE",
"262 543 CURVE SMOOTH",
"268 543 OFFCURVE",
"327 543 OFFCURVE",
"393 542 CURVE SMOOTH",
"460 541 OFFCURVE",
"522 541 OFFCURVE",
"532 540 CURVE SMOOTH",
"553 539 OFFCURVE",
"561 542 OFFCURVE",
"565 553 CURVE SMOOTH",
"567 557 OFFCURVE",
"567 579 OFFCURVE",
"567 621 CURVE SMOOTH",
"567 683 LINE",
"562 689 LINE",
"556 694 LINE",
"482 693 LINE SMOOTH",
"441 693 OFFCURVE",
"404 693 OFFCURVE",
"400 693 CURVE SMOOTH",
"321 692 OFFCURVE",
"105 696 OFFCURVE",
"86 698 CURVE SMOOTH",
"83 698 OFFCURVE",
"68 697 OFFCURVE",
"55 695 CURVE SMOOTH"
);
}
);
width = 598;
}
);
unicode = 0045;
},
{
glyphname = F;
lastChange = "2015-06-01 20:23:06 +0000";
layers = (
{
layerId = "258ED206-D907-4350-8EBA-CBDDA1C16BF7";
name = Regular;
paths = (
{
closed = 1;
nodes = (
"21 685 OFFCURVE",
"21 687 OFFCURVE",
"21 575 CURVE SMOOTH",
"20 419 OFFCURVE",
"20 291 OFFCURVE",
"21 232 CURVE SMOOTH",
"21 203 OFFCURVE",
"21 143 OFFCURVE",
"20 101 CURVE SMOOTH",
"20 26 OFFCURVE",
"20 22 OFFCURVE",
"23 15 CURVE SMOOTH",
"27 8 OFFCURVE",
"29 7 OFFCURVE",
"36 4 CURVE SMOOTH",
"46 1 OFFCURVE",
"67 0 OFFCURVE",
"103 0 CURVE SMOOTH",
"160 1 OFFCURVE",
"169 1 OFFCURVE",
"191 0 CURVE SMOOTH",
"214 0 OFFCURVE",
"215 0 OFFCURVE",
"223 5 CURVE SMOOTH",
"234 12 OFFCURVE",
"237 23 OFFCURVE",
"236 47 CURVE SMOOTH",
"232 135 OFFCURVE",
"231 168 OFFCURVE",
"232 214 CURVE SMOOTH",
"233 243 OFFCURVE",
"234 267 OFFCURVE",
"235 268 CURVE SMOOTH",
"236 270 OFFCURVE",
"242 270 OFFCURVE",
"252 270 CURVE SMOOTH",
"261 269 OFFCURVE",
"269 270 OFFCURVE",
"271 271 CURVE SMOOTH",
"273 272 OFFCURVE",
"279 272 OFFCURVE",
"284 271 CURVE SMOOTH",
"290 270 OFFCURVE",
"300 271 OFFCURVE",
"308 272 CURVE SMOOTH",
"318 273 OFFCURVE",
"324 273 OFFCURVE",
"330 271 CURVE SMOOTH",
"342 268 OFFCURVE",
"421 267 OFFCURVE",
"428 270 CURVE SMOOTH",
"433 271 OFFCURVE",
"435 274 OFFCURVE",
"438 281 CURVE SMOOTH",
"442 288 OFFCURVE",
"442 293 OFFCURVE",
"442 313 CURVE SMOOTH",
"441 344 OFFCURVE",
"441 341 OFFCURVE",
"442 369 CURVE SMOOTH",
"444 396 OFFCURVE",
"442 410 OFFCURVE",
"437 415 CURVE SMOOTH",
"433 419 OFFCURVE",
"433 419 OFFCURVE",
"327 420 CURVE SMOOTH",
"266 420 OFFCURVE",
"238 421 OFFCURVE",
"236 423 CURVE SMOOTH",
"233 424 OFFCURVE",
"231 427 OFFCURVE",
"231 430 CURVE SMOOTH",
"228 441 OFFCURVE",
"229 515 OFFCURVE",
"232 525 CURVE SMOOTH",
"235 544 OFFCURVE",
"237 544 OFFCURVE",
"280 545 CURVE SMOOTH",
"353 548 OFFCURVE",
"469 547 OFFCURVE",
"504 545 CURVE SMOOTH",
"534 542 OFFCURVE",
"539 542 OFFCURVE",
"544 545 CURVE SMOOTH",
"557 552 OFFCURVE",
"558 553 OFFCURVE",
"556 621 CURVE SMOOTH",
"556 623 OFFCURVE",
"557 635 OFFCURVE",
"558 648 CURVE SMOOTH",
"559 666 OFFCURVE",
"559 671 OFFCURVE",
"556 677 CURVE SMOOTH",
"551 688 OFFCURVE",
"546 690 OFFCURVE",
"512 691 CURVE SMOOTH",
"473 693 OFFCURVE",
"476 693 OFFCURVE",
"432 691 CURVE SMOOTH",
"394 690 OFFCURVE",
"385 690 OFFCURVE",
"353 690 CURVE SMOOTH",
"343 690 OFFCURVE",
"325 690 OFFCURVE",
"313 690 CURVE SMOOTH",
"301 690 OFFCURVE",
"284 690 OFFCURVE",
"276 691 CURVE SMOOTH",
"268 692 OFFCURVE",
"211 693 OFFCURVE",
"151 693 CURVE SMOOTH",
"55 694 OFFCURVE",
"39 693 OFFCURVE",
"34 691 CURVE SMOOTH"
);
}
);
width = 579;
}
);
unicode = 0046;
},
{
glyphname = G;
lastChange = "2015-06-01 20:23:06 +0000";
layers = (
{
layerId = "258ED206-D907-4350-8EBA-CBDDA1C16BF7";
name = Regular;
paths = (
{
closed = 1;
nodes = (
"313 707 OFFCURVE",
"302 705 OFFCURVE",
"292 703 CURVE SMOOTH",
"282 701 OFFCURVE",
"271 699 OFFCURVE",
"266 697 CURVE SMOOTH",
"261 695 OFFCURVE",
"256 694 OFFCURVE",
"255 695 CURVE SMOOTH",
"253 695 OFFCURVE",
"250 695 OFFCURVE",
"248 693 CURVE SMOOTH",
"245 691 OFFCURVE",
"243 690 OFFCURVE",
"241 690 CURVE SMOOTH",
"238 690 OFFCURVE",
"183 663 OFFCURVE",
"181 661 CURVE SMOOTH",
"180 660 OFFCURVE",
"176 658 OFFCURVE",
"173 656 CURVE SMOOTH",
"169 654 OFFCURVE",
"163 650 OFFCURVE",
"159 647 CURVE SMOOTH",
"156 644 OFFCURVE",
"146 636 OFFCURVE",
"137 629 CURVE SMOOTH",
"119 615 OFFCURVE",
"101 598 OFFCURVE",
"92 584 CURVE SMOOTH",
"88 580 OFFCURVE",
"83 573 OFFCURVE",
"80 570 CURVE SMOOTH",
"75 564 OFFCURVE",
"65 547 OFFCURVE",
"54 526 CURVE SMOOTH",
"48 514 OFFCURVE",
"37 481 OFFCURVE",
"32 463 CURVE SMOOTH",
"31 459 OFFCURVE",
"29 451 OFFCURVE",
"28 447 CURVE SMOOTH",
"26 440 OFFCURVE",
"23 405 OFFCURVE",
"21 372 CURVE SMOOTH",
"19 345 OFFCURVE",
"20 300 OFFCURVE",
"22 286 CURVE SMOOTH",
"23 278 OFFCURVE",
"24 269 OFFCURVE",
"24 266 CURVE SMOOTH",
"24 263 OFFCURVE",
"25 258 OFFCURVE",
"26 256 CURVE SMOOTH",
"27 253 OFFCURVE",
"30 244 OFFCURVE",
"32 236 CURVE SMOOTH",
"37 214 OFFCURVE",
"53 170 OFFCURVE",
"58 163 CURVE SMOOTH",
"59 162 OFFCURVE",
"64 154 OFFCURVE",
"68 146 CURVE SMOOTH",
"72 139 OFFCURVE",
"78 129 OFFCURVE",
"82 124 CURVE SMOOTH",
"85 120 OFFCURVE",
"88 116 OFFCURVE",
"88 115 CURVE SMOOTH",
"88 114 OFFCURVE",
"117 84 OFFCURVE",
"136 66 CURVE SMOOTH",
"150 53 OFFCURVE",
"179 34 OFFCURVE",
"201 24 CURVE SMOOTH",
"205 22 OFFCURVE",
"211 19 OFFCURVE",
"214 17 CURVE SMOOTH",
"220 12 OFFCURVE",
"245 5 OFFCURVE",
"265 1 CURVE SMOOTH",
"272 -1 OFFCURVE",
"285 -3 OFFCURVE",
"293 -5 CURVE SMOOTH",
"309 -8 OFFCURVE",
"361 -9 OFFCURVE",
"384 -6 CURVE SMOOTH",
"392 -5 OFFCURVE",
"404 -3 OFFCURVE",
"412 -2 CURVE SMOOTH",
"424 -1 OFFCURVE",
"466 15 OFFCURVE",
"482 23 CURVE SMOOTH",
"497 32 OFFCURVE",
"512 43 OFFCURVE",
"527 58 CURVE SMOOTH",
"536 67 OFFCURVE",
"544 74 OFFCURVE",
"546 75 CURVE SMOOTH",
"550 76 OFFCURVE",
"549 76 OFFCURVE",
"582 28 CURVE SMOOTH",
"599 3 OFFCURVE",
"603 0 OFFCURVE",
"634 -1 CURVE SMOOTH",
"653 -2 OFFCURVE",
"655 -2 OFFCURVE",
"661 1 CURVE SMOOTH",
"665 4 OFFCURVE",
"668 8 OFFCURVE",
"668 11 CURVE SMOOTH",
"669 14 OFFCURVE",
"670 18 OFFCURVE",
"672 20 CURVE SMOOTH",
"673 22 OFFCURVE",
"673 24 OFFCURVE",
"672 25 CURVE SMOOTH",
"671 27 OFFCURVE",
"668 137 OFFCURVE",
"667 190 CURVE SMOOTH",
"667 216 OFFCURVE",
"666 242 OFFCURVE",
"665 247 CURVE SMOOTH",
"664 255 OFFCURVE",
"665 264 OFFCURVE",
"667 275 CURVE SMOOTH",
"668 284 OFFCURVE",
"670 301 OFFCURVE",
"670 312 CURVE SMOOTH",
"670 337 OFFCURVE",
"668 344 OFFCURVE",
"654 350 CURVE SMOOTH",
"646 354 OFFCURVE",
"643 354 OFFCURVE",
"628 353 CURVE SMOOTH",
"619 352 OFFCURVE",
"605 352 OFFCURVE",
"596 352 CURVE SMOOTH",
"574 353 OFFCURVE",
"489 355 OFFCURVE",
"437 356 CURVE SMOOTH",
"413 356 OFFCURVE",
"387 357 OFFCURVE",
"379 358 CURVE SMOOTH",
"365 359 OFFCURVE",
"364 359 OFFCURVE",
"358 354 CURVE SMOOTH",
"353 349 LINE",
"351 304 LINE SMOOTH",
"351 279 OFFCURVE",
"350 257 OFFCURVE",
"350 255 CURVE SMOOTH",
"348 247 OFFCURVE",
"350 237 OFFCURVE",
"353 234 CURVE SMOOTH",
"358 229 OFFCURVE",
"372 228 OFFCURVE",
"387 230 CURVE SMOOTH",
"392 230 OFFCURVE",
"402 230 OFFCURVE",
"407 230 CURVE SMOOTH",
"413 229 OFFCURVE",
"428 228 OFFCURVE",
"441 227 CURVE SMOOTH",
"454 227 OFFCURVE",
"466 226 OFFCURVE",
"467 225 CURVE SMOOTH",
"472 222 OFFCURVE",
"467 206 OFFCURVE",
"455 183 CURVE SMOOTH",
"450 174 OFFCURVE",
"430 155 OFFCURVE",
"419 150 CURVE SMOOTH",
"408 144 OFFCURVE",
"381 138 OFFCURVE",
"364 138 CURVE SMOOTH",
"330 138 OFFCURVE",
"306 147 OFFCURVE",
"286 167 CURVE SMOOTH",
"249 205 OFFCURVE",
"238 263 OFFCURVE",
"243 394 CURVE SMOOTH",
"244 431 OFFCURVE",
"247 454 OFFCURVE",
"255 484 CURVE SMOOTH",
"259 499 OFFCURVE",
"261 503 OFFCURVE",
"271 518 CURVE SMOOTH",
"291 548 OFFCURVE",
"310 560 OFFCURVE",
"338 563 CURVE SMOOTH",
"358 565 OFFCURVE",
"374 565 OFFCURVE",
"384 562 CURVE SMOOTH",
"413 553 OFFCURVE",
"413 553 OFFCURVE",
"425 541 CURVE SMOOTH",
"438 528 OFFCURVE",
"453 506 OFFCURVE",
"457 494 CURVE SMOOTH",
"458 490 OFFCURVE",
"461 480 OFFCURVE",
"463 471 CURVE SMOOTH",
"465 461 OFFCURVE",
"468 452 OFFCURVE",
"470 450 CURVE SMOOTH",
"473 446 OFFCURVE",
"475 446 OFFCURVE",
"488 447 CURVE SMOOTH",
"505 449 OFFCURVE",
"536 454 OFFCURVE",
"547 456 CURVE SMOOTH",
"550 457 OFFCURVE",
"560 458 OFFCURVE",
"569 459 CURVE SMOOTH",
"578 459 OFFCURVE",
"594 461 OFFCURVE",
"606 463 CURVE SMOOTH",
"617 465 OFFCURVE",
"628 465 OFFCURVE",
"629 465 CURVE SMOOTH",
"631 463 OFFCURVE",
"642 467 OFFCURVE",
"653 472 CURVE SMOOTH",
"665 478 OFFCURVE",
"665 480 OFFCURVE",
"658 511 CURVE SMOOTH",
"654 525 OFFCURVE",
"629 575 OFFCURVE",
"618 588 CURVE SMOOTH",
"602 608 OFFCURVE",
"583 630 OFFCURVE",
"582 630 CURVE SMOOTH",
"581 630 OFFCURVE",
"575 634 OFFCURVE",
"569 639 CURVE SMOOTH",
"557 650 OFFCURVE",
"549 655 OFFCURVE",
"529 665 CURVE SMOOTH",
"521 669 OFFCURVE",
"512 675 OFFCURVE",
"509 676 CURVE SMOOTH",
"507 678 OFFCURVE",
"501 681 OFFCURVE",
"497 682 CURVE SMOOTH",
"493 684 OFFCURVE",
"485 687 OFFCURVE",
"479 689 CURVE SMOOTH",
"466 695 OFFCURVE",
"432 704 OFFCURVE",
"419 705 CURVE SMOOTH",
"413 705 OFFCURVE",
"397 706 OFFCURVE",
"382 707 CURVE SMOOTH",
"367 707 OFFCURVE",
"348 708 OFFCURVE",
"340 708 CURVE SMOOTH",
"332 709 OFFCURVE",
"322 708 OFFCURVE",
"317 707 CURVE SMOOTH"
);
}
);
width = 693;
}
);
unicode = 0047;
},
{
glyphname = H;
lastChange = "2015-06-01 20:23:06 +0000";
layers = (
{
layerId = "258ED206-D907-4350-8EBA-CBDDA1C16BF7";
name = Regular;
paths = (
{
closed = 1;
nodes = (
"32 702 OFFCURVE",
"28 698 OFFCURVE",
"26 695 CURVE SMOOTH",
"22 689 OFFCURVE",
"22 715 OFFCURVE",
"20 255 CURVE SMOOTH",
"20 71 OFFCURVE",
"20 18 OFFCURVE",
"22 14 CURVE SMOOTH",
"25 7 OFFCURVE",
"40 0 OFFCURVE",
"48 1 CURVE SMOOTH",
"56 3 OFFCURVE",
"137 3 OFFCURVE",
"185 1 CURVE SMOOTH",
"227 0 LINE",
"231 5 LINE SMOOTH",
"241 14 OFFCURVE",
"242 19 OFFCURVE",
"241 45 CURVE SMOOTH",
"240 58 OFFCURVE",
"239 116 OFFCURVE",
"239 173 CURVE SMOOTH",
"238 277 LINE",
"243 279 LINE SMOOTH",
"246 280 OFFCURVE",
"250 281 OFFCURVE",
"253 280 CURVE SMOOTH",
"257 279 OFFCURVE",
"330 279 OFFCURVE",
"386 280 CURVE SMOOTH",
"411 280 OFFCURVE",
"421 280 OFFCURVE",
"423 278 CURVE SMOOTH",
"426 276 OFFCURVE",
"426 266 OFFCURVE",
"426 211 CURVE SMOOTH",
"425 146 OFFCURVE",
"424 96 OFFCURVE",
"422 46 CURVE SMOOTH",
"421 17 OFFCURVE",
"422 11 OFFCURVE",
"430 6 CURVE SMOOTH",
"437 3 OFFCURVE",
"469 2 OFFCURVE",
"557 2 CURVE SMOOTH",
"611 3 OFFCURVE",
"631 5 OFFCURVE",
"637 11 CURVE SMOOTH",
"640 14 OFFCURVE",
"640 41 OFFCURVE",
"641 289 CURVE SMOOTH",
"641 441 OFFCURVE",
"642 570 OFFCURVE",
"642 576 CURVE SMOOTH",
"643 582 OFFCURVE",
"643 609 OFFCURVE",
"643 637 CURVE SMOOTH",
"644 703 OFFCURVE",
"645 701 OFFCURVE",
"601 702 CURVE SMOOTH",
"585 702 OFFCURVE",
"556 703 OFFCURVE",
"535 704 CURVE SMOOTH",
"515 704 OFFCURVE",
"485 705 OFFCURVE",
"469 705 CURVE SMOOTH",
"424 705 OFFCURVE",
"422 703 OFFCURVE",
"424 659 CURVE SMOOTH",
"427 603 OFFCURVE",
"427 447 OFFCURVE",
"424 446 CURVE SMOOTH",
"423 445 OFFCURVE",
"383 444 OFFCURVE",
"334 444 CURVE SMOOTH",
"260 443 OFFCURVE",
"246 444 OFFCURVE",
"242 446 CURVE SMOOTH",
"237 449 LINE",
"239 503 LINE SMOOTH",
"239 533 OFFCURVE",
"240 580 OFFCURVE",
"241 608 CURVE SMOOTH",
"241 636 OFFCURVE",
"242 660 OFFCURVE",
"243 661 CURVE SMOOTH",
"243 662 OFFCURVE",
"243 670 OFFCURVE",
"242 678 CURVE SMOOTH",
"241 690 OFFCURVE",
"239 694 OFFCURVE",
"235 698 CURVE SMOOTH",
"230 703 LINE",
"152 704 LINE SMOOTH",
"108 704 OFFCURVE",
"66 705 OFFCURVE",
"57 705 CURVE SMOOTH",
"47 705 OFFCURVE",
"38 704 OFFCURVE",
"35 703 CURVE SMOOTH"
);
}
);
width = 663;
}
);
unicode = 0048;
},
{
glyphname = I;
lastChange = "2015-06-01 20:23:06 +0000";
layers = (
{
layerId = "258ED206-D907-4350-8EBA-CBDDA1C16BF7";
name = Regular;
paths = (
{
closed = 1;
nodes = (
"29 702 OFFCURVE",
"24 698 OFFCURVE",
"22 686 CURVE SMOOTH",
"20 680 OFFCURVE",
"20 624 OFFCURVE",
"21 497 CURVE SMOOTH",
"22 270 OFFCURVE",
"22 296 OFFCURVE",
"21 146 CURVE SMOOTH",
"20 24 OFFCURVE",
"20 17 OFFCURVE",
"24 12 CURVE SMOOTH",
"30 0 OFFCURVE",
"24 1 OFFCURVE",
"200 0 CURVE SMOOTH",
"221 0 OFFCURVE",
"232 2 OFFCURVE",
"237 8 CURVE SMOOTH",
"241 12 OFFCURVE",
"244 50 OFFCURVE",
"241 66 CURVE SMOOTH",
"240 72 OFFCURVE",
"240 92 OFFCURVE",
"240 112 CURVE SMOOTH",
"241 131 OFFCURVE",
"242 149 OFFCURVE",
"242 152 CURVE SMOOTH",
"242 154 OFFCURVE",
"241 277 OFFCURVE",
"241 424 CURVE SMOOTH",
"241 692 LINE",
"235 697 LINE",
"230 703 LINE",
"171 703 LINE SMOOTH",
"139 703 OFFCURVE",
"98 704 OFFCURVE",
"82 704 CURVE SMOOTH",
"65 705 OFFCURVE",
"47 704 OFFCURVE",
"41 704 CURVE SMOOTH"
);
}
);
width = 262;
}
);
unicode = 0049;
},
{
glyphname = J;
lastChange = "2015-06-01 20:23:06 +0000";
layers = (
{
layerId = "258ED206-D907-4350-8EBA-CBDDA1C16BF7";
name = Regular;
paths = (
{
closed = 1;
nodes = (
"189 713 OFFCURVE",
"184 710 OFFCURVE",
"181 707 CURVE SMOOTH",
"177 702 OFFCURVE",
"177 701 OFFCURVE",
"177 660 CURVE SMOOTH",
"178 636 OFFCURVE",
"178 539 OFFCURVE",
"178 442 CURVE SMOOTH",
"178 346 OFFCURVE",
"178 263 OFFCURVE",
"178 260 CURVE SMOOTH",
"178 233 OFFCURVE",
"169 207 OFFCURVE",
"155 194 CURVE SMOOTH",
"139 178 OFFCURVE",
"105 171 OFFCURVE",
"75 177 CURVE SMOOTH",
"49 182 OFFCURVE",
"43 182 OFFCURVE",
"39 180 CURVE SMOOTH",
"32 176 OFFCURVE",
"30 168 OFFCURVE",
"27 145 CURVE SMOOTH",
"26 132 OFFCURVE",
"25 118 OFFCURVE",
"24 113 CURVE SMOOTH",
"24 109 OFFCURVE",
"22 88 OFFCURVE",
"21 68 CURVE SMOOTH",
"19 34 OFFCURVE",
"19 31 OFFCURVE",
"23 25 CURVE SMOOTH",
"28 16 OFFCURVE",
"38 10 OFFCURVE",
"47 10 CURVE SMOOTH",
"51 10 OFFCURVE",
"62 8 OFFCURVE",
"71 6 CURVE SMOOTH",
"119 -5 OFFCURVE",
"226 -1 OFFCURVE",
"267 14 CURVE SMOOTH",
"273 16 OFFCURVE",
"280 19 OFFCURVE",
"284 20 CURVE SMOOTH",
"294 23 OFFCURVE",
"324 38 OFFCURVE",
"330 44 CURVE SMOOTH",
"334 47 OFFCURVE",
"340 52 OFFCURVE",
"343 55 CURVE SMOOTH",
"359 67 OFFCURVE",
"380 100 OFFCURVE",
"383 121 CURVE SMOOTH",
"384 125 OFFCURVE",
"386 132 OFFCURVE",
"388 136 CURVE SMOOTH",
"392 144 OFFCURVE",
"392 152 OFFCURVE",
"395 202 CURVE SMOOTH",
"398 280 OFFCURVE",
"397 694 OFFCURVE",
"394 702 CURVE SMOOTH",
"389 714 OFFCURVE",
"387 714 OFFCURVE",
"289 715 CURVE SMOOTH",
"240 715 OFFCURVE",
"197 715 OFFCURVE",
"193 714 CURVE SMOOTH"
);
}
);
width = 417;
}
);
unicode = 004A;
},
{
glyphname = K;
lastChange = "2015-06-01 20:23:06 +0000";
layers = (
{
layerId = "258ED206-D907-4350-8EBA-CBDDA1C16BF7";
name = Regular;
paths = (
{
closed = 1;
nodes = (
"31 698 OFFCURVE",
"23 694 OFFCURVE",
"21 686 CURVE SMOOTH",
"20 684 OFFCURVE",
"20 648 OFFCURVE",
"20 606 CURVE SMOOTH",
"20 565 OFFCURVE",
"20 506 OFFCURVE",
"20 475 CURVE SMOOTH",
"20 443 OFFCURVE",
"20 415 OFFCURVE",
"20 411 CURVE SMOOTH",
"20 408 OFFCURVE",
"20 325 OFFCURVE",
"20 229 CURVE SMOOTH",
"20 132 OFFCURVE",
"20 46 OFFCURVE",
"20 37 CURVE SMOOTH",
"20 15 OFFCURVE",
"21 11 OFFCURVE",
"30 5 CURVE SMOOTH",
"37 0 LINE",
"132 0 LINE",
"227 1 LINE",
"233 6 LINE",
"238 12 LINE",
"237 72 LINE SMOOTH",
"235 177 OFFCURVE",
"235 177 OFFCURVE",
"241 188 CURVE SMOOTH",
"244 193 OFFCURVE",
"250 200 OFFCURVE",
"253 204 CURVE SMOOTH",
"257 208 OFFCURVE",
"266 220 OFFCURVE",
"273 231 CURVE SMOOTH",
"281 242 OFFCURVE",
"292 257 OFFCURVE",
"298 263 CURVE SMOOTH",
"322 291 OFFCURVE",
"325 293 OFFCURVE",
"329 283 CURVE SMOOTH",
"330 280 OFFCURVE",
"333 275 OFFCURVE",
"335 272 CURVE SMOOTH",
"337 270 OFFCURVE",
"340 262 OFFCURVE",
"342 257 CURVE SMOOTH",
"347 243 OFFCURVE",
"371 191 OFFCURVE",
"383 166 CURVE SMOOTH",
"388 155 OFFCURVE",
"393 145 OFFCURVE",
"393 143 CURVE SMOOTH",
"393 142 OFFCURVE",
"395 136 OFFCURVE",
"398 129 CURVE SMOOTH",
"402 123 OFFCURVE",
"405 116 OFFCURVE",
"406 113 CURVE SMOOTH",
"406 110 OFFCURVE",
"411 99 OFFCURVE",
"417 88 CURVE SMOOTH",
"430 59 OFFCURVE",
"439 38 OFFCURVE",
"443 23 CURVE SMOOTH",
"444 17 OFFCURVE",
"452 9 OFFCURVE",
"460 4 CURVE SMOOTH",
"466 0 OFFCURVE",
"470 0 OFFCURVE",
"520 1 CURVE SMOOTH",
"549 2 OFFCURVE",
"594 2 OFFCURVE",
"619 2 CURVE SMOOTH",
"644 1 OFFCURVE",
"668 1 OFFCURVE",
"671 2 CURVE SMOOTH",
"684 6 OFFCURVE",
"684 17 OFFCURVE",
"671 44 CURVE SMOOTH",
"667 53 OFFCURVE",
"660 65 OFFCURVE",
"657 70 CURVE SMOOTH",
"654 75 OFFCURVE",
"650 81 OFFCURVE",
"649 84 CURVE SMOOTH",
"649 86 OFFCURVE",
"645 94 OFFCURVE",
"642 101 CURVE SMOOTH",
"630 127 OFFCURVE",
"614 160 OFFCURVE",
"601 186 CURVE SMOOTH",
"594 201 OFFCURVE",
"585 220 OFFCURVE",
"582 228 CURVE SMOOTH",
"579 236 OFFCURVE",
"574 247 OFFCURVE",
"571 251 CURVE SMOOTH",
"569 256 OFFCURVE",
"566 261 OFFCURVE",
"566 263 CURVE SMOOTH",
"566 265 OFFCURVE",
"564 269 OFFCURVE",
"562 274 CURVE SMOOTH",
"560 278 OFFCURVE",
"554 289 OFFCURVE",
"549 298 CURVE SMOOTH",
"544 307 OFFCURVE",
"540 316 OFFCURVE",
"538 318 CURVE SMOOTH",
"537 319 OFFCURVE",
"534 326 OFFCURVE",
"531 332 CURVE SMOOTH",
"529 339 OFFCURVE",
"526 345 OFFCURVE",
"524 347 CURVE SMOOTH",
"523 349 OFFCURVE",
"518 359 OFFCURVE",
"513 369 CURVE SMOOTH",
"508 380 OFFCURVE",
"503 390 OFFCURVE",
"502 392 CURVE SMOOTH",
"500 395 OFFCURVE",
"499 398 OFFCURVE",
"492 414 CURVE SMOOTH",
"489 420 OFFCURVE",
"485 427 OFFCURVE",
"482 432 CURVE SMOOTH",
"475 442 OFFCURVE",
"467 461 OFFCURVE",
"467 466 CURVE SMOOTH",
"467 473 OFFCURVE",
"472 482 OFFCURVE",
"484 495 CURVE SMOOTH",
"498 511 OFFCURVE",
"504 518 OFFCURVE",
"520 539 CURVE SMOOTH",
"527 548 OFFCURVE",
"540 565 OFFCURVE",
"550 577 CURVE SMOOTH",
"560 588 OFFCURVE",
"574 606 OFFCURVE",
"581 615 CURVE SMOOTH",
"588 625 OFFCURVE",
"598 637 OFFCURVE",
"604 642 CURVE SMOOTH",
"619 658 OFFCURVE",
"632 676 OFFCURVE",
"634 682 CURVE SMOOTH",
"635 690 OFFCURVE",
"631 695 OFFCURVE",
"618 699 CURVE SMOOTH",
"610 701 OFFCURVE",
"595 702 OFFCURVE",
"528 701 CURVE SMOOTH",
"468 700 OFFCURVE",
"446 699 OFFCURVE",
"442 697 CURVE SMOOTH",
"436 694 OFFCURVE",
"416 672 OFFCURVE",
"408 658 CURVE SMOOTH",
"405 653 OFFCURVE",
"395 638 OFFCURVE",
"386 626 CURVE SMOOTH",
"378 613 OFFCURVE",
"367 599 OFFCURVE",
"364 593 CURVE SMOOTH",
"360 588 OFFCURVE",
"353 578 OFFCURVE",
"347 571 CURVE SMOOTH",
"342 564 OFFCURVE",
"332 551 OFFCURVE",
"327 543 CURVE SMOOTH",
"321 534 OFFCURVE",
"315 525 OFFCURVE",
"312 523 CURVE SMOOTH",
"310 521 OFFCURVE",
"303 511 OFFCURVE",
"297 503 CURVE SMOOTH",
"292 495 OFFCURVE",
"281 481 OFFCURVE",
"275 472 CURVE SMOOTH",
"268 464 OFFCURVE",
"258 450 OFFCURVE",
"253 441 CURVE SMOOTH",
"242 425 OFFCURVE",
"240 424 OFFCURVE",
"235 427 CURVE SMOOTH",
"230 430 OFFCURVE",
"232 599 OFFCURVE",
"238 664 CURVE SMOOTH",
"240 688 OFFCURVE",
"237 694 OFFCURVE",
"220 698 CURVE SMOOTH",
"211 700 OFFCURVE",
"67 702 OFFCURVE",
"47 700 CURVE SMOOTH"
);
}
);
width = 701;
}
);
unicode = 004B;
},
{
glyphname = L;
lastChange = "2015-06-01 20:23:06 +0000";
layers = (
{
layerId = "258ED206-D907-4350-8EBA-CBDDA1C16BF7";
name = Regular;
paths = (
{
closed = 1;
nodes = (
"37 695 OFFCURVE",
"34 693 OFFCURVE",
"31 688 CURVE SMOOTH",
"27 681 OFFCURVE",
"27 678 OFFCURVE",
"26 622 CURVE SMOOTH",
"26 590 OFFCURVE",
"26 507 OFFCURVE",
"25 437 CURVE SMOOTH",
"24 367 OFFCURVE",
"23 259 OFFCURVE",
"23 196 CURVE SMOOTH",
"22 132 OFFCURVE",
"21 68 OFFCURVE",
"21 53 CURVE SMOOTH",
"19 23 OFFCURVE",
"21 14 OFFCURVE",
"28 9 CURVE SMOOTH",
"37 3 OFFCURVE",
"52 1 OFFCURVE",
"80 2 CURVE SMOOTH",
"95 3 OFFCURVE",
"112 3 OFFCURVE",
"119 2 CURVE SMOOTH",
"126 1 OFFCURVE",
"136 1 OFFCURVE",
"140 2 CURVE SMOOTH",
"144 2 OFFCURVE",
"153 3 OFFCURVE",
"159 3 CURVE SMOOTH",
"181 3 OFFCURVE",
"366 2 OFFCURVE",
"445 1 CURVE SMOOTH",
"530 -1 OFFCURVE",
"534 0 OFFCURVE",
"548 7 CURVE SMOOTH",
"554 10 OFFCURVE",
"556 20 OFFCURVE",
"557 66 CURVE SMOOTH",
"558 120 OFFCURVE",
"556 139 OFFCURVE",
"549 146 CURVE SMOOTH",
"544 151 LINE",
"475 151 LINE SMOOTH",
"436 152 OFFCURVE",
"395 152 OFFCURVE",
"383 152 CURVE SMOOTH",
"370 152 OFFCURVE",
"356 152 OFFCURVE",
"350 151 CURVE SMOOTH",
"338 149 OFFCURVE",
"249 147 OFFCURVE",
"241 149 CURVE SMOOTH",
"237 149 OFFCURVE",
"233 152 OFFCURVE",
"232 154 CURVE SMOOTH",
"231 156 OFFCURVE",
"231 170 OFFCURVE",
"233 196 CURVE SMOOTH",
"234 217 OFFCURVE",
"235 279 OFFCURVE",
"235 334 CURVE SMOOTH",
"236 389 OFFCURVE",
"237 457 OFFCURVE",
"238 486 CURVE SMOOTH",
"238 515 OFFCURVE",
"239 542 OFFCURVE",
"239 546 CURVE SMOOTH",
"237 558 OFFCURVE",
"237 599 OFFCURVE",
"238 644 CURVE SMOOTH",
"239 689 OFFCURVE",
"239 692 OFFCURVE",
"224 696 CURVE SMOOTH",
"217 698 OFFCURVE",
"155 699 OFFCURVE",
"97 698 CURVE SMOOTH",
"89 698 OFFCURVE",
"76 698 OFFCURVE",
"68 698 CURVE SMOOTH",
"59 699 OFFCURVE",
"48 698 OFFCURVE",
"43 697 CURVE SMOOTH"
);
}
);
width = 577;
}
);
unicode = 004C;
},
{
glyphname = M;
lastChange = "2015-06-01 20:23:06 +0000";
layers = (
{
layerId = "258ED206-D907-4350-8EBA-CBDDA1C16BF7";
name = Regular;
paths = (
{
closed = 1;
nodes = (
"32 700 OFFCURVE",
"27 697 OFFCURVE",
"25 695 CURVE SMOOTH",
"21 690 OFFCURVE",
"21 687 OFFCURVE",
"21 512 CURVE SMOOTH",
"21 414 OFFCURVE",
"21 331 OFFCURVE",
"21 328 CURVE SMOOTH",
"21 325 OFFCURVE",
"21 263 OFFCURVE",
"20 191 CURVE SMOOTH",
"20 13 OFFCURVE",
"20 18 OFFCURVE",
"24 12 CURVE SMOOTH",
"25 9 OFFCURVE",
"30 5 OFFCURVE",
"33 3 CURVE SMOOTH",
"39 0 OFFCURVE",
"42 0 OFFCURVE",
"58 0 CURVE SMOOTH",
"68 1 OFFCURVE",
"103 2 OFFCURVE",
"134 2 CURVE SMOOTH",
"205 3 OFFCURVE",
"200 1 OFFCURVE",
"200 31 CURVE SMOOTH",
"200 42 OFFCURVE",
"200 51 OFFCURVE",
"199 52 CURVE SMOOTH",
"197 55 OFFCURVE",
"192 207 OFFCURVE",
"193 243 CURVE SMOOTH",
"193 258 OFFCURVE",
"193 311 OFFCURVE",
"193 361 CURVE SMOOTH",
"193 412 OFFCURVE",
"193 455 OFFCURVE",
"194 456 CURVE SMOOTH",
"195 459 OFFCURVE",
"195 460 OFFCURVE",
"197 458 CURVE SMOOTH",
"200 455 OFFCURVE",
"210 426 OFFCURVE",
"210 420 CURVE SMOOTH",
"210 417 OFFCURVE",
"213 409 OFFCURVE",
"217 401 CURVE SMOOTH",
"220 393 OFFCURVE",
"225 380 OFFCURVE",
"228 371 CURVE SMOOTH",
"230 362 OFFCURVE",
"233 352 OFFCURVE",
"234 347 CURVE SMOOTH",
"239 331 OFFCURVE",
"281 207 OFFCURVE",
"283 201 CURVE SMOOTH",
"285 198 OFFCURVE",
"287 192 OFFCURVE",
"288 187 CURVE SMOOTH",
"289 182 OFFCURVE",
"291 177 OFFCURVE",
"292 176 CURVE SMOOTH",
"293 175 OFFCURVE",
"294 169 OFFCURVE",
"296 163 CURVE SMOOTH",
"297 157 OFFCURVE",
"300 147 OFFCURVE",
"303 140 CURVE SMOOTH",
"310 120 OFFCURVE",
"313 108 OFFCURVE",
"315 101 CURVE SMOOTH",
"316 97 OFFCURVE",
"319 86 OFFCURVE",
"322 76 CURVE SMOOTH",
"325 65 OFFCURVE",
"330 48 OFFCURVE",
"333 37 CURVE SMOOTH",
"336 25 OFFCURVE",
"339 14 OFFCURVE",
"341 12 CURVE SMOOTH",
"347 3 OFFCURVE",
"349 3 OFFCURVE",
"413 3 CURVE SMOOTH",
"467 3 OFFCURVE",
"473 3 OFFCURVE",
"478 6 CURVE SMOOTH",
"484 10 OFFCURVE",
"492 26 OFFCURVE",
"494 38 CURVE SMOOTH",
"495 42 OFFCURVE",
"497 50 OFFCURVE",
"499 55 CURVE SMOOTH",
"501 61 OFFCURVE",
"503 68 OFFCURVE",
"504 73 CURVE SMOOTH",
"505 81 OFFCURVE",
"516 117 OFFCURVE",
"523 136 CURVE SMOOTH",
"526 143 OFFCURVE",
"529 153 OFFCURVE",
"530 158 CURVE SMOOTH",
"532 170 OFFCURVE",
"537 185 OFFCURVE",
"542 199 CURVE SMOOTH",
"544 206 OFFCURVE",
"549 221 OFFCURVE",
"552 234 CURVE SMOOTH",
"556 246 OFFCURVE",
"562 262 OFFCURVE",
"565 269 CURVE SMOOTH",
"568 276 OFFCURVE",
"572 285 OFFCURVE",
"573 290 CURVE SMOOTH",
"581 313 OFFCURVE",
"599 365 OFFCURVE",
"600 368 CURVE SMOOTH",
"601 370 OFFCURVE",
"605 384 OFFCURVE",
"610 400 CURVE SMOOTH",
"614 415 OFFCURVE",
"619 433 OFFCURVE",
"622 440 CURVE SMOOTH",
"625 446 OFFCURVE",
"627 453 OFFCURVE",
"627 455 CURVE SMOOTH",
"627 461 OFFCURVE",
"632 457 OFFCURVE",
"634 450 CURVE SMOOTH",
"635 443 OFFCURVE",
"634 215 OFFCURVE",
"632 192 CURVE SMOOTH",
"632 185 OFFCURVE",
"631 150 OFFCURVE",
"630 114 CURVE SMOOTH",
"630 77 OFFCURVE",
"629 41 OFFCURVE",
"628 34 CURVE SMOOTH",
"627 18 OFFCURVE",
"629 12 OFFCURVE",
"639 7 CURVE SMOOTH",
"644 4 OFFCURVE",
"655 4 OFFCURVE",
"740 4 CURVE SMOOTH",
"835 4 LINE",
"841 10 LINE",
"846 15 LINE",
"845 128 LINE SMOOTH",
"843 288 OFFCURVE",
"842 414 OFFCURVE",
"844 425 CURVE SMOOTH",
"844 429 OFFCURVE",
"844 454 OFFCURVE",
"842 479 CURVE SMOOTH",
"841 507 OFFCURVE",
"841 528 OFFCURVE",
"842 533 CURVE SMOOTH",
"842 537 OFFCURVE",
"843 574 OFFCURVE",
"843 614 CURVE SMOOTH",
"843 693 OFFCURVE",
"843 691 OFFCURVE",
"832 697 CURVE SMOOTH",
"827 699 OFFCURVE",
"814 700 OFFCURVE",
"751 700 CURVE SMOOTH",
"709 699 OFFCURVE",
"646 700 OFFCURVE",
"611 700 CURVE SMOOTH",
"547 701 LINE",
"542 696 LINE SMOOTH",
"533 690 OFFCURVE",
"533 689 OFFCURVE",
"510 605 CURVE SMOOTH",
"506 592 OFFCURVE",
"499 572 OFFCURVE",
"495 559 CURVE SMOOTH",
"487 538 OFFCURVE",
"483 525 OFFCURVE",
"476 500 CURVE SMOOTH",
"475 494 OFFCURVE",
"467 469 OFFCURVE",
"458 443 CURVE SMOOTH",
"449 417 OFFCURVE",
"442 394 OFFCURVE",
"442 393 CURVE SMOOTH",
"442 388 OFFCURVE",
"438 380 OFFCURVE",
"435 380 CURVE SMOOTH",
"434 380 OFFCURVE",
"432 385 OFFCURVE",
"430 391 CURVE SMOOTH",
"428 397 OFFCURVE",
"424 405 OFFCURVE",
"423 408 CURVE SMOOTH",
"421 411 OFFCURVE",
"416 424 OFFCURVE",
"412 435 CURVE SMOOTH",
"408 447 OFFCURVE",
"404 458 OFFCURVE",
"403 459 CURVE SMOOTH",
"402 460 OFFCURVE",
"400 467 OFFCURVE",
"397 475 CURVE SMOOTH",
"393 490 OFFCURVE",
"390 500 OFFCURVE",
"375 547 CURVE SMOOTH",
"371 562 OFFCURVE",
"365 580 OFFCURVE",
"363 588 CURVE SMOOTH",
"360 595 OFFCURVE",
"356 609 OFFCURVE",
"352 618 CURVE SMOOTH",
"349 627 OFFCURVE",
"344 644 OFFCURVE",
"340 656 CURVE SMOOTH",
"332 688 OFFCURVE",
"329 694 OFFCURVE",
"320 699 CURVE SMOOTH",
"313 702 OFFCURVE",
"306 702 OFFCURVE",
"235 702 CURVE SMOOTH",
"114 701 OFFCURVE",
"102 701 OFFCURVE",
"98 698 CURVE SMOOTH",
"95 697 OFFCURVE",
"92 696 OFFCURVE",
"91 697 CURVE SMOOTH",
"88 699 OFFCURVE",
"75 700 OFFCURVE",
"53 702 CURVE SMOOTH",
"47 703 OFFCURVE",
"39 703 OFFCURVE",
"35 701 CURVE SMOOTH"
);
}
);
width = 866;
}
);
unicode = 004D;
},
{
glyphname = N;
lastChange = "2015-06-01 20:23:06 +0000";
layers = (
{
layerId = "258ED206-D907-4350-8EBA-CBDDA1C16BF7";
name = Regular;
paths = (
{
closed = 1;
nodes = (
"31 696 OFFCURVE",
"26 693 OFFCURVE",
"24 687 CURVE SMOOTH",
"22 682 OFFCURVE",
"21 628 OFFCURVE",
"21 411 CURVE SMOOTH",
"22 92 OFFCURVE",
"22 114 OFFCURVE",
"21 61 CURVE SMOOTH",
"20 14 OFFCURVE",
"20 9 OFFCURVE",
"30 4 CURVE SMOOTH",
"36 1 OFFCURVE",
"47 0 OFFCURVE",
"109 0 CURVE SMOOTH",
"148 0 OFFCURVE",
"184 0 OFFCURVE",
"187 1 CURVE SMOOTH",
"198 4 OFFCURVE",
"198 6 OFFCURVE",
"197 60 CURVE SMOOTH",
"194 160 OFFCURVE",
"193 368 OFFCURVE",
"196 372 CURVE SMOOTH",
"197 374 OFFCURVE",
"199 373 OFFCURVE",
"203 368 CURVE SMOOTH",
"207 364 OFFCURVE",
"209 360 OFFCURVE",
"209 359 CURVE SMOOTH",
"209 358 OFFCURVE",
"216 349 OFFCURVE",
"224 339 CURVE SMOOTH",
"240 320 OFFCURVE",
"279 269 OFFCURVE",
"289 255 CURVE SMOOTH",
"292 251 OFFCURVE",
"298 243 OFFCURVE",
"303 237 CURVE SMOOTH",
"315 221 OFFCURVE",
"325 207 OFFCURVE",
"337 188 CURVE SMOOTH",
"348 172 OFFCURVE",
"351 169 OFFCURVE",
"370 145 CURVE SMOOTH",
"381 132 OFFCURVE",
"405 98 OFFCURVE",
"423 72 CURVE SMOOTH",
"429 63 OFFCURVE",
"435 55 OFFCURVE",
"437 53 CURVE SMOOTH",
"440 50 OFFCURVE",
"445 43 OFFCURVE",
"449 36 CURVE SMOOTH",
"458 20 OFFCURVE",
"468 9 OFFCURVE",
"477 6 CURVE SMOOTH",
"483 3 OFFCURVE",
"501 3 OFFCURVE",
"586 2 CURVE SMOOTH",
"619 2 OFFCURVE",
"624 2 OFFCURVE",
"629 5 CURVE SMOOTH",
"636 10 OFFCURVE",
"638 14 OFFCURVE",
"638 26 CURVE SMOOTH",
"638 31 OFFCURVE",
"638 182 OFFCURVE",
"638 361 CURVE SMOOTH",
"637 662 OFFCURVE",
"637 688 OFFCURVE",
"634 691 CURVE SMOOTH",
"627 698 OFFCURVE",
"618 699 OFFCURVE",
"548 699 CURVE SMOOTH",
"473 698 OFFCURVE",
"473 698 OFFCURVE",
"467 687 CURVE SMOOTH",
"464 680 OFFCURVE",
"464 674 OFFCURVE",
"465 616 CURVE SMOOTH",
"467 559 OFFCURVE",
"468 374 OFFCURVE",
"467 368 CURVE SMOOTH",
"465 362 OFFCURVE",
"459 360 OFFCURVE",
"457 365 CURVE SMOOTH",
"456 369 OFFCURVE",
"439 393 OFFCURVE",
"429 406 CURVE SMOOTH",
"426 410 OFFCURVE",
"417 422 OFFCURVE",
"411 431 CURVE SMOOTH",
"405 440 OFFCURVE",
"394 454 OFFCURVE",
"388 462 CURVE SMOOTH",
"374 477 OFFCURVE",
"368 486 OFFCURVE",
"360 499 CURVE SMOOTH",
"357 504 OFFCURVE",
"351 512 OFFCURVE",
"347 517 CURVE SMOOTH",
"337 528 OFFCURVE",
"330 536 OFFCURVE",
"330 539 CURVE SMOOTH",
"330 540 OFFCURVE",
"325 547 OFFCURVE",
"320 553 CURVE SMOOTH",
"314 560 OFFCURVE",
"309 567 OFFCURVE",
"308 568 CURVE SMOOTH",
"306 574 OFFCURVE",
"290 596 OFFCURVE",
"285 602 CURVE SMOOTH",
"280 606 OFFCURVE",
"274 614 OFFCURVE",
"263 633 CURVE SMOOTH",
"256 644 OFFCURVE",
"238 669 OFFCURVE",
"227 683 CURVE SMOOTH",
"215 699 OFFCURVE",
"218 699 OFFCURVE",
"125 699 CURVE SMOOTH",
"80 699 OFFCURVE",
"41 698 OFFCURVE",
"39 698 CURVE SMOOTH"
);
}
);
width = 658;
}
);
unicode = 004E;
},
{
glyphname = O;
lastChange = "2015-06-01 20:23:06 +0000";
layers = (
{
layerId = "258ED206-D907-4350-8EBA-CBDDA1C16BF7";
name = Regular;
paths = (
{
closed = 1;
nodes = (
"330 711 OFFCURVE",
"320 710 OFFCURVE",
"308 709 CURVE SMOOTH",
"297 709 OFFCURVE",
"286 707 OFFCURVE",
"284 706 CURVE SMOOTH",
"281 705 OFFCURVE",
"278 704 OFFCURVE",
"275 704 CURVE SMOOTH",
"269 704 OFFCURVE",
"234 694 OFFCURVE",
"221 688 CURVE SMOOTH",
"206 682 OFFCURVE",
"186 672 OFFCURVE",
"177 665 CURVE SMOOTH",
"173 662 OFFCURVE",
"164 657 OFFCURVE",
"158 653 CURVE SMOOTH",
"146 645 OFFCURVE",
"96 600 OFFCURVE",
"90 590 CURVE SMOOTH",
"75 568 OFFCURVE",
"69 559 OFFCURVE",
"57 536 CURVE SMOOTH",
"27 477 OFFCURVE",
"19 437 OFFCURVE",
"20 343 CURVE SMOOTH",
"20 292 OFFCURVE",
"22 276 OFFCURVE",
"30 239 CURVE SMOOTH",
"34 219 OFFCURVE",
"50 176 OFFCURVE",
"58 163 CURVE SMOOTH",
"62 156 OFFCURVE",
"69 144 OFFCURVE",
"73 138 CURVE SMOOTH",
"93 104 OFFCURVE",
"135 62 OFFCURVE",
"170 41 CURVE SMOOTH",
"182 34 OFFCURVE",
"207 22 OFFCURVE",
"224 14 CURVE SMOOTH",
"261 -2 OFFCURVE",
"323 -10 OFFCURVE",
"380 -7 CURVE SMOOTH",
"397 -6 OFFCURVE",
"414 -5 OFFCURVE",
"418 -4 CURVE SMOOTH",
"422 -3 OFFCURVE",
"428 -2 OFFCURVE",
"431 -2 CURVE SMOOTH",
"447 -2 OFFCURVE",
"529 31 OFFCURVE",
"537 41 CURVE SMOOTH",
"538 42 OFFCURVE",
"540 43 OFFCURVE",
"542 43 CURVE SMOOTH",
"543 43 OFFCURVE",
"548 46 OFFCURVE",
"551 49 CURVE SMOOTH",
"555 52 OFFCURVE",
"562 57 OFFCURVE",
"567 60 CURVE SMOOTH",
"587 74 OFFCURVE",
"617 102 OFFCURVE",
"628 120 CURVE SMOOTH",
"653 158 OFFCURVE",
"666 184 OFFCURVE",
"672 210 CURVE SMOOTH",
"675 220 OFFCURVE",
"678 230 OFFCURVE",
"679 232 CURVE SMOOTH",
"680 234 OFFCURVE",
"683 247 OFFCURVE",
"686 261 CURVE SMOOTH",
"694 302 OFFCURVE",
"695 397 OFFCURVE",
"687 433 CURVE SMOOTH",
"686 438 OFFCURVE",
"684 447 OFFCURVE",
"683 453 CURVE SMOOTH",
"682 459 OFFCURVE",
"680 468 OFFCURVE",
"678 474 CURVE SMOOTH",
"676 480 OFFCURVE",
"674 489 OFFCURVE",
"673 495 CURVE SMOOTH",
"670 506 OFFCURVE",
"659 530 OFFCURVE",
"656 532 CURVE SMOOTH",
"655 532 OFFCURVE",
"650 541 OFFCURVE",
"645 551 CURVE SMOOTH",
"637 567 OFFCURVE",
"630 578 OFFCURVE",
"612 602 CURVE SMOOTH",
"602 615 OFFCURVE",
"569 643 OFFCURVE",
"548 657 CURVE SMOOTH",
"542 660 OFFCURVE",
"532 667 OFFCURVE",
"524 672 CURVE SMOOTH",
"516 677 OFFCURVE",
"509 681 OFFCURVE",
"509 681 CURVE SMOOTH",
"508 681 OFFCURVE",
"504 683 OFFCURVE",
"499 685 CURVE SMOOTH",
"495 687 OFFCURVE",
"485 690 OFFCURVE",
"477 693 CURVE SMOOTH",
"470 695 OFFCURVE",
"457 699 OFFCURVE",
"450 702 CURVE SMOOTH",
"433 707 OFFCURVE",
"405 710 OFFCURVE",
"380 710 CURVE SMOOTH",
"370 710 OFFCURVE",
"355 710 OFFCURVE",
"347 711 CURVE SMOOTH",
"338 712 OFFCURVE",
"331 712 OFFCURVE",
"330 712 CURVE SMOOTH"
);
},
{
closed = 1;
nodes = (
"412 552 OFFCURVE",
"436 533 OFFCURVE",
"436 528 CURVE SMOOTH",
"436 528 OFFCURVE",
"439 523 OFFCURVE",
"442 518 CURVE SMOOTH",
"446 513 OFFCURVE",
"450 505 OFFCURVE",
"452 500 CURVE SMOOTH",
"454 495 OFFCURVE",
"456 490 OFFCURVE",
"457 489 CURVE SMOOTH",
"458 488 OFFCURVE",
"460 481 OFFCURVE",
"462 473 CURVE SMOOTH",
"471 446 OFFCURVE",
"473 397 OFFCURVE",
"470 309 CURVE SMOOTH",
"469 256 OFFCURVE",
"466 238 OFFCURVE",
"457 212 CURVE SMOOTH",
"454 203 OFFCURVE",
"451 194 OFFCURVE",
"450 191 CURVE SMOOTH",
"449 183 OFFCURVE",
"419 155 OFFCURVE",
"406 150 CURVE SMOOTH",
"381 139 OFFCURVE",
"355 136 OFFCURVE",
"332 143 CURVE SMOOTH",
"324 145 OFFCURVE",
"314 147 OFFCURVE",
"310 147 CURVE SMOOTH",
"300 149 OFFCURVE",
"276 172 OFFCURVE",
"267 189 CURVE SMOOTH",
"244 232 OFFCURVE",
"235 332 OFFCURVE",
"246 428 CURVE SMOOTH",
"251 474 OFFCURVE",
"260 505 OFFCURVE",
"275 524 CURVE SMOOTH",
"288 542 OFFCURVE",
"310 558 OFFCURVE",
"320 558 CURVE SMOOTH",
"322 558 OFFCURVE",
"325 559 OFFCURVE",
"328 561 CURVE SMOOTH",
"333 565 OFFCURVE",
"342 566 OFFCURVE",
"366 565 CURVE SMOOTH",
"384 564 OFFCURVE",
"388 563 OFFCURVE",
"400 558 CURVE SMOOTH"
);
}
);
width = 713;
}
);
unicode = 004F;
},
{
glyphname = P;
lastChange = "2015-06-01 20:23:06 +0000";
layers = (
{
layerId = "258ED206-D907-4350-8EBA-CBDDA1C16BF7";
name = Regular;
paths = (
{
closed = 1;
nodes = (
"34 704 OFFCURVE",
"26 698 OFFCURVE",
"22 689 CURVE SMOOTH",
"21 687 OFFCURVE",
"21 654 OFFCURVE",
"21 612 CURVE SMOOTH",
"21 573 OFFCURVE",
"21 462 OFFCURVE",
"22 367 CURVE SMOOTH",
"22 271 OFFCURVE",
"22 182 OFFCURVE",
"22 169 CURVE SMOOTH",
"22 155 OFFCURVE",
"22 123 OFFCURVE",
"21 98 CURVE SMOOTH",
"19 15 OFFCURVE",
"19 12 OFFCURVE",
"32 5 CURVE SMOOTH",
"38 1 OFFCURVE",
"42 0 OFFCURVE",
"59 0 CURVE SMOOTH",
"71 0 OFFCURVE",
"91 1 OFFCURVE",
"104 2 CURVE SMOOTH",
"136 3 OFFCURVE",
"134 3 OFFCURVE",
"158 1 CURVE SMOOTH",
"170 0 OFFCURVE",
"190 0 OFFCURVE",
"202 0 CURVE SMOOTH",
"241 1 OFFCURVE",
"243 4 OFFCURVE",
"244 50 CURVE SMOOTH",
"244 68 OFFCURVE",
"243 93 OFFCURVE",
"243 105 CURVE SMOOTH",
"242 118 OFFCURVE",
"241 139 OFFCURVE",
"240 151 CURVE SMOOTH",
"239 177 OFFCURVE",
"239 253 OFFCURVE",
"240 260 CURVE SMOOTH",
"241 262 OFFCURVE",
"243 265 OFFCURVE",
"245 265 CURVE SMOOTH",
"247 266 OFFCURVE",
"267 266 OFFCURVE",
"290 265 CURVE SMOOTH",
"312 264 OFFCURVE",
"347 264 OFFCURVE",
"367 264 CURVE SMOOTH",
"401 264 OFFCURVE",
"411 265 OFFCURVE",
"431 267 CURVE SMOOTH",
"435 268 OFFCURVE",
"449 270 OFFCURVE",
"461 271 CURVE SMOOTH",
"491 275 OFFCURVE",
"516 283 OFFCURVE",
"544 296 CURVE SMOOTH",
"552 300 OFFCURVE",
"568 310 OFFCURVE",
"577 318 CURVE SMOOTH",
"583 322 OFFCURVE",
"589 328 OFFCURVE",
"592 329 CURVE SMOOTH",
"595 331 OFFCURVE",
"601 337 OFFCURVE",
"605 343 CURVE SMOOTH",
"609 349 OFFCURVE",
"616 356 OFFCURVE",
"620 360 CURVE SMOOTH",
"624 364 OFFCURVE",
"632 378 OFFCURVE",
"638 390 CURVE SMOOTH",
"646 408 OFFCURVE",
"649 416 OFFCURVE",
"653 436 CURVE SMOOTH",
"667 506 OFFCURVE",
"651 574 OFFCURVE",
"608 620 CURVE SMOOTH",
"590 639 OFFCURVE",
"554 665 OFFCURVE",
"536 671 CURVE SMOOTH",
"531 673 OFFCURVE",
"524 675 OFFCURVE",
"521 677 CURVE SMOOTH",
"504 683 OFFCURVE",
"468 693 OFFCURVE",
"446 697 CURVE SMOOTH",
"439 698 OFFCURVE",
"427 700 OFFCURVE",
"420 701 CURVE SMOOTH",
"407 704 OFFCURVE",
"393 705 OFFCURVE",
"376 705 CURVE SMOOTH",
"355 706 OFFCURVE",
"290 706 OFFCURVE",
"272 705 CURVE SMOOTH",
"262 705 OFFCURVE",
"245 704 OFFCURVE",
"235 704 CURVE SMOOTH",
"225 704 OFFCURVE",
"200 704 OFFCURVE",
"180 704 CURVE SMOOTH",
"159 705 OFFCURVE",
"140 705 OFFCURVE",
"138 705 CURVE SMOOTH",
"135 704 OFFCURVE",
"115 705 OFFCURVE",
"94 705 CURVE SMOOTH",
"72 706 OFFCURVE",
"50 706 OFFCURVE",
"45 705 CURVE SMOOTH"
);
},
{
closed = 1;
nodes = (
"362 553 OFFCURVE",
"372 552 OFFCURVE",
"375 551 CURVE SMOOTH",
"378 550 OFFCURVE",
"381 549 OFFCURVE",
"381 550 CURVE SMOOTH",
"382 551 OFFCURVE",
"391 546 OFFCURVE",
"400 541 CURVE SMOOTH",
"427 526 OFFCURVE",
"435 512 OFFCURVE",
"434 483 CURVE SMOOTH",
"434 473 OFFCURVE",
"433 467 OFFCURVE",
"428 457 CURVE SMOOTH",
"422 443 OFFCURVE",
"418 439 OFFCURVE",
"404 430 CURVE SMOOTH",
"387 420 OFFCURVE",
"378 419 OFFCURVE",
"320 416 CURVE SMOOTH",
"291 415 OFFCURVE",
"267 414 OFFCURVE",
"266 414 CURVE SMOOTH",
"266 414 OFFCURVE",
"261 415 OFFCURVE",
"256 415 CURVE SMOOTH",
"241 418 OFFCURVE",
"241 419 OFFCURVE",
"240 468 CURVE SMOOTH",
"239 519 OFFCURVE",
"240 543 OFFCURVE",
"245 549 CURVE SMOOTH",
"247 553 OFFCURVE",
"251 553 OFFCURVE",
"270 554 CURVE SMOOTH",
"282 554 OFFCURVE",
"293 555 OFFCURVE",
"293 555 CURVE SMOOTH",
"294 556 OFFCURVE",
"334 555 OFFCURVE",
"353 554 CURVE SMOOTH"
);
}
);
width = 678;
}
);
unicode = 0050;
},
{
glyphname = Q;
lastChange = "2015-06-01 20:23:06 +0000";
layers = (
{
layerId = "258ED206-D907-4350-8EBA-CBDDA1C16BF7";
name = Regular;
paths = (
{
closed = 1;
nodes = (
"295 706 OFFCURVE",
"274 703 OFFCURVE",
"263 698 CURVE SMOOTH",
"258 697 OFFCURVE",
"245 693 OFFCURVE",
"235 690 CURVE SMOOTH",
"215 685 OFFCURVE",
"194 675 OFFCURVE",
"179 665 CURVE SMOOTH",
"174 662 OFFCURVE",
"167 658 OFFCURVE",
"164 657 CURVE SMOOTH",
"161 655 OFFCURVE",
"154 651 OFFCURVE",
"150 646 CURVE SMOOTH",
"145 642 OFFCURVE",
"136 636 OFFCURVE",
"131 632 CURVE SMOOTH",
"126 628 OFFCURVE",
"117 619 OFFCURVE",
"111 612 CURVE SMOOTH",
"106 605 OFFCURVE",
"97 595 OFFCURVE",
"92 590 CURVE SMOOTH",
"70 564 OFFCURVE",
"35 490 OFFCURVE",
"29 454 CURVE SMOOTH",
"20 403 OFFCURVE",
"17 340 OFFCURVE",
"21 301 CURVE SMOOTH",
"26 250 OFFCURVE",
"41 193 OFFCURVE",
"56 166 CURVE SMOOTH",
"59 161 OFFCURVE",
"62 155 OFFCURVE",
"62 154 CURVE SMOOTH",
"62 152 OFFCURVE",
"66 146 OFFCURVE",
"71 139 CURVE SMOOTH",
"104 97 OFFCURVE",
"110 89 OFFCURVE",
"119 82 CURVE SMOOTH",
"132 70 OFFCURVE",
"148 57 OFFCURVE",
"160 49 CURVE SMOOTH",
"166 45 OFFCURVE",
"177 38 OFFCURVE",
"184 33 CURVE SMOOTH",
"191 28 OFFCURVE",
"201 23 OFFCURVE",
"205 22 CURVE SMOOTH",
"209 20 OFFCURVE",
"214 18 OFFCURVE",
"215 17 CURVE SMOOTH",
"221 13 OFFCURVE",
"250 4 OFFCURVE",
"274 -2 CURVE SMOOTH",
"300 -8 OFFCURVE",
"302 -8 OFFCURVE",
"350 -8 CURVE SMOOTH",
"383 -8 OFFCURVE",
"406 -8 OFFCURVE",
"418 -6 CURVE SMOOTH",
"435 -3 LINE",
"446 -15 LINE SMOOTH",
"495 -70 OFFCURVE",
"503 -77 OFFCURVE",
"529 -90 CURVE SMOOTH",
"569 -110 OFFCURVE",
"613 -121 OFFCURVE",
"657 -121 CURVE SMOOTH",
"683 -121 OFFCURVE",
"692 -117 OFFCURVE",
"696 -105 CURVE SMOOTH",
"700 -93 OFFCURVE",
"700 13 OFFCURVE",
"696 19 CURVE SMOOTH",
"693 25 OFFCURVE",
"689 27 OFFCURVE",
"668 31 CURVE SMOOTH",
"636 38 OFFCURVE",
"601 58 OFFCURVE",
"597 72 CURVE SMOOTH",
"596 78 OFFCURVE",
"598 83 OFFCURVE",
"612 97 CURVE SMOOTH",
"623 109 OFFCURVE",
"639 129 OFFCURVE",
"645 139 CURVE SMOOTH",
"647 142 OFFCURVE",
"650 147 OFFCURVE",
"652 150 CURVE SMOOTH",
"654 153 OFFCURVE",
"659 163 OFFCURVE",
"664 172 CURVE SMOOTH",
"668 182 OFFCURVE",
"673 189 OFFCURVE",
"674 190 CURVE SMOOTH",
"676 190 OFFCURVE",
"677 194 OFFCURVE",
"677 199 CURVE SMOOTH",
"677 204 OFFCURVE",
"680 219 OFFCURVE",
"684 232 CURVE SMOOTH",
"697 286 OFFCURVE",
"702 374 OFFCURVE",
"693 419 CURVE SMOOTH",
"691 431 OFFCURVE",
"689 446 OFFCURVE",
"688 453 CURVE SMOOTH",
"683 493 OFFCURVE",
"654 555 OFFCURVE",
"627 585 CURVE SMOOTH",
"625 588 OFFCURVE",
"621 593 OFFCURVE",
"617 598 CURVE SMOOTH",
"611 607 OFFCURVE",
"594 622 OFFCURVE",
"579 632 CURVE SMOOTH",
"573 636 OFFCURVE",
"564 642 OFFCURVE",
"559 647 CURVE SMOOTH",
"533 671 OFFCURVE",
"505 687 OFFCURVE",
"488 687 CURVE SMOOTH",
"485 687 OFFCURVE",
"480 689 OFFCURVE",
"477 691 CURVE SMOOTH",
"471 696 OFFCURVE",
"437 704 OFFCURVE",
"413 706 CURVE SMOOTH",
"388 709 OFFCURVE",
"344 710 OFFCURVE",
"321 708 CURVE SMOOTH"
);
},
{
closed = 1;
nodes = (
"416 554 OFFCURVE",
"433 540 OFFCURVE",
"449 514 CURVE SMOOTH",
"466 485 OFFCURVE",
"467 479 OFFCURVE",
"472 420 CURVE SMOOTH",
"475 389 OFFCURVE",
"475 375 OFFCURVE",
"474 325 CURVE SMOOTH",
"471 260 OFFCURVE",
"470 252 OFFCURVE",
"462 225 CURVE SMOOTH",
"452 196 OFFCURVE",
"439 173 OFFCURVE",
"425 162 CURVE SMOOTH",
"411 151 OFFCURVE",
"403 146 OFFCURVE",
"391 143 CURVE SMOOTH",
"379 140 OFFCURVE",
"341 139 OFFCURVE",
"330 142 CURVE SMOOTH",
"290 152 OFFCURVE",
"265 184 OFFCURVE",
"253 239 CURVE SMOOTH",
"247 270 OFFCURVE",
"246 286 OFFCURVE",
"246 355 CURVE SMOOTH",
"247 441 OFFCURVE",
"250 464 OFFCURVE",
"267 502 CURVE SMOOTH",
"276 521 OFFCURVE",
"288 536 OFFCURVE",
"303 546 CURVE SMOOTH",
"317 555 OFFCURVE",
"329 560 OFFCURVE",
"348 562 CURVE SMOOTH",
"369 564 OFFCURVE",
"376 564 OFFCURVE",
"389 561 CURVE SMOOTH"
);
}
);
width = 719;
}
);
unicode = 0051;
},
{
glyphname = R;
lastChange = "2015-06-01 20:23:06 +0000";
layers = (
{
layerId = "258ED206-D907-4350-8EBA-CBDDA1C16BF7";
name = Regular;
paths = (
{
closed = 1;
nodes = (
"34 699 OFFCURVE",
"30 696 OFFCURVE",
"27 693 CURVE SMOOTH",
"24 688 OFFCURVE",
"24 684 OFFCURVE",
"23 634 CURVE SMOOTH",
"23 604 OFFCURVE",
"23 566 OFFCURVE",
"24 549 CURVE SMOOTH",
"25 532 OFFCURVE",
"25 510 OFFCURVE",
"24 500 CURVE SMOOTH",
"23 491 OFFCURVE",
"23 454 OFFCURVE",
"23 420 CURVE SMOOTH",
"23 299 OFFCURVE",
"22 132 OFFCURVE",
"21 84 CURVE SMOOTH",
"20 19 OFFCURVE",
"20 16 OFFCURVE",
"23 11 CURVE SMOOTH",
"29 2 OFFCURVE",
"34 0 OFFCURVE",
"58 1 CURVE SMOOTH",
"70 1 OFFCURVE",
"113 0 OFFCURVE",
"152 0 CURVE SMOOTH",
"217 0 OFFCURVE",
"225 0 OFFCURVE",
"231 3 CURVE SMOOTH",
"234 5 OFFCURVE",
"238 9 OFFCURVE",
"239 12 CURVE SMOOTH",
"241 17 OFFCURVE",
"240 201 OFFCURVE",
"238 227 CURVE SMOOTH",
"236 247 OFFCURVE",
"239 276 OFFCURVE",
"243 281 CURVE SMOOTH",
"253 293 OFFCURVE",
"323 291 OFFCURVE",
"323 279 CURVE SMOOTH",
"323 277 OFFCURVE",
"324 274 OFFCURVE",
"326 270 CURVE SMOOTH",
"328 267 OFFCURVE",
"330 261 OFFCURVE",
"332 257 CURVE SMOOTH",
"338 236 OFFCURVE",
"370 145 OFFCURVE",
"377 129 CURVE SMOOTH",
"380 119 OFFCURVE",
"386 104 OFFCURVE",
"388 96 CURVE SMOOTH",
"396 71 OFFCURVE",
"412 23 OFFCURVE",
"416 16 CURVE SMOOTH",
"422 2 OFFCURVE",
"421 2 OFFCURVE",
"536 1 CURVE SMOOTH",
"639 1 LINE",
"645 6 LINE SMOOTH",
"653 13 OFFCURVE",
"653 23 OFFCURVE",
"643 42 CURVE SMOOTH",
"639 50 OFFCURVE",
"635 58 OFFCURVE",
"634 61 CURVE SMOOTH",
"633 63 OFFCURVE",
"630 71 OFFCURVE",
"626 78 CURVE SMOOTH",
"623 85 OFFCURVE",
"619 94 OFFCURVE",
"617 99 CURVE SMOOTH",
"616 103 OFFCURVE",
"611 113 OFFCURVE",
"607 122 CURVE SMOOTH",
"603 130 OFFCURVE",
"600 137 OFFCURVE",
"600 138 CURVE SMOOTH",
"600 139 OFFCURVE",
"596 148 OFFCURVE",
"587 169 CURVE SMOOTH",
"585 173 OFFCURVE",
"584 176 OFFCURVE",
"584 177 CURVE SMOOTH",
"584 178 OFFCURVE",
"578 193 OFFCURVE",
"564 225 CURVE SMOOTH",
"547 263 OFFCURVE",
"543 273 OFFCURVE",
"543 275 CURVE SMOOTH",
"543 277 OFFCURVE",
"542 279 OFFCURVE",
"541 281 CURVE SMOOTH",
"537 285 OFFCURVE",
"526 312 OFFCURVE",
"526 316 CURVE SMOOTH",
"526 321 OFFCURVE",
"534 327 OFFCURVE",
"543 330 CURVE SMOOTH",
"548 331 OFFCURVE",
"552 334 OFFCURVE",
"553 335 CURVE SMOOTH",
"554 336 OFFCURVE",
"556 338 OFFCURVE",
"557 338 CURVE SMOOTH",
"560 338 OFFCURVE",
"582 351 OFFCURVE",
"595 361 CURVE SMOOTH",
"612 375 OFFCURVE",
"627 394 OFFCURVE",
"640 420 CURVE SMOOTH",
"654 447 OFFCURVE",
"662 484 OFFCURVE",
"658 504 CURVE SMOOTH",
"657 510 OFFCURVE",
"657 516 OFFCURVE",
"657 518 CURVE SMOOTH",
"659 521 OFFCURVE",
"652 555 OFFCURVE",
"647 568 CURVE SMOOTH",
"645 573 OFFCURVE",
"640 583 OFFCURVE",
"636 589 CURVE SMOOTH",
"629 602 OFFCURVE",
"597 635 OFFCURVE",
"576 650 CURVE SMOOTH",
"560 662 OFFCURVE",
"534 677 OFFCURVE",
"528 677 CURVE SMOOTH",
"526 677 OFFCURVE",
"523 678 OFFCURVE",
"523 679 CURVE SMOOTH",
"522 680 OFFCURVE",
"518 681 OFFCURVE",
"513 682 CURVE SMOOTH",
"507 682 OFFCURVE",
"500 684 OFFCURVE",
"497 686 CURVE SMOOTH",
"493 687 OFFCURVE",
"488 689 OFFCURVE",
"485 689 CURVE SMOOTH",
"482 689 OFFCURVE",
"477 689 OFFCURVE",
"474 690 CURVE SMOOTH",
"467 693 OFFCURVE",
"432 697 OFFCURVE",
"401 698 CURVE SMOOTH",
"385 698 OFFCURVE",
"360 699 OFFCURVE",
"343 700 CURVE SMOOTH",
"327 701 OFFCURVE",
"308 701 OFFCURVE",
"300 701 CURVE SMOOTH",
"293 701 OFFCURVE",
"270 701 OFFCURVE",
"249 701 CURVE SMOOTH",
"228 701 OFFCURVE",
"195 700 OFFCURVE",
"177 700 CURVE SMOOTH",
"134 700 OFFCURVE",
"136 700 OFFCURVE",
"86 701 CURVE SMOOTH",
"59 702 OFFCURVE",
"41 702 OFFCURVE",
"37 700 CURVE SMOOTH"
);
},
{
closed = 1;
nodes = (
"380 556 OFFCURVE",
"386 554 OFFCURVE",
"388 554 CURVE SMOOTH",
"400 554 OFFCURVE",
"426 533 OFFCURVE",
"432 517 CURVE SMOOTH",
"437 505 OFFCURVE",
"436 480 OFFCURVE",
"431 468 CURVE SMOOTH",
"420 445 OFFCURVE",
"397 431 OFFCURVE",
"370 431 CURVE SMOOTH",
"363 431 OFFCURVE",
"350 431 OFFCURVE",
"341 430 CURVE SMOOTH",
"332 429 OFFCURVE",
"320 430 OFFCURVE",
"313 431 CURVE SMOOTH",
"306 432 OFFCURVE",
"288 432 OFFCURVE",
"272 431 CURVE SMOOTH",
"246 430 OFFCURVE",
"244 431 OFFCURVE",
"240 434 CURVE SMOOTH",
"237 437 OFFCURVE",
"237 440 OFFCURVE",
"238 487 CURVE SMOOTH",
"239 545 OFFCURVE",
"240 553 OFFCURVE",
"245 557 CURVE SMOOTH",
"250 561 OFFCURVE",
"254 561 OFFCURVE",
"312 561 CURVE SMOOTH",
"361 561 OFFCURVE",
"368 561 OFFCURVE",
"375 558 CURVE SMOOTH"
);
}
);
width = 679;
}
);
unicode = 0052;
},
{
glyphname = S;
lastChange = "2015-06-01 20:23:06 +0000";
layers = (
{
layerId = "258ED206-D907-4350-8EBA-CBDDA1C16BF7";
name = Regular;
paths = (
{
closed = 1;
nodes = (
"322 711 OFFCURVE",
"304 710 OFFCURVE",
"284 709 CURVE SMOOTH",
"240 706 OFFCURVE",
"220 702 OFFCURVE",
"196 689 CURVE SMOOTH",
"193 687 OFFCURVE",
"187 685 OFFCURVE",
"185 684 CURVE SMOOTH",
"164 679 OFFCURVE",
"103 637 OFFCURVE",
"100 627 CURVE SMOOTH",
"99 625 OFFCURVE",
"96 621 OFFCURVE",
"92 618 CURVE SMOOTH",
"79 608 OFFCURVE",
"50 560 OFFCURVE",
"50 548 CURVE SMOOTH",
"50 545 OFFCURVE",
"48 536 OFFCURVE",
"45 528 CURVE SMOOTH",
"38 507 OFFCURVE",
"36 470 OFFCURVE",
"41 448 CURVE SMOOTH",
"48 417 OFFCURVE",
"61 388 OFFCURVE",
"75 370 CURVE SMOOTH",
"104 334 OFFCURVE",
"141 307 OFFCURVE",
"178 293 CURVE SMOOTH",
"184 291 OFFCURVE",
"194 287 OFFCURVE",
"200 284 CURVE SMOOTH",
"206 282 OFFCURVE",
"214 279 OFFCURVE",
"219 278 CURVE SMOOTH",
"223 277 OFFCURVE",
"235 274 OFFCURVE",
"245 272 CURVE SMOOTH",
"255 269 OFFCURVE",
"267 267 OFFCURVE",
"271 266 CURVE SMOOTH",
"276 265 OFFCURVE",
"287 263 OFFCURVE",
"297 260 CURVE SMOOTH",
"307 258 OFFCURVE",
"321 255 OFFCURVE",
"329 253 CURVE SMOOTH",
"359 248 OFFCURVE",
"392 238 OFFCURVE",
"399 233 CURVE SMOOTH",
"402 231 OFFCURVE",
"404 229 OFFCURVE",
"405 229 CURVE SMOOTH",
"406 229 OFFCURVE",
"411 227 OFFCURVE",
"415 224 CURVE SMOOTH",
"425 217 OFFCURVE",
"433 200 OFFCURVE",
"431 190 CURVE SMOOTH",
"427 169 OFFCURVE",
"413 154 OFFCURVE",
"391 148 CURVE SMOOTH",
"376 143 OFFCURVE",
"358 139 OFFCURVE",
"351 139 CURVE SMOOTH",
"349 139 OFFCURVE",
"337 138 OFFCURVE",
"325 137 CURVE SMOOTH",
"308 135 OFFCURVE",
"301 135 OFFCURVE",
"292 137 CURVE SMOOTH",
"286 138 OFFCURVE",
"278 139 OFFCURVE",
"275 138 CURVE SMOOTH",
"272 137 OFFCURVE",
"267 139 OFFCURVE",
"257 144 CURVE SMOOTH",
"250 148 OFFCURVE",
"237 153 OFFCURVE",
"229 156 CURVE SMOOTH",
"206 163 OFFCURVE",
"201 167 OFFCURVE",
"185 184 CURVE SMOOTH",
"160 212 OFFCURVE",
"154 217 OFFCURVE",
"149 217 CURVE SMOOTH",
"142 217 OFFCURVE",
"130 212 OFFCURVE",
"123 206 CURVE SMOOTH",
"103 190 OFFCURVE",
"77 172 OFFCURVE",
"68 167 CURVE SMOOTH",
"61 163 OFFCURVE",
"35 144 OFFCURVE",
"27 137 CURVE SMOOTH",
"18 129 OFFCURVE",
"19 120 OFFCURVE",
"28 107 CURVE SMOOTH",
"32 101 OFFCURVE",
"35 96 OFFCURVE",
"36 96 CURVE SMOOTH",
"37 96 OFFCURVE",
"39 94 OFFCURVE",
"40 92 CURVE SMOOTH",
"41 90 OFFCURVE",
"50 82 OFFCURVE",
"58 75 CURVE SMOOTH",
"67 68 OFFCURVE",
"78 59 OFFCURVE",
"82 55 CURVE SMOOTH",
"87 51 OFFCURVE",
"91 48 OFFCURVE",
"92 48 CURVE SMOOTH",
"93 48 OFFCURVE",
"103 43 OFFCURVE",
"113 37 CURVE SMOOTH",
"124 31 OFFCURVE",
"137 25 OFFCURVE",
"142 23 CURVE SMOOTH",
"147 22 OFFCURVE",
"152 19 OFFCURVE",
"153 18 CURVE SMOOTH",
"155 16 OFFCURVE",
"159 14 OFFCURVE",
"164 14 CURVE SMOOTH",
"168 13 OFFCURVE",
"178 11 OFFCURVE",
"186 9 CURVE SMOOTH",
"205 4 OFFCURVE",
"229 -1 OFFCURVE",
"254 -4 CURVE SMOOTH",
"258 -4 OFFCURVE",
"266 -6 OFFCURVE",
"271 -7 CURVE SMOOTH",
"277 -8 OFFCURVE",
"301 -9 OFFCURVE",
"330 -9 CURVE SMOOTH",
"379 -9 OFFCURVE",
"406 -7 OFFCURVE",
"425 -1 CURVE SMOOTH",
"431 1 OFFCURVE",
"436 3 OFFCURVE",
"454 6 CURVE SMOOTH",
"464 9 OFFCURVE",
"504 24 OFFCURVE",
"508 27 CURVE SMOOTH",
"510 28 OFFCURVE",
"514 31 OFFCURVE",
"518 32 CURVE SMOOTH",
"527 36 OFFCURVE",
"561 61 OFFCURVE",
"576 76 CURVE SMOOTH",
"586 86 OFFCURVE",
"591 92 OFFCURVE",
"604 112 CURVE SMOOTH",
"618 133 OFFCURVE",
"628 166 OFFCURVE",
"633 207 CURVE SMOOTH",
"636 231 OFFCURVE",
"635 250 OFFCURVE",
"629 276 CURVE SMOOTH",
"622 307 OFFCURVE",
"608 333 OFFCURVE",
"578 364 CURVE SMOOTH",
"564 380 OFFCURVE",
"558 385 OFFCURVE",
"540 395 CURVE SMOOTH",
"529 401 OFFCURVE",
"518 406 OFFCURVE",
"516 406 CURVE SMOOTH",
"514 406 OFFCURVE",
"506 410 OFFCURVE",
"498 413 CURVE SMOOTH",
"490 417 OFFCURVE",
"483 420 OFFCURVE",
"481 420 CURVE SMOOTH",
"479 420 OFFCURVE",
"477 421 OFFCURVE",
"476 422 CURVE SMOOTH",
"473 426 OFFCURVE",
"430 439 OFFCURVE",
"404 444 CURVE SMOOTH",
"398 446 OFFCURVE",
"389 448 OFFCURVE",
"385 449 CURVE SMOOTH",
"380 450 OFFCURVE",
"374 451 OFFCURVE",
"370 451 CURVE SMOOTH",
"367 451 OFFCURVE",
"363 452 OFFCURVE",
"361 453 CURVE SMOOTH",
"356 455 OFFCURVE",
"335 461 OFFCURVE",
"322 463 CURVE SMOOTH",
"281 470 OFFCURVE",
"269 474 OFFCURVE",
"254 487 CURVE SMOOTH",
"243 496 OFFCURVE",
"239 503 OFFCURVE",
"239 514 CURVE SMOOTH",
"239 529 OFFCURVE",
"248 540 OFFCURVE",
"270 552 CURVE SMOOTH",
"291 562 OFFCURVE",
"305 565 OFFCURVE",
"343 564 CURVE SMOOTH",
"382 562 OFFCURVE",
"404 558 OFFCURVE",
"421 546 CURVE SMOOTH",
"427 543 OFFCURVE",
"434 538 OFFCURVE",
"437 536 CURVE SMOOTH",
"440 535 OFFCURVE",
"446 529 OFFCURVE",
"450 524 CURVE SMOOTH",
"465 508 OFFCURVE",
"470 504 OFFCURVE",
"476 504 CURVE SMOOTH",
"482 504 OFFCURVE",
"495 512 OFFCURVE",
"504 521 CURVE SMOOTH",
"507 525 OFFCURVE",
"511 527 OFFCURVE",
"513 527 CURVE SMOOTH",
"515 527 OFFCURVE",
"519 530 OFFCURVE",
"523 533 CURVE SMOOTH",
"527 537 OFFCURVE",
"532 541 OFFCURVE",
"535 544 CURVE SMOOTH",
"595 587 OFFCURVE",
"598 590 OFFCURVE",
"595 602 CURVE SMOOTH",
"593 612 OFFCURVE",
"556 647 OFFCURVE",
"539 656 CURVE SMOOTH",
"537 657 OFFCURVE",
"533 660 OFFCURVE",
"531 662 CURVE SMOOTH",
"521 671 OFFCURVE",
"466 694 OFFCURVE",
"451 696 CURVE SMOOTH",
"448 696 OFFCURVE",
"440 698 OFFCURVE",
"431 701 CURVE SMOOTH",
"403 708 OFFCURVE",
"348 713 OFFCURVE",
"325 711 CURVE SMOOTH"
);
}
);
width = 655;
}
);
unicode = 0053;
},
{
glyphname = T;
lastChange = "2015-06-01 20:23:06 +0000";
layers = (
{
layerId = "258ED206-D907-4350-8EBA-CBDDA1C16BF7";
name = Regular;
paths = (
{
closed = 1;
nodes = (
"26 694 OFFCURVE",
"23 691 OFFCURVE",
"22 688 CURVE SMOOTH",
"20 684 OFFCURVE",
"20 661 OFFCURVE",
"20 618 CURVE SMOOTH",
"21 554 LINE",
"26 549 LINE SMOOTH",
"30 546 OFFCURVE",
"34 544 OFFCURVE",
"44 542 CURVE SMOOTH",
"58 541 OFFCURVE",
"116 541 OFFCURVE",
"184 544 CURVE SMOOTH",
"202 545 OFFCURVE",
"217 545 OFFCURVE",
"220 544 CURVE SMOOTH",
"223 542 OFFCURVE",
"223 541 OFFCURVE",
"222 526 CURVE SMOOTH",
"221 517 OFFCURVE",
"220 413 OFFCURVE",
"220 296 CURVE SMOOTH",
"219 156 OFFCURVE",
"218 70 OFFCURVE",
"217 49 CURVE SMOOTH",
"214 17 OFFCURVE",
"214 16 OFFCURVE",
"218 11 CURVE SMOOTH",
"225 1 OFFCURVE",
"229 1 OFFCURVE",
"316 1 CURVE SMOOTH",
"361 0 OFFCURVE",
"402 0 OFFCURVE",
"407 0 CURVE SMOOTH",
"421 0 OFFCURVE",
"427 2 OFFCURVE",
"430 8 CURVE SMOOTH",
"432 12 OFFCURVE",
"433 57 OFFCURVE",
"433 255 CURVE SMOOTH",
"434 388 OFFCURVE",
"434 506 OFFCURVE",
"433 517 CURVE SMOOTH",
"433 547 OFFCURVE",
"430 545 OFFCURVE",
"490 543 CURVE SMOOTH",
"518 542 OFFCURVE",
"559 542 OFFCURVE",
"583 542 CURVE SMOOTH",
"627 542 LINE",
"631 547 LINE SMOOTH",
"635 552 OFFCURVE",
"635 555 OFFCURVE",
"635 616 CURVE SMOOTH",
"635 672 OFFCURVE",
"634 681 OFFCURVE",
"632 686 CURVE SMOOTH",
"630 690 OFFCURVE",
"627 693 OFFCURVE",
"625 694 CURVE SMOOTH",
"623 695 OFFCURVE",
"519 696 OFFCURVE",
"394 696 CURVE SMOOTH",
"269 696 OFFCURVE",
"138 697 OFFCURVE",
"102 697 CURVE SMOOTH",
"47 698 OFFCURVE",
"35 698 OFFCURVE",
"30 696 CURVE SMOOTH"
);
}
);
width = 655;
}
);
unicode = 0054;
},
{
glyphname = U;
lastChange = "2015-06-01 20:23:06 +0000";
layers = (
{
layerId = "258ED206-D907-4350-8EBA-CBDDA1C16BF7";
name = Regular;
paths = (
{
closed = 1;
nodes = (
"30 699 OFFCURVE",
"26 695 OFFCURVE",
"23 685 CURVE SMOOTH",
"19 673 OFFCURVE",
"19 308 OFFCURVE",
"22 239 CURVE SMOOTH",
"24 210 OFFCURVE",
"26 183 OFFCURVE",
"27 179 CURVE SMOOTH",
"34 151 OFFCURVE",
"37 143 OFFCURVE",
"52 112 CURVE SMOOTH",
"57 100 OFFCURVE",
"64 90 OFFCURVE",
"68 85 CURVE SMOOTH",
"72 81 OFFCURVE",
"78 75 OFFCURVE",
"81 71 CURVE SMOOTH",
"90 59 OFFCURVE",
"140 25 OFFCURVE",
"154 20 CURVE SMOOTH",
"157 20 OFFCURVE",
"160 18 OFFCURVE",
"162 16 CURVE SMOOTH",
"168 11 OFFCURVE",
"217 -3 OFFCURVE",
"240 -7 CURVE SMOOTH",
"273 -12 OFFCURVE",
"362 -14 OFFCURVE",
"379 -10 CURVE SMOOTH",
"384 -9 OFFCURVE",
"391 -8 OFFCURVE",
"397 -8 CURVE SMOOTH",
"408 -8 OFFCURVE",
"448 1 OFFCURVE",
"467 9 CURVE SMOOTH",
"481 14 OFFCURVE",
"509 29 OFFCURVE",
"528 41 CURVE SMOOTH",
"541 49 OFFCURVE",
"567 75 OFFCURVE",
"577 89 CURVE SMOOTH",
"598 116 OFFCURVE",
"616 158 OFFCURVE",
"619 184 CURVE SMOOTH",
"619 190 OFFCURVE",
"621 200 OFFCURVE",
"622 207 CURVE SMOOTH",
"623 213 OFFCURVE",
"625 228 OFFCURVE",
"625 238 CURVE SMOOTH",
"626 253 OFFCURVE",
"627 545 OFFCURVE",
"626 580 CURVE SMOOTH",
"626 586 OFFCURVE",
"626 613 OFFCURVE",
"627 639 CURVE SMOOTH",
"628 686 LINE",
"623 692 LINE",
"617 698 LINE",
"541 699 LINE SMOOTH",
"499 699 OFFCURVE",
"463 699 OFFCURVE",
"460 698 CURVE SMOOTH",
"453 695 OFFCURVE",
"450 684 OFFCURVE",
"451 668 CURVE SMOOTH",
"452 657 OFFCURVE",
"454 486 OFFCURVE",
"454 359 CURVE SMOOTH",
"454 355 OFFCURVE",
"454 329 OFFCURVE",
"453 300 CURVE SMOOTH",
"452 234 OFFCURVE",
"450 221 OFFCURVE",
"436 190 CURVE SMOOTH",
"431 178 OFFCURVE",
"427 174 OFFCURVE",
"418 167 CURVE SMOOTH",
"412 163 OFFCURVE",
"405 157 OFFCURVE",
"402 156 CURVE SMOOTH",
"399 154 OFFCURVE",
"394 151 OFFCURVE",
"390 149 CURVE SMOOTH",
"385 145 OFFCURVE",
"376 144 OFFCURVE",
"359 141 CURVE SMOOTH",
"335 138 LINE",
"316 144 LINE SMOOTH",
"306 148 OFFCURVE",
"295 151 OFFCURVE",
"292 152 CURVE SMOOTH",
"285 155 OFFCURVE",
"257 182 OFFCURVE",
"250 193 CURVE SMOOTH",
"238 213 OFFCURVE",
"238 215 OFFCURVE",
"233 342 CURVE SMOOTH",
"233 349 OFFCURVE",
"234 373 OFFCURVE",
"235 397 CURVE SMOOTH",
"236 420 OFFCURVE",
"237 480 OFFCURVE",
"237 529 CURVE SMOOTH",
"237 579 OFFCURVE",
"238 635 OFFCURVE",
"239 654 CURVE SMOOTH",
"240 689 LINE",
"235 694 LINE SMOOTH",
"229 701 OFFCURVE",
"217 703 OFFCURVE",
"185 701 CURVE SMOOTH",
"148 699 OFFCURVE",
"128 699 OFFCURVE",
"82 700 CURVE SMOOTH",
"59 701 OFFCURVE",
"38 701 OFFCURVE",
"36 701 CURVE SMOOTH"
);
},
{
closed = 1;
nodes = (
"213 116 OFFCURVE",
"210 118 OFFCURVE",
"208 120 CURVE SMOOTH",
"204 124 OFFCURVE",
"204 125 OFFCURVE",
"207 127 CURVE SMOOTH",
"209 128 OFFCURVE",
"210 127 OFFCURVE",
"212 123 CURVE SMOOTH",
"213 120 OFFCURVE",
"214 117 OFFCURVE",
"213 117 CURVE SMOOTH"
);
},
{
closed = 1;
nodes = (
"327 61 OFFCURVE",
"328 60 OFFCURVE",
"327 59 CURVE SMOOTH",
"325 56 OFFCURVE",
"318 58 OFFCURVE",
"318 61 CURVE SMOOTH",
"318 65 OFFCURVE",
"321 65 OFFCURVE",
"325 62 CURVE SMOOTH"
);
}
);
width = 648;
}
);
unicode = 0055;
},
{
glyphname = V;
lastChange = "2015-06-01 20:23:06 +0000";
layers = (
{
layerId = "258ED206-D907-4350-8EBA-CBDDA1C16BF7";
name = Regular;
paths = (
{
closed = 1;
nodes = (
"18 694 OFFCURVE",
"17 682 OFFCURVE",
"26 656 CURVE SMOOTH",
"29 646 OFFCURVE",
"36 626 OFFCURVE",
"42 610 CURVE SMOOTH",
"47 595 OFFCURVE",
"54 575 OFFCURVE",
"57 567 CURVE SMOOTH",
"63 550 OFFCURVE",
"63 553 OFFCURVE",
"83 490 CURVE SMOOTH",
"92 463 OFFCURVE",
"102 436 OFFCURVE",
"105 428 CURVE SMOOTH",
"114 404 OFFCURVE",
"123 377 OFFCURVE",
"123 374 CURVE SMOOTH",
"123 372 OFFCURVE",
"125 367 OFFCURVE",
"127 363 CURVE SMOOTH",
"129 359 OFFCURVE",
"134 344 OFFCURVE",
"139 329 CURVE SMOOTH",
"143 315 OFFCURVE",
"150 292 OFFCURVE",
"155 278 CURVE SMOOTH",
"160 264 OFFCURVE",
"167 245 OFFCURVE",
"170 236 CURVE SMOOTH",
"173 227 OFFCURVE",
"178 214 OFFCURVE",
"181 208 CURVE SMOOTH",
"183 201 OFFCURVE",
"187 188 OFFCURVE",
"190 178 CURVE SMOOTH",
"192 169 OFFCURVE",
"195 159 OFFCURVE",
"196 157 CURVE SMOOTH",
"198 155 OFFCURVE",
"203 141 OFFCURVE",
"207 127 CURVE SMOOTH",
"212 112 OFFCURVE",
"218 93 OFFCURVE",
"221 84 CURVE SMOOTH",
"231 57 OFFCURVE",
"237 39 OFFCURVE",
"239 30 CURVE SMOOTH",
"241 19 OFFCURVE",
"249 8 OFFCURVE",
"258 4 CURVE SMOOTH",
"263 2 OFFCURVE",
"274 1 OFFCURVE",
"296 1 CURVE SMOOTH",
"313 0 OFFCURVE",
"328 0 OFFCURVE",
"329 0 CURVE SMOOTH",
"330 0 OFFCURVE",
"355 1 OFFCURVE",
"385 1 CURVE SMOOTH",
"444 2 OFFCURVE",
"447 3 OFFCURVE",
"455 13 CURVE SMOOTH",
"457 16 OFFCURVE",
"460 20 OFFCURVE",
"461 21 CURVE SMOOTH",
"463 23 OFFCURVE",
"474 56 OFFCURVE",
"486 94 CURVE SMOOTH",
"490 105 OFFCURVE",
"494 118 OFFCURVE",
"496 123 CURVE SMOOTH",
"498 128 OFFCURVE",
"500 136 OFFCURVE",
"502 142 CURVE SMOOTH",
"503 148 OFFCURVE",
"508 162 OFFCURVE",
"512 173 CURVE SMOOTH",
"516 183 OFFCURVE",
"521 197 OFFCURVE",
"523 204 CURVE SMOOTH",
"525 210 OFFCURVE",
"530 227 OFFCURVE",
"535 240 CURVE SMOOTH",
"540 254 OFFCURVE",
"545 270 OFFCURVE",
"547 276 CURVE SMOOTH",
"548 283 OFFCURVE",
"550 291 OFFCURVE",
"552 295 CURVE SMOOTH",
"559 310 OFFCURVE",
"569 338 OFFCURVE",
"577 363 CURVE SMOOTH",
"581 376 OFFCURVE",
"587 395 OFFCURVE",
"591 406 CURVE SMOOTH",
"600 427 OFFCURVE",
"610 456 OFFCURVE",
"618 486 CURVE SMOOTH",
"622 498 OFFCURVE",
"627 512 OFFCURVE",
"629 518 CURVE SMOOTH",
"635 529 OFFCURVE",
"642 549 OFFCURVE",
"648 569 CURVE SMOOTH",
"650 577 OFFCURVE",
"654 588 OFFCURVE",
"656 592 CURVE SMOOTH",
"660 603 OFFCURVE",
"667 622 OFFCURVE",
"670 639 CURVE SMOOTH",
"672 646 OFFCURVE",
"676 656 OFFCURVE",
"678 662 CURVE SMOOTH",
"683 672 OFFCURVE",
"685 685 OFFCURVE",
"681 689 CURVE SMOOTH",
"680 690 OFFCURVE",
"675 693 OFFCURVE",
"670 695 CURVE SMOOTH",
"662 697 OFFCURVE",
"652 698 OFFCURVE",
"594 697 CURVE SMOOTH",
"529 697 OFFCURVE",
"525 697 OFFCURVE",
"511 690 CURVE SMOOTH",
"506 688 OFFCURVE",
"498 667 OFFCURVE",
"494 648 CURVE SMOOTH",
"493 644 OFFCURVE",
"491 637 OFFCURVE",
"489 632 CURVE SMOOTH",
"487 627 OFFCURVE",
"485 619 OFFCURVE",
"483 614 CURVE SMOOTH",
"482 609 OFFCURVE",
"479 600 OFFCURVE",
"476 594 CURVE SMOOTH",
"474 587 OFFCURVE",
"471 575 OFFCURVE",
"468 567 CURVE SMOOTH",
"465 553 OFFCURVE",
"460 541 OFFCURVE",
"457 534 CURVE SMOOTH",
"456 532 OFFCURVE",
"455 528 OFFCURVE",
"455 526 CURVE SMOOTH",
"455 523 OFFCURVE",
"451 510 OFFCURVE",
"447 496 CURVE SMOOTH",
"442 482 OFFCURVE",
"438 466 OFFCURVE",
"436 460 CURVE SMOOTH",
"432 442 OFFCURVE",
"430 436 OFFCURVE",
"425 423 CURVE SMOOTH",
"422 416 OFFCURVE",
"420 409 OFFCURVE",
"420 408 CURVE SMOOTH",
"420 406 OFFCURVE",
"417 396 OFFCURVE",
"413 385 CURVE SMOOTH",
"409 374 OFFCURVE",
"403 355 OFFCURVE",
"399 343 CURVE SMOOTH",
"396 330 OFFCURVE",
"391 315 OFFCURVE",
"389 309 CURVE SMOOTH",
"385 298 OFFCURVE",
"377 274 OFFCURVE",
"373 258 CURVE SMOOTH",
"369 245 OFFCURVE",
"366 248 OFFCURVE",
"360 271 CURVE SMOOTH",
"358 278 OFFCURVE",
"355 287 OFFCURVE",
"353 291 CURVE SMOOTH",
"351 295 OFFCURVE",
"349 303 OFFCURVE",
"348 308 CURVE SMOOTH",
"347 314 OFFCURVE",
"343 324 OFFCURVE",
"340 331 CURVE SMOOTH",
"336 339 OFFCURVE",
"334 345 OFFCURVE",
"334 353 CURVE SMOOTH",
"334 361 OFFCURVE",
"328 380 OFFCURVE",
"322 392 CURVE SMOOTH",
"321 394 OFFCURVE",
"320 398 OFFCURVE",
"320 401 CURVE SMOOTH",
"320 403 OFFCURVE",
"318 411 OFFCURVE",
"316 418 CURVE SMOOTH",
"313 424 OFFCURVE",
"308 439 OFFCURVE",
"305 449 CURVE SMOOTH",
"302 460 OFFCURVE",
"295 481 OFFCURVE",
"290 496 CURVE SMOOTH",
"286 510 OFFCURVE",
"281 525 OFFCURVE",
"280 529 CURVE SMOOTH",
"279 535 OFFCURVE",
"273 557 OFFCURVE",
"269 570 CURVE SMOOTH",
"266 579 OFFCURVE",
"260 600 OFFCURVE",
"255 617 CURVE SMOOTH",
"252 628 OFFCURVE",
"244 652 OFFCURVE",
"237 676 CURVE SMOOTH",
"234 687 OFFCURVE",
"230 692 OFFCURVE",
"223 696 CURVE SMOOTH",
"221 697 OFFCURVE",
"199 698 OFFCURVE",
"157 699 CURVE SMOOTH",
"123 700 OFFCURVE",
"83 700 OFFCURVE",
"68 701 CURVE SMOOTH",
"47 701 OFFCURVE",
"39 701 OFFCURVE",
"32 699 CURVE SMOOTH"
);
}
);
width = 703;
}
);
unicode = 0056;
},
{
glyphname = W;
lastChange = "2015-06-01 20:23:06 +0000";
layers = (
{
layerId = "258ED206-D907-4350-8EBA-CBDDA1C16BF7";
name = Regular;
paths = (
{
closed = 1;
nodes = (
"32 702 OFFCURVE",
"23 697 OFFCURVE",
"21 691 CURVE SMOOTH",
"18 686 OFFCURVE",
"20 664 OFFCURVE",
"24 655 CURVE SMOOTH",
"26 650 OFFCURVE",
"43 596 OFFCURVE",
"50 570 CURVE SMOOTH",
"53 561 OFFCURVE",
"61 537 OFFCURVE",
"67 519 CURVE SMOOTH",
"73 500 OFFCURVE",
"79 481 OFFCURVE",
"80 476 CURVE SMOOTH",
"89 445 OFFCURVE",
"96 421 OFFCURVE",
"100 412 CURVE SMOOTH",
"102 407 OFFCURVE",
"105 397 OFFCURVE",
"106 391 CURVE SMOOTH",
"108 380 OFFCURVE",
"115 359 OFFCURVE",
"122 338 CURVE SMOOTH",
"125 329 OFFCURVE",
"132 304 OFFCURVE",
"140 275 CURVE SMOOTH",
"141 270 OFFCURVE",
"144 261 OFFCURVE",
"146 254 CURVE SMOOTH",
"156 226 OFFCURVE",
"167 189 OFFCURVE",
"172 173 CURVE SMOOTH",
"174 163 OFFCURVE",
"178 151 OFFCURVE",
"179 145 CURVE SMOOTH",
"181 140 OFFCURVE",
"184 127 OFFCURVE",
"187 117 CURVE SMOOTH",
"190 107 OFFCURVE",
"193 95 OFFCURVE",
"195 90 CURVE SMOOTH",
"196 85 OFFCURVE",
"199 75 OFFCURVE",
"201 67 CURVE SMOOTH",
"203 60 OFFCURVE",
"207 45 OFFCURVE",
"210 34 CURVE SMOOTH",
"219 4 OFFCURVE",
"225 0 OFFCURVE",
"261 0 CURVE SMOOTH",
"401 1 OFFCURVE",
"403 2 OFFCURVE",
"410 12 CURVE SMOOTH",
"414 16 OFFCURVE",
"425 54 OFFCURVE",
"433 90 CURVE SMOOTH",
"434 96 OFFCURVE",
"437 104 OFFCURVE",
"438 109 CURVE SMOOTH",
"443 125 OFFCURVE",
"451 152 OFFCURVE",
"458 175 CURVE SMOOTH",
"466 207 OFFCURVE",
"468 211 OFFCURVE",
"479 247 CURVE SMOOTH",
"484 265 OFFCURVE",
"490 282 OFFCURVE",
"491 285 CURVE SMOOTH",
"493 288 OFFCURVE",
"494 292 OFFCURVE",
"494 295 CURVE SMOOTH",
"494 297 OFFCURVE",
"498 309 OFFCURVE",
"502 322 CURVE SMOOTH",
"506 334 OFFCURVE",
"511 351 OFFCURVE",
"513 358 CURVE SMOOTH",
"517 369 OFFCURVE",
"519 373 OFFCURVE",
"521 373 CURVE SMOOTH",
"524 373 OFFCURVE",
"526 370 OFFCURVE",
"529 358 CURVE SMOOTH",
"531 351 OFFCURVE",
"534 340 OFFCURVE",
"536 335 CURVE SMOOTH",
"538 330 OFFCURVE",
"539 325 OFFCURVE",
"539 323 CURVE SMOOTH",
"539 322 OFFCURVE",
"541 317 OFFCURVE",
"543 311 CURVE SMOOTH",
"547 300 OFFCURVE",
"560 259 OFFCURVE",
"561 251 CURVE SMOOTH",
"563 244 OFFCURVE",
"571 215 OFFCURVE",
"581 185 CURVE SMOOTH",
"585 174 OFFCURVE",
"589 159 OFFCURVE",
"590 152 CURVE SMOOTH",
"592 145 OFFCURVE",
"598 122 OFFCURVE",
"604 101 CURVE SMOOTH",
"610 81 OFFCURVE",
"616 59 OFFCURVE",
"617 55 CURVE SMOOTH",
"621 36 OFFCURVE",
"627 17 OFFCURVE",
"630 13 CURVE SMOOTH",
"639 4 OFFCURVE",
"642 3 OFFCURVE",
"704 3 CURVE SMOOTH",
"737 2 OFFCURVE",
"766 1 OFFCURVE",
"771 0 CURVE SMOOTH",
"779 -2 OFFCURVE",
"782 -1 OFFCURVE",
"796 2 CURVE SMOOTH",
"804 4 OFFCURVE",
"813 8 OFFCURVE",
"815 10 CURVE SMOOTH",
"821 15 OFFCURVE",
"831 42 OFFCURVE",
"833 55 CURVE SMOOTH",
"835 69 OFFCURVE",
"851 124 OFFCURVE",
"869 178 CURVE SMOOTH",
"872 188 OFFCURVE",
"876 200 OFFCURVE",
"877 206 CURVE SMOOTH",
"881 219 OFFCURVE",
"888 245 OFFCURVE",
"896 269 CURVE SMOOTH",
"902 289 OFFCURVE",
"911 320 OFFCURVE",
"917 342 CURVE SMOOTH",
"919 353 OFFCURVE",
"922 362 OFFCURVE",
"937 406 CURVE SMOOTH",
"940 414 OFFCURVE",
"944 426 OFFCURVE",
"946 433 CURVE SMOOTH",
"953 464 OFFCURVE",
"957 477 OFFCURVE",
"961 488 CURVE SMOOTH",
"964 495 OFFCURVE",
"968 509 OFFCURVE",
"971 521 CURVE SMOOTH",
"974 532 OFFCURVE",
"977 543 OFFCURVE",
"979 546 CURVE SMOOTH",
"980 549 OFFCURVE",
"984 561 OFFCURVE",
"988 574 CURVE SMOOTH",
"994 597 OFFCURVE",
"1002 624 OFFCURVE",
"1010 646 CURVE SMOOTH",
"1022 679 OFFCURVE",
"1020 692 OFFCURVE",
"1001 698 CURVE SMOOTH",
"992 701 OFFCURVE",
"947 701 OFFCURVE",
"941 698 CURVE SMOOTH",
"938 697 OFFCURVE",
"935 697 OFFCURVE",
"930 698 CURVE SMOOTH",
"926 700 OFFCURVE",
"910 701 OFFCURVE",
"894 701 CURVE SMOOTH",
"857 701 OFFCURVE",
"851 699 OFFCURVE",
"846 678 CURVE SMOOTH",
"845 673 OFFCURVE",
"839 649 OFFCURVE",
"833 626 CURVE SMOOTH",
"827 603 OFFCURVE",
"821 581 OFFCURVE",
"819 577 CURVE SMOOTH",
"818 573 OFFCURVE",
"815 565 OFFCURVE",
"815 560 CURVE SMOOTH",
"814 555 OFFCURVE",
"812 548 OFFCURVE",
"810 543 CURVE SMOOTH",
"808 539 OFFCURVE",
"805 529 OFFCURVE",
"804 522 CURVE SMOOTH",
"795 483 OFFCURVE",
"792 470 OFFCURVE",
"789 459 CURVE SMOOTH",
"777 424 OFFCURVE",
"773 411 OFFCURVE",
"770 399 CURVE SMOOTH",
"768 391 OFFCURVE",
"766 381 OFFCURVE",
"765 376 CURVE SMOOTH",
"764 372 OFFCURVE",
"762 364 OFFCURVE",
"760 359 CURVE SMOOTH",
"759 354 OFFCURVE",
"756 343 OFFCURVE",
"754 335 CURVE SMOOTH",
"752 322 OFFCURVE",
"751 320 OFFCURVE",
"747 320 CURVE SMOOTH",
"743 320 OFFCURVE",
"742 322 OFFCURVE",
"734 348 CURVE SMOOTH",
"730 363 OFFCURVE",
"725 378 OFFCURVE",
"724 381 CURVE SMOOTH",
"719 396 OFFCURVE",
"717 404 OFFCURVE",
"713 421 CURVE SMOOTH",
"710 431 OFFCURVE",
"705 449 OFFCURVE",
"702 459 CURVE SMOOTH",
"696 478 OFFCURVE",
"689 500 OFFCURVE",
"686 516 CURVE SMOOTH",
"685 520 OFFCURVE",
"680 535 OFFCURVE",
"676 549 CURVE SMOOTH",
"671 563 OFFCURVE",
"665 586 OFFCURVE",
"661 601 CURVE SMOOTH",
"636 694 OFFCURVE",
"636 694 OFFCURVE",
"625 700 CURVE SMOOTH",
"618 704 OFFCURVE",
"612 704 OFFCURVE",
"541 705 CURVE SMOOTH",
"464 705 LINE",
"457 700 LINE SMOOTH",
"453 698 OFFCURVE",
"449 694 OFFCURVE",
"448 693 CURVE SMOOTH",
"446 689 OFFCURVE",
"424 612 OFFCURVE",
"416 581 CURVE SMOOTH",
"412 563 OFFCURVE",
"405 542 OFFCURVE",
"401 530 CURVE SMOOTH",
"400 526 OFFCURVE",
"397 516 OFFCURVE",
"396 510 CURVE SMOOTH",
"394 504 OFFCURVE",
"391 491 OFFCURVE",
"388 483 CURVE SMOOTH",
"385 474 OFFCURVE",
"383 465 OFFCURVE",
"383 463 CURVE SMOOTH",
"383 461 OFFCURVE",
"379 447 OFFCURVE",
"375 432 CURVE SMOOTH",
"371 417 OFFCURVE",
"366 398 OFFCURVE",
"363 390 CURVE SMOOTH",
"361 382 OFFCURVE",
"358 371 OFFCURVE",
"357 367 CURVE SMOOTH",
"355 362 OFFCURVE",
"352 350 OFFCURVE",
"349 341 CURVE SMOOTH",
"346 331 OFFCURVE",
"343 324 OFFCURVE",
"342 324 CURVE SMOOTH",
"337 324 OFFCURVE",
"332 336 OFFCURVE",
"315 400 CURVE SMOOTH",
"313 407 OFFCURVE",
"307 427 OFFCURVE",
"302 444 CURVE SMOOTH",
"297 461 OFFCURVE",
"292 479 OFFCURVE",
"291 484 CURVE SMOOTH",
"290 488 OFFCURVE",
"287 501 OFFCURVE",
"284 512 CURVE SMOOTH",
"280 523 OFFCURVE",
"276 538 OFFCURVE",
"274 545 CURVE SMOOTH",
"272 553 OFFCURVE",
"269 562 OFFCURVE",
"267 566 CURVE SMOOTH",
"266 569 OFFCURVE",
"264 576 OFFCURVE",
"263 580 CURVE SMOOTH",
"262 585 OFFCURVE",
"259 596 OFFCURVE",
"256 606 CURVE SMOOTH",
"249 631 OFFCURVE",
"246 641 OFFCURVE",
"244 653 CURVE SMOOTH",
"242 669 OFFCURVE",
"233 691 OFFCURVE",
"228 696 CURVE SMOOTH",
"219 705 OFFCURVE",
"208 706 OFFCURVE",
"128 705 CURVE SMOOTH",
"86 705 OFFCURVE",
"49 705 OFFCURVE",
"44 704 CURVE SMOOTH"
);
}
);
width = 1037;
}
);
unicode = 0057;
},
{
glyphname = X;
lastChange = "2015-06-01 20:23:06 +0000";
layers = (
{
layerId = "258ED206-D907-4350-8EBA-CBDDA1C16BF7";
name = Regular;
paths = (
{
closed = 1;
nodes = (
"586 706 OFFCURVE",
"575 705 OFFCURVE",
"564 705 CURVE SMOOTH",
"527 705 OFFCURVE",
"489 703 OFFCURVE",
"484 701 CURVE SMOOTH",
"477 698 OFFCURVE",
"471 691 OFFCURVE",
"462 676 CURVE SMOOTH",
"459 669 OFFCURVE",
"449 653 OFFCURVE",
"441 641 CURVE SMOOTH",
"433 628 OFFCURVE",
"420 607 OFFCURVE",
"412 592 CURVE SMOOTH",
"404 578 OFFCURVE",
"396 565 OFFCURVE",
"394 563 CURVE SMOOTH",
"392 561 OFFCURVE",
"388 554 OFFCURVE",
"385 547 CURVE SMOOTH",
"373 521 OFFCURVE",
"367 519 OFFCURVE",
"353 540 CURVE SMOOTH",
"349 547 OFFCURVE",
"345 553 OFFCURVE",
"345 554 CURVE SMOOTH",
"345 555 OFFCURVE",
"340 564 OFFCURVE",
"334 574 CURVE SMOOTH",
"327 587 OFFCURVE",
"322 597 OFFCURVE",
"320 605 CURVE SMOOTH",
"318 615 OFFCURVE",
"316 618 OFFCURVE",
"308 625 CURVE SMOOTH",
"303 629 OFFCURVE",
"296 637 OFFCURVE",
"294 643 CURVE SMOOTH",
"291 648 OFFCURVE",
"286 656 OFFCURVE",
"283 660 CURVE SMOOTH",
"280 664 OFFCURVE",
"276 670 OFFCURVE",
"274 675 CURVE SMOOTH",
"270 685 OFFCURVE",
"260 696 OFFCURVE",
"251 701 CURVE SMOOTH",
"243 705 OFFCURVE",
"241 705 OFFCURVE",
"139 706 CURVE SMOOTH",
"27 706 OFFCURVE",
"27 706 OFFCURVE",
"22 696 CURVE SMOOTH",
"18 689 OFFCURVE",
"20 679 OFFCURVE",
"28 667 CURVE SMOOTH",
"32 661 OFFCURVE",
"38 652 OFFCURVE",
"41 646 CURVE SMOOTH",
"45 640 OFFCURVE",
"52 630 OFFCURVE",
"57 623 CURVE SMOOTH",
"63 617 OFFCURVE",
"70 606 OFFCURVE",
"74 600 CURVE SMOOTH",
"77 594 OFFCURVE",
"83 585 OFFCURVE",
"87 580 CURVE SMOOTH",
"91 575 OFFCURVE",
"96 567 OFFCURVE",
"100 562 CURVE SMOOTH",
"103 557 OFFCURVE",
"107 551 OFFCURVE",
"110 548 CURVE SMOOTH",
"112 545 OFFCURVE",
"118 536 OFFCURVE",
"123 528 CURVE SMOOTH",
"138 505 OFFCURVE",
"151 486 OFFCURVE",
"160 476 CURVE SMOOTH",
"165 472 OFFCURVE",
"171 463 OFFCURVE",
"173 457 CURVE SMOOTH",
"176 451 OFFCURVE",
"180 444 OFFCURVE",
"183 441 CURVE SMOOTH",
"185 439 OFFCURVE",
"189 432 OFFCURVE",
"192 426 CURVE SMOOTH",
"195 420 OFFCURVE",
"201 411 OFFCURVE",
"206 406 CURVE SMOOTH",
"210 402 OFFCURVE",
"216 395 OFFCURVE",
"217 393 CURVE SMOOTH",
"219 390 OFFCURVE",
"224 383 OFFCURVE",
"228 377 CURVE SMOOTH",
"243 357 OFFCURVE",
"243 355 OFFCURVE",
"225 329 CURVE SMOOTH",
"203 297 OFFCURVE",
"201 294 OFFCURVE",
"199 291 CURVE SMOOTH",
"195 286 OFFCURVE",
"180 262 OFFCURVE",
"180 260 CURVE SMOOTH",
"180 260 OFFCURVE",
"176 254 OFFCURVE",
"171 248 CURVE SMOOTH",
"166 243 OFFCURVE",
"161 236 OFFCURVE",
"160 234 CURVE SMOOTH",
"159 232 OFFCURVE",
"153 223 OFFCURVE",
"147 214 CURVE SMOOTH",
"131 190 OFFCURVE",
"123 178 OFFCURVE",
"112 160 CURVE SMOOTH",
"107 151 OFFCURVE",
"100 142 OFFCURVE",
"98 140 CURVE SMOOTH",
"92 135 OFFCURVE",
"77 114 OFFCURVE",
"71 102 CURVE SMOOTH",
"69 96 OFFCURVE",
"61 85 OFFCURVE",
"55 77 CURVE SMOOTH",
"42 60 OFFCURVE",
"42 60 OFFCURVE",
"31 42 CURVE SMOOTH",
"19 23 OFFCURVE",
"17 13 OFFCURVE",
"25 6 CURVE SMOOTH",
"27 3 OFFCURVE",
"32 1 OFFCURVE",
"35 0 CURVE SMOOTH",
"46 -2 OFFCURVE",
"196 0 OFFCURVE",
"202 3 CURVE SMOOTH",
"213 7 OFFCURVE",
"220 16 OFFCURVE",
"233 41 CURVE SMOOTH",
"244 60 OFFCURVE",
"264 95 OFFCURVE",
"268 99 CURVE SMOOTH",
"269 101 OFFCURVE",
"276 112 OFFCURVE",
"283 123 CURVE SMOOTH",
"299 152 OFFCURVE",
"308 166 OFFCURVE",
"312 172 CURVE SMOOTH",
"314 175 OFFCURVE",
"318 183 OFFCURVE",
"322 190 CURVE SMOOTH",
"325 197 OFFCURVE",
"330 205 OFFCURVE",
"333 208 CURVE SMOOTH",
"338 212 OFFCURVE",
"338 212 OFFCURVE",
"343 209 CURVE SMOOTH",
"348 206 OFFCURVE",
"359 189 OFFCURVE",
"377 158 CURVE SMOOTH",
"387 141 OFFCURVE",
"400 120 OFFCURVE",
"409 106 CURVE SMOOTH",
"416 94 OFFCURVE",
"424 81 OFFCURVE",
"448 40 CURVE SMOOTH",
"453 31 OFFCURVE",
"457 23 OFFCURVE",
"457 22 CURVE SMOOTH",
"457 18 OFFCURVE",
"471 5 OFFCURVE",
"477 3 CURVE SMOOTH",
"481 1 OFFCURVE",
"519 1 OFFCURVE",
"589 1 CURVE SMOOTH",
"691 2 OFFCURVE",
"695 2 OFFCURVE",
"700 6 CURVE SMOOTH",
"703 8 OFFCURVE",
"706 12 OFFCURVE",
"706 14 CURVE SMOOTH",
"707 21 OFFCURVE",
"700 38 OFFCURVE",
"691 50 CURVE SMOOTH",
"686 57 OFFCURVE",
"679 66 OFFCURVE",
"677 71 CURVE SMOOTH",
"674 76 OFFCURVE",
"670 81 OFFCURVE",
"668 83 CURVE SMOOTH",
"666 84 OFFCURVE",
"663 89 OFFCURVE",
"662 92 CURVE SMOOTH",
"660 96 OFFCURVE",
"656 101 OFFCURVE",
"654 104 CURVE SMOOTH",
"651 107 OFFCURVE",
"643 119 OFFCURVE",
"636 131 CURVE SMOOTH",
"628 143 OFFCURVE",
"619 158 OFFCURVE",
"615 163 CURVE SMOOTH",
"611 169 OFFCURVE",
"604 178 OFFCURVE",
"601 185 CURVE SMOOTH",
"597 191 OFFCURVE",
"593 199 OFFCURVE",
"590 201 CURVE SMOOTH",
"588 204 OFFCURVE",
"584 210 OFFCURVE",
"582 214 CURVE SMOOTH",
"579 218 OFFCURVE",
"575 226 OFFCURVE",
"571 230 CURVE SMOOTH",
"568 235 OFFCURVE",
"557 250 OFFCURVE",
"546 265 CURVE SMOOTH",
"536 280 OFFCURVE",
"523 299 OFFCURVE",
"516 307 CURVE SMOOTH",
"510 316 OFFCURVE",
"499 332 OFFCURVE",
"491 343 CURVE SMOOTH",
"484 354 OFFCURVE",
"475 365 OFFCURVE",
"472 369 CURVE SMOOTH",
"466 374 OFFCURVE",
"465 377 OFFCURVE",
"465 384 CURVE SMOOTH",
"465 392 OFFCURVE",
"467 395 OFFCURVE",
"475 406 CURVE SMOOTH",
"480 413 OFFCURVE",
"490 424 OFFCURVE",
"496 431 CURVE SMOOTH",
"502 437 OFFCURVE",
"511 449 OFFCURVE",
"515 457 CURVE SMOOTH",
"520 465 OFFCURVE",
"527 476 OFFCURVE",
"531 480 CURVE SMOOTH",
"535 485 OFFCURVE",
"540 493 OFFCURVE",
"543 499 CURVE SMOOTH",
"546 504 OFFCURVE",
"552 512 OFFCURVE",
"555 516 CURVE SMOOTH",
"558 521 OFFCURVE",
"564 529 OFFCURVE",
"568 536 CURVE SMOOTH",
"571 542 OFFCURVE",
"577 550 OFFCURVE",
"579 553 CURVE SMOOTH",
"582 557 OFFCURVE",
"587 563 OFFCURVE",
"590 568 CURVE SMOOTH",
"593 573 OFFCURVE",
"597 580 OFFCURVE",
"600 583 CURVE SMOOTH",
"602 586 OFFCURVE",
"607 593 OFFCURVE",
"611 598 CURVE SMOOTH",
"615 604 OFFCURVE",
"620 612 OFFCURVE",
"622 617 CURVE SMOOTH",
"625 622 OFFCURVE",
"630 630 OFFCURVE",
"634 634 CURVE SMOOTH",
"638 639 OFFCURVE",
"648 652 OFFCURVE",
"655 664 CURVE SMOOTH",
"671 686 OFFCURVE",
"672 692 OFFCURVE",
"664 700 CURVE SMOOTH",
"660 705 OFFCURVE",
"658 705 OFFCURVE",
"648 704 CURVE SMOOTH",
"637 703 OFFCURVE",
"602 705 OFFCURVE",
"594 707 CURVE SMOOTH",
"592 708 OFFCURVE",
"589 708 OFFCURVE",
"587 707 CURVE SMOOTH"
);
}
);
width = 726;
}
);
unicode = 0058;
},
{
glyphname = Y;
lastChange = "2015-06-01 20:23:06 +0000";
layers = (
{
layerId = "258ED206-D907-4350-8EBA-CBDDA1C16BF7";
name = Regular;
paths = (
{
closed = 1;
nodes = (
"15 701 OFFCURVE",
"12 692 OFFCURVE",
"33 662 CURVE SMOOTH",
"39 652 OFFCURVE",
"48 638 OFFCURVE",
"53 631 CURVE SMOOTH",
"57 623 OFFCURVE",
"66 610 OFFCURVE",
"71 601 CURVE SMOOTH",
"77 593 OFFCURVE",
"86 577 OFFCURVE",
"92 567 CURVE SMOOTH",
"116 527 OFFCURVE",
"125 513 OFFCURVE",
"129 507 CURVE SMOOTH",
"132 503 OFFCURVE",
"140 489 OFFCURVE",
"148 476 CURVE SMOOTH",
"164 447 OFFCURVE",
"179 423 OFFCURVE",
"192 405 CURVE SMOOTH",
"197 397 OFFCURVE",
"202 390 OFFCURVE",
"203 388 CURVE SMOOTH",
"204 386 OFFCURVE",
"212 374 OFFCURVE",
"221 359 CURVE SMOOTH",
"244 324 OFFCURVE",
"255 305 OFFCURVE",
"258 296 CURVE SMOOTH",
"260 291 OFFCURVE",
"261 281 OFFCURVE",
"260 260 CURVE SMOOTH",
"258 168 OFFCURVE",
"257 15 OFFCURVE",
"259 11 CURVE SMOOTH",
"260 9 OFFCURVE",
"265 6 OFFCURVE",
"269 4 CURVE SMOOTH",
"277 0 OFFCURVE",
"280 0 OFFCURVE",
"351 0 CURVE SMOOTH",
"391 0 OFFCURVE",
"431 0 OFFCURVE",
"439 0 CURVE SMOOTH",
"457 -1 OFFCURVE",
"465 2 OFFCURVE",
"472 12 CURVE SMOOTH",
"477 18 LINE",
"476 115 LINE SMOOTH",
"476 168 OFFCURVE",
"475 231 OFFCURVE",
"475 256 CURVE SMOOTH",
"474 281 OFFCURVE",
"475 305 OFFCURVE",
"476 310 CURVE SMOOTH",
"477 315 OFFCURVE",
"481 324 OFFCURVE",
"486 331 CURVE SMOOTH",
"501 355 OFFCURVE",
"508 365 OFFCURVE",
"511 369 CURVE SMOOTH",
"513 371 OFFCURVE",
"518 380 OFFCURVE",
"522 389 CURVE SMOOTH",
"527 397 OFFCURVE",
"534 409 OFFCURVE",
"537 414 CURVE SMOOTH",
"541 420 OFFCURVE",
"544 426 OFFCURVE",
"545 428 CURVE SMOOTH",
"545 430 OFFCURVE",
"547 433 OFFCURVE",
"549 433 CURVE SMOOTH",
"550 434 OFFCURVE",
"553 438 OFFCURVE",
"555 443 CURVE SMOOTH",
"557 447 OFFCURVE",
"561 453 OFFCURVE",
"564 456 CURVE SMOOTH",
"567 458 OFFCURVE",
"569 461 OFFCURVE",
"569 463 CURVE SMOOTH",
"569 464 OFFCURVE",
"572 470 OFFCURVE",
"576 475 CURVE SMOOTH",
"579 480 OFFCURVE",
"584 489 OFFCURVE",
"587 493 CURVE SMOOTH",
"595 506 OFFCURVE",
"612 533 OFFCURVE",
"615 537 CURVE SMOOTH",
"617 539 OFFCURVE",
"620 544 OFFCURVE",
"622 549 CURVE SMOOTH",
"625 553 OFFCURVE",
"629 560 OFFCURVE",
"632 564 CURVE SMOOTH",
"635 569 OFFCURVE",
"642 580 OFFCURVE",
"648 590 CURVE SMOOTH",
"654 599 OFFCURVE",
"663 613 OFFCURVE",
"668 620 CURVE SMOOTH",
"673 627 OFFCURVE",
"676 633 OFFCURVE",
"676 634 CURVE SMOOTH",
"676 634 OFFCURVE",
"680 641 OFFCURVE",
"685 648 CURVE SMOOTH",
"690 656 OFFCURVE",
"696 666 OFFCURVE",
"697 671 CURVE SMOOTH",
"699 675 OFFCURVE",
"702 681 OFFCURVE",
"704 684 CURVE SMOOTH",
"709 690 OFFCURVE",
"709 695 OFFCURVE",
"702 700 CURVE SMOOTH",
"697 704 OFFCURVE",
"696 704 OFFCURVE",
"644 703 CURVE SMOOTH",
"615 703 OFFCURVE",
"578 703 OFFCURVE",
"561 703 CURVE SMOOTH",
"529 704 OFFCURVE",
"524 703 OFFCURVE",
"516 695 CURVE SMOOTH",
"515 693 OFFCURVE",
"505 677 OFFCURVE",
"496 660 CURVE SMOOTH",
"487 643 OFFCURVE",
"478 626 OFFCURVE",
"476 624 CURVE SMOOTH",
"474 621 OFFCURVE",
"470 613 OFFCURVE",
"466 606 CURVE SMOOTH",
"462 599 OFFCURVE",
"457 590 OFFCURVE",
"453 585 CURVE SMOOTH",
"445 572 OFFCURVE",
"403 493 OFFCURVE",
"395 473 CURVE SMOOTH",
"392 465 OFFCURVE",
"386 463 OFFCURVE",
"383 468 CURVE SMOOTH",
"380 471 OFFCURVE",
"373 485 OFFCURVE",
"356 520 CURVE SMOOTH",
"349 535 OFFCURVE",
"338 555 OFFCURVE",
"331 566 CURVE SMOOTH",
"325 577 OFFCURVE",
"319 588 OFFCURVE",
"317 591 CURVE SMOOTH",
"316 593 OFFCURVE",
"312 600 OFFCURVE",
"308 606 CURVE SMOOTH",
"294 629 OFFCURVE",
"288 641 OFFCURVE",
"277 660 CURVE SMOOTH",
"264 685 OFFCURVE",
"256 695 OFFCURVE",
"251 698 CURVE SMOOTH",
"248 700 OFFCURVE",
"226 701 OFFCURVE",
"173 701 CURVE SMOOTH",
"133 701 OFFCURVE",
"92 702 OFFCURVE",
"82 704 CURVE SMOOTH",
"72 705 OFFCURVE",
"63 705 OFFCURVE",
"62 705 CURVE SMOOTH",
"62 705 OFFCURVE",
"55 704 OFFCURVE",
"47 704 CURVE SMOOTH"
);
}
);
width = 728;
}
);
unicode = 0059;
},
{
glyphname = Z;
lastChange = "2015-06-01 20:23:06 +0000";
layers = (
{
layerId = "258ED206-D907-4350-8EBA-CBDDA1C16BF7";
name = Regular;
paths = (
{
closed = 1;
nodes = (
"50 694 OFFCURVE",
"50 693 OFFCURVE",
"50 620 CURVE SMOOTH",
"50 584 OFFCURVE",
"51 554 OFFCURVE",
"52 552 CURVE SMOOTH",
"56 543 OFFCURVE",
"63 542 OFFCURVE",
"111 543 CURVE SMOOTH",
"137 543 OFFCURVE",
"159 543 OFFCURVE",
"160 542 CURVE SMOOTH",
"161 541 OFFCURVE",
"165 542 OFFCURVE",
"169 543 CURVE SMOOTH",
"173 545 OFFCURVE",
"180 545 OFFCURVE",
"192 544 CURVE SMOOTH",
"201 544 OFFCURVE",
"212 543 OFFCURVE",
"216 544 CURVE SMOOTH",
"236 545 OFFCURVE",
"325 546 OFFCURVE",
"329 544 CURVE SMOOTH",
"338 541 OFFCURVE",
"337 537 OFFCURVE",
"325 521 CURVE SMOOTH",
"298 481 OFFCURVE",
"292 473 OFFCURVE",
"286 465 CURVE SMOOTH",
"270 444 OFFCURVE",
"260 430 OFFCURVE",
"257 424 CURVE SMOOTH",
"255 420 OFFCURVE",
"249 411 OFFCURVE",
"244 405 CURVE SMOOTH",
"239 398 OFFCURVE",
"234 392 OFFCURVE",
"234 391 CURVE SMOOTH",
"234 390 OFFCURVE",
"230 384 OFFCURVE",
"225 378 CURVE SMOOTH",
"219 371 OFFCURVE",
"213 362 OFFCURVE",
"210 357 CURVE SMOOTH",
"207 352 OFFCURVE",
"202 345 OFFCURVE",
"198 341 CURVE SMOOTH",
"195 337 OFFCURVE",
"190 331 OFFCURVE",
"188 326 CURVE SMOOTH",
"186 322 OFFCURVE",
"180 314 OFFCURVE",
"176 309 CURVE SMOOTH",
"171 303 OFFCURVE",
"165 295 OFFCURVE",
"162 290 CURVE SMOOTH",
"160 285 OFFCURVE",
"155 277 OFFCURVE",
"152 274 CURVE SMOOTH",
"149 271 OFFCURVE",
"144 264 OFFCURVE",
"142 258 CURVE SMOOTH",
"133 244 OFFCURVE",
"121 226 OFFCURVE",
"115 219 CURVE SMOOTH",
"109 212 OFFCURVE",
"98 197 OFFCURVE",
"93 190 CURVE SMOOTH",
"76 163 OFFCURVE",
"66 148 OFFCURVE",
"62 143 CURVE SMOOTH",
"59 139 OFFCURVE",
"54 134 OFFCURVE",
"52 131 CURVE SMOOTH",
"48 124 OFFCURVE",
"34 105 OFFCURVE",
"25 93 CURVE SMOOTH",
"20 86 LINE",
"21 50 LINE SMOOTH",
"21 29 OFFCURVE",
"22 13 OFFCURVE",
"24 10 CURVE SMOOTH",
"29 0 OFFCURVE",
"32 0 OFFCURVE",
"83 0 CURVE SMOOTH",
"131 1 OFFCURVE",
"183 1 OFFCURVE",
"460 0 CURVE SMOOTH",
"608 0 OFFCURVE",
"621 0 OFFCURVE",
"625 3 CURVE SMOOTH",
"636 10 OFFCURVE",
"637 13 OFFCURVE",
"635 79 CURVE SMOOTH",
"635 113 OFFCURVE",
"634 143 OFFCURVE",
"633 147 CURVE SMOOTH",
"632 156 OFFCURVE",
"626 161 OFFCURVE",
"615 161 CURVE SMOOTH",
"611 161 OFFCURVE",
"566 160 OFFCURVE",
"515 160 CURVE SMOOTH",
"464 159 OFFCURVE",
"401 158 OFFCURVE",
"374 158 CURVE SMOOTH",
"326 157 LINE",
"325 161 LINE SMOOTH",
"324 165 OFFCURVE",
"325 168 OFFCURVE",
"328 171 CURVE SMOOTH",
"330 174 OFFCURVE",
"338 185 OFFCURVE",
"344 196 CURVE SMOOTH",
"360 221 OFFCURVE",
"376 244 OFFCURVE",
"381 249 CURVE SMOOTH",
"384 253 OFFCURVE",
"409 289 OFFCURVE",
"417 302 CURVE SMOOTH",
"419 305 OFFCURVE",
"425 313 OFFCURVE",
"430 320 CURVE SMOOTH",
"450 344 OFFCURVE",
"450 344 OFFCURVE",
"485 397 CURVE SMOOTH",
"493 409 OFFCURVE",
"506 427 OFFCURVE",
"513 438 CURVE SMOOTH",
"521 449 OFFCURVE",
"529 460 OFFCURVE",
"531 464 CURVE SMOOTH",
"533 467 OFFCURVE",
"541 479 OFFCURVE",
"549 490 CURVE SMOOTH",
"557 501 OFFCURVE",
"566 513 OFFCURVE",
"568 516 CURVE SMOOTH",
"578 531 OFFCURVE",
"598 558 OFFCURVE",
"603 564 CURVE SMOOTH",
"606 568 OFFCURVE",
"610 574 OFFCURVE",
"611 576 CURVE SMOOTH",
"612 579 OFFCURVE",
"616 584 OFFCURVE",
"620 589 CURVE SMOOTH",
"633 605 OFFCURVE",
"637 616 OFFCURVE",
"639 645 CURVE SMOOTH",
"642 699 OFFCURVE",
"637 704 OFFCURVE",
"593 701 CURVE SMOOTH",
"579 701 OFFCURVE",
"567 700 OFFCURVE",
"564 700 CURVE SMOOTH",
"561 700 OFFCURVE",
"541 700 OFFCURVE",
"518 700 CURVE SMOOTH",
"496 700 OFFCURVE",
"474 700 OFFCURVE",
"470 700 CURVE SMOOTH",
"467 700 OFFCURVE",
"459 700 OFFCURVE",
"453 700 CURVE SMOOTH",
"447 700 OFFCURVE",
"441 700 OFFCURVE",
"439 700 CURVE SMOOTH",
"438 700 OFFCURVE",
"430 700 OFFCURVE",
"422 700 CURVE SMOOTH",
"414 700 OFFCURVE",
"398 700 OFFCURVE",
"386 700 CURVE SMOOTH",
"374 700 OFFCURVE",
"355 700 OFFCURVE",
"343 700 CURVE SMOOTH",
"331 700 OFFCURVE",
"316 700 OFFCURVE",
"310 700 CURVE SMOOTH",
"254 700 OFFCURVE",
"233 700 OFFCURVE",
"225 698 CURVE SMOOTH",
"218 697 OFFCURVE",
"212 697 OFFCURVE",
"205 698 CURVE SMOOTH",
"193 701 OFFCURVE",
"184 701 OFFCURVE",
"148 699 CURVE SMOOTH",
"114 698 OFFCURVE",
"103 698 OFFCURVE",
"97 701 CURVE SMOOTH",
"90 703 OFFCURVE",
"73 703 OFFCURVE",
"63 699 CURVE SMOOTH"
);
}
);
width = 660;
}
);
unicode = 005A;
},
{
glyphname = a;
lastChange = "2015-06-01 20:23:06 +0000";
layers = (
{
layerId = "258ED206-D907-4350-8EBA-CBDDA1C16BF7";
name = Regular;
paths = (
{
closed = 1;
nodes = (
"205 496 OFFCURVE",
"198 494 OFFCURVE",
"196 494 CURVE SMOOTH",
"186 494 OFFCURVE",
"149 485 OFFCURVE",
"145 483 CURVE SMOOTH",
"141 481 OFFCURVE",
"135 479 OFFCURVE",
"131 477 CURVE SMOOTH",
"125 475 OFFCURVE",
"118 471 OFFCURVE",
"112 467 CURVE SMOOTH",
"106 463 OFFCURVE",
"100 459 OFFCURVE",
"96 457 CURVE SMOOTH",
"79 447 OFFCURVE",
"49 405 OFFCURVE",
"43 381 CURVE SMOOTH",
"42 366 OFFCURVE",
"43 362 OFFCURVE",
"61 356 CURVE SMOOTH",
"75 350 OFFCURVE",
"86 348 OFFCURVE",
"133 344 CURVE SMOOTH",
"143 342 OFFCURVE",
"162 338 OFFCURVE",
"162 336 CURVE SMOOTH",
"164 334 OFFCURVE",
"194 334 OFFCURVE",
"196 336 CURVE SMOOTH",
"198 336 OFFCURVE",
"201 342 OFFCURVE",
"203 348 CURVE SMOOTH",
"211 364 OFFCURVE",
"221 375 OFFCURVE",
"237 381 CURVE SMOOTH",
"248 387 OFFCURVE",
"250 387 OFFCURVE",
"274 387 CURVE SMOOTH",
"299 389 LINE",
"309 381 LINE SMOOTH",
"324 371 OFFCURVE",
"328 366 OFFCURVE",
"330 342 CURVE SMOOTH",
"332 330 OFFCURVE",
"332 321 OFFCURVE",
"332 321 CURVE SMOOTH",
"332 319 OFFCURVE",
"328 317 OFFCURVE",
"324 315 CURVE SMOOTH",
"316 311 OFFCURVE",
"291 309 OFFCURVE",
"238 309 CURVE SMOOTH",
"223 307 OFFCURVE",
"215 307 OFFCURVE",
"205 303 CURVE SMOOTH",
"199 301 OFFCURVE",
"194 299 OFFCURVE",
"192 299 CURVE SMOOTH",
"186 299 OFFCURVE",
"147 290 OFFCURVE",
"143 286 CURVE SMOOTH",
"141 286 OFFCURVE",
"133 282 OFFCURVE",
"127 280 CURVE SMOOTH",
"120 278 OFFCURVE",
"112 274 OFFCURVE",
"108 272 CURVE SMOOTH",
"104 270 OFFCURVE",
"98 266 OFFCURVE",
"94 262 CURVE SMOOTH",
"81 254 OFFCURVE",
"55 229 OFFCURVE",
"45 217 CURVE SMOOTH",
"36 204 OFFCURVE",
"26 184 OFFCURVE",
"24 171 CURVE SMOOTH",
"20 157 OFFCURVE",
"18 118 OFFCURVE",
"22 108 CURVE SMOOTH",
"26 83 OFFCURVE",
"32 71 OFFCURVE",
"43 52 CURVE SMOOTH",
"53 36 OFFCURVE",
"73 20 OFFCURVE",
"98 9 CURVE SMOOTH",
"125 -5 OFFCURVE",
"155 -11 OFFCURVE",
"192 -9 CURVE SMOOTH",
"211 -9 OFFCURVE",
"217 -9 OFFCURVE",
"248 1 CURVE SMOOTH",
"260 5 OFFCURVE",
"301 26 OFFCURVE",
"313 34 CURVE SMOOTH",
"322 40 OFFCURVE",
"330 42 OFFCURVE",
"332 36 CURVE SMOOTH",
"334 34 OFFCURVE",
"336 28 OFFCURVE",
"336 22 CURVE SMOOTH",
"338 1 OFFCURVE",
"344 -1 OFFCURVE",
"387 1 CURVE SMOOTH",
"404 1 OFFCURVE",
"435 1 OFFCURVE",
"457 1 CURVE SMOOTH",
"504 1 OFFCURVE",
"511 3 OFFCURVE",
"517 11 CURVE SMOOTH",
"523 17 OFFCURVE",
"523 18 OFFCURVE",
"515 46 CURVE SMOOTH",
"511 61 OFFCURVE",
"510 67 OFFCURVE",
"510 100 CURVE SMOOTH",
"508 184 OFFCURVE",
"508 221 OFFCURVE",
"508 286 CURVE SMOOTH",
"510 352 OFFCURVE",
"508 368 OFFCURVE",
"506 381 CURVE SMOOTH",
"504 385 OFFCURVE",
"502 393 OFFCURVE",
"502 399 CURVE SMOOTH",
"500 405 OFFCURVE",
"496 412 OFFCURVE",
"492 418 CURVE SMOOTH",
"488 424 OFFCURVE",
"486 430 OFFCURVE",
"486 432 CURVE SMOOTH",
"486 436 OFFCURVE",
"471 451 OFFCURVE",
"463 455 CURVE SMOOTH",
"461 457 OFFCURVE",
"455 459 OFFCURVE",
"453 463 CURVE SMOOTH",
"447 469 OFFCURVE",
"426 479 OFFCURVE",
"420 479 CURVE SMOOTH",
"418 479 OFFCURVE",
"416 481 OFFCURVE",
"412 483 CURVE SMOOTH",
"410 485 OFFCURVE",
"404 486 OFFCURVE",
"398 488 CURVE SMOOTH",
"393 488 OFFCURVE",
"387 490 OFFCURVE",
"385 490 CURVE SMOOTH",
"379 494 OFFCURVE",
"355 498 OFFCURVE",
"344 498 CURVE SMOOTH",
"338 498 OFFCURVE",
"324 498 OFFCURVE",
"313 498 CURVE SMOOTH",
"303 498 OFFCURVE",
"291 498 OFFCURVE",
"287 498 CURVE SMOOTH",
"272 498 OFFCURVE",
"233 500 OFFCURVE",
"227 500 CURVE SMOOTH",
"223 502 OFFCURVE",
"217 500 OFFCURVE",
"211 498 CURVE SMOOTH"
);
},
{
closed = 1;
nodes = (
"332 212 LINE",
"330 173 LINE SMOOTH",
"330 149 OFFCURVE",
"328 134 OFFCURVE",
"326 130 CURVE SMOOTH",
"324 124 OFFCURVE",
"316 118 OFFCURVE",
"297 110 CURVE SMOOTH",
"283 104 OFFCURVE",
"277 104 OFFCURVE",
"260 102 CURVE SMOOTH",
"238 102 OFFCURVE",
"238 102 OFFCURVE",
"227 108 CURVE SMOOTH",
"217 114 OFFCURVE",
"215 116 OFFCURVE",
"209 126 CURVE SMOOTH",
"201 143 OFFCURVE",
"203 165 OFFCURVE",
"213 176 CURVE SMOOTH",
"215 178 OFFCURVE",
"217 182 OFFCURVE",
"217 184 CURVE SMOOTH",
"221 188 OFFCURVE",
"246 204 OFFCURVE",
"254 206 CURVE SMOOTH",
"258 208 OFFCURVE",
"266 210 OFFCURVE",
"272 212 CURVE SMOOTH",
"279 215 OFFCURVE",
"303 221 OFFCURVE",
"315 221 CURVE SMOOTH",
"316 221 OFFCURVE",
"322 219 OFFCURVE",
"326 215 CURVE SMOOTH"
);
}
);
width = 541;
}
);
unicode = 0061;
},
{
glyphname = b;
lastChange = "2015-06-01 20:23:06 +0000";
layers = (
{
layerId = "258ED206-D907-4350-8EBA-CBDDA1C16BF7";
name = Regular;
paths = (
{
closed = 1;
nodes = (
"95 698 OFFCURVE",
"83 697 OFFCURVE",
"83 698 CURVE SMOOTH",
"82 698 OFFCURVE",
"73 699 OFFCURVE",
"63 700 CURVE SMOOTH",
"50 700 OFFCURVE",
"43 700 OFFCURVE",
"37 698 CURVE SMOOTH",
"22 692 OFFCURVE",
"23 695 OFFCURVE",
"23 543 CURVE SMOOTH",
"23 284 OFFCURVE",
"23 238 OFFCURVE",
"23 158 CURVE SMOOTH",
"23 114 OFFCURVE",
"22 65 OFFCURVE",
"21 51 CURVE SMOOTH",
"19 17 OFFCURVE",
"20 9 OFFCURVE",
"32 3 CURVE SMOOTH",
"38 -1 OFFCURVE",
"41 -1 OFFCURVE",
"53 -1 CURVE SMOOTH",
"60 0 OFFCURVE",
"83 0 OFFCURVE",
"103 0 CURVE SMOOTH",
"138 1 LINE",
"145 7 LINE SMOOTH",
"151 13 OFFCURVE",
"154 20 OFFCURVE",
"162 51 CURVE SMOOTH",
"166 64 OFFCURVE",
"171 73 OFFCURVE",
"176 73 CURVE SMOOTH",
"177 73 OFFCURVE",
"182 67 OFFCURVE",
"187 61 CURVE SMOOTH",
"202 44 OFFCURVE",
"224 25 OFFCURVE",
"235 21 CURVE SMOOTH",
"244 17 OFFCURVE",
"256 11 OFFCURVE",
"261 7 CURVE SMOOTH",
"264 4 OFFCURVE",
"312 -3 OFFCURVE",
"327 -3 CURVE SMOOTH",
"356 -3 OFFCURVE",
"401 7 OFFCURVE",
"411 15 CURVE SMOOTH",
"413 17 OFFCURVE",
"416 18 OFFCURVE",
"418 18 CURVE SMOOTH",
"427 18 OFFCURVE",
"450 34 OFFCURVE",
"478 61 CURVE SMOOTH",
"500 81 OFFCURVE",
"522 122 OFFCURVE",
"529 151 CURVE SMOOTH",
"536 184 OFFCURVE",
"537 192 OFFCURVE",
"540 224 CURVE SMOOTH",
"542 250 OFFCURVE",
"542 261 OFFCURVE",
"540 276 CURVE SMOOTH",
"538 287 OFFCURVE",
"537 305 OFFCURVE",
"536 317 CURVE SMOOTH",
"535 329 OFFCURVE",
"532 346 OFFCURVE",
"530 354 CURVE SMOOTH",
"526 372 OFFCURVE",
"514 402 OFFCURVE",
"508 410 CURVE SMOOTH",
"506 413 OFFCURVE",
"503 419 OFFCURVE",
"500 425 CURVE SMOOTH",
"491 443 OFFCURVE",
"451 478 OFFCURVE",
"428 488 CURVE SMOOTH",
"418 493 OFFCURVE",
"403 498 OFFCURVE",
"392 500 CURVE SMOOTH",
"387 501 OFFCURVE",
"380 502 OFFCURVE",
"377 503 CURVE SMOOTH",
"369 506 OFFCURVE",
"332 506 OFFCURVE",
"325 503 CURVE SMOOTH",
"322 502 OFFCURVE",
"310 500 OFFCURVE",
"298 498 CURVE SMOOTH",
"276 494 OFFCURVE",
"273 493 OFFCURVE",
"256 480 CURVE SMOOTH",
"250 476 OFFCURVE",
"245 472 OFFCURVE",
"243 472 CURVE SMOOTH",
"242 472 OFFCURVE",
"237 468 OFFCURVE",
"231 463 CURVE SMOOTH",
"223 456 OFFCURVE",
"221 455 OFFCURVE",
"215 455 CURVE SMOOTH",
"209 456 LINE",
"208 472 LINE SMOOTH",
"207 481 OFFCURVE",
"208 493 OFFCURVE",
"208 497 CURVE SMOOTH",
"209 502 OFFCURVE",
"209 509 OFFCURVE",
"208 513 CURVE SMOOTH",
"207 517 OFFCURVE",
"207 538 OFFCURVE",
"208 560 CURVE SMOOTH",
"210 582 OFFCURVE",
"210 618 OFFCURVE",
"211 641 CURVE SMOOTH",
"211 694 OFFCURVE",
"211 694 OFFCURVE",
"185 700 CURVE SMOOTH",
"174 702 OFFCURVE",
"137 702 OFFCURVE",
"109 699 CURVE SMOOTH"
);
},
{
closed = 1;
nodes = (
"324 378 OFFCURVE",
"332 367 OFFCURVE",
"339 345 CURVE SMOOTH",
"345 330 OFFCURVE",
"346 322 OFFCURVE",
"348 299 CURVE SMOOTH",
"351 269 OFFCURVE",
"350 204 OFFCURVE",
"348 200 CURVE SMOOTH",
"347 198 OFFCURVE",
"345 187 OFFCURVE",
"343 175 CURVE SMOOTH",
"340 150 OFFCURVE",
"333 131 OFFCURVE",
"323 122 CURVE SMOOTH",
"301 103 OFFCURVE",
"283 97 OFFCURVE",
"265 102 CURVE SMOOTH",
"260 104 OFFCURVE",
"253 106 OFFCURVE",
"251 107 CURVE SMOOTH",
"243 108 OFFCURVE",
"229 120 OFFCURVE",
"223 130 CURVE SMOOTH",
"212 148 OFFCURVE",
"211 152 OFFCURVE",
"211 225 CURVE SMOOTH",
"211 262 OFFCURVE",
"211 307 OFFCURVE",
"212 325 CURVE SMOOTH",
"213 359 LINE",
"219 366 LINE SMOOTH",
"230 380 OFFCURVE",
"249 390 OFFCURVE",
"270 394 CURVE SMOOTH",
"275 394 OFFCURVE",
"280 396 OFFCURVE",
"282 397 CURVE SMOOTH",
"283 398 OFFCURVE",
"288 399 OFFCURVE",
"291 400 CURVE SMOOTH",
"298 401 OFFCURVE",
"299 401 OFFCURVE",
"300 397 CURVE SMOOTH",
"300 394 OFFCURVE",
"305 390 OFFCURVE",
"311 386 CURVE SMOOTH"
);
}
);
width = 562;
}
);
unicode = 0062;
},
{
glyphname = c;
lastChange = "2015-06-01 20:23:06 +0000";
layers = (
{
layerId = "258ED206-D907-4350-8EBA-CBDDA1C16BF7";
name = Regular;
paths = (
{
closed = 1;
nodes = (
"223 499 OFFCURVE",
"207 497 OFFCURVE",
"201 495 CURVE SMOOTH",
"182 491 OFFCURVE",
"143 476 OFFCURVE",
"139 468 CURVE SMOOTH",
"139 468 OFFCURVE",
"131 464 OFFCURVE",
"125 460 CURVE SMOOTH",
"106 450 OFFCURVE",
"73 413 OFFCURVE",
"63 394 CURVE SMOOTH",
"61 390 OFFCURVE",
"57 384 OFFCURVE",
"53 380 CURVE SMOOTH",
"51 374 OFFCURVE",
"47 368 OFFCURVE",
"45 362 CURVE SMOOTH",
"45 359 OFFCURVE",
"41 351 OFFCURVE",
"39 347 CURVE SMOOTH",
"36 345 OFFCURVE",
"30 331 OFFCURVE",
"28 318 CURVE SMOOTH",
"20 296 LINE",
"20 255 LINE SMOOTH",
"20 216 OFFCURVE",
"20 212 OFFCURVE",
"26 189 CURVE SMOOTH",
"38 134 OFFCURVE",
"55 103 OFFCURVE",
"92 64 CURVE SMOOTH",
"116 41 OFFCURVE",
"133 29 OFFCURVE",
"162 15 CURVE SMOOTH",
"199 0 OFFCURVE",
"225 -6 OFFCURVE",
"277 -8 CURVE SMOOTH",
"303 -8 OFFCURVE",
"311 -8 OFFCURVE",
"326 -4 CURVE SMOOTH",
"363 4 OFFCURVE",
"389 11 OFFCURVE",
"390 15 CURVE SMOOTH",
"392 15 OFFCURVE",
"394 17 OFFCURVE",
"394 17 CURVE SMOOTH",
"396 17 OFFCURVE",
"402 19 OFFCURVE",
"408 23 CURVE SMOOTH",
"418 27 OFFCURVE",
"457 58 OFFCURVE",
"457 62 CURVE SMOOTH",
"457 64 OFFCURVE",
"459 66 OFFCURVE",
"463 70 CURVE SMOOTH",
"472 80 OFFCURVE",
"488 99 OFFCURVE",
"494 115 CURVE SMOOTH",
"504 132 OFFCURVE",
"507 146 OFFCURVE",
"507 158 CURVE SMOOTH",
"507 166 OFFCURVE",
"507 167 OFFCURVE",
"498 169 CURVE SMOOTH",
"492 171 OFFCURVE",
"476 175 OFFCURVE",
"463 177 CURVE SMOOTH",
"449 179 OFFCURVE",
"429 183 OFFCURVE",
"418 185 CURVE SMOOTH",
"402 189 OFFCURVE",
"400 189 OFFCURVE",
"394 185 CURVE SMOOTH",
"392 183 OFFCURVE",
"389 181 OFFCURVE",
"389 179 CURVE SMOOTH",
"387 175 OFFCURVE",
"369 150 OFFCURVE",
"367 148 CURVE SMOOTH",
"365 146 OFFCURVE",
"363 142 OFFCURVE",
"361 138 CURVE SMOOTH",
"357 132 OFFCURVE",
"342 117 OFFCURVE",
"334 113 CURVE SMOOTH",
"332 113 OFFCURVE",
"322 111 OFFCURVE",
"311 109 CURVE SMOOTH",
"293 107 OFFCURVE",
"289 107 OFFCURVE",
"277 111 CURVE SMOOTH",
"262 115 OFFCURVE",
"244 125 OFFCURVE",
"234 136 CURVE SMOOTH",
"225 148 OFFCURVE",
"225 150 OFFCURVE",
"219 175 CURVE SMOOTH",
"213 201 OFFCURVE",
"209 224 OFFCURVE",
"209 244 CURVE SMOOTH",
"209 279 OFFCURVE",
"217 335 OFFCURVE",
"225 351 CURVE SMOOTH",
"229 361 OFFCURVE",
"242 376 OFFCURVE",
"248 380 CURVE SMOOTH",
"264 390 OFFCURVE",
"293 394 OFFCURVE",
"305 388 CURVE SMOOTH",
"307 386 OFFCURVE",
"311 384 OFFCURVE",
"312 384 CURVE SMOOTH",
"316 384 OFFCURVE",
"330 372 OFFCURVE",
"334 366 CURVE SMOOTH",
"336 362 OFFCURVE",
"340 353 OFFCURVE",
"340 343 CURVE SMOOTH",
"342 331 OFFCURVE",
"344 327 OFFCURVE",
"348 323 CURVE SMOOTH",
"353 318 OFFCURVE",
"357 318 OFFCURVE",
"389 320 CURVE SMOOTH",
"400 322 OFFCURVE",
"424 322 OFFCURVE",
"443 323 CURVE SMOOTH",
"486 323 OFFCURVE",
"494 325 OFFCURVE",
"500 329 CURVE SMOOTH",
"509 335 OFFCURVE",
"511 347 OFFCURVE",
"500 368 CURVE SMOOTH",
"496 378 OFFCURVE",
"490 390 OFFCURVE",
"488 396 CURVE SMOOTH",
"486 401 OFFCURVE",
"480 409 OFFCURVE",
"476 415 CURVE SMOOTH",
"472 419 OFFCURVE",
"468 425 OFFCURVE",
"465 429 CURVE SMOOTH",
"461 435 OFFCURVE",
"422 470 OFFCURVE",
"410 476 CURVE SMOOTH",
"402 481 OFFCURVE",
"373 493 OFFCURVE",
"361 497 CURVE SMOOTH",
"338 505 OFFCURVE",
"326 505 OFFCURVE",
"293 507 CURVE SMOOTH",
"262 507 OFFCURVE",
"254 507 OFFCURVE",
"234 501 CURVE SMOOTH"
);
}
);
width = 528;
}
);
unicode = 0063;
},
{
glyphname = d;
lastChange = "2015-06-01 20:23:06 +0000";
layers = (
{
layerId = "258ED206-D907-4350-8EBA-CBDDA1C16BF7";
name = Regular;
paths = (
{
closed = 1;
nodes = (
"366 696 OFFCURVE",
"358 687 OFFCURVE",
"356 677 CURVE SMOOTH",
"356 672 OFFCURVE",
"355 621 OFFCURVE",
"356 563 CURVE SMOOTH",
"356 505 OFFCURVE",
"356 457 OFFCURVE",
"356 456 CURVE SMOOTH",
"355 454 OFFCURVE",
"353 453 OFFCURVE",
"351 453 CURVE SMOOTH",
"348 453 OFFCURVE",
"328 466 OFFCURVE",
"316 476 CURVE SMOOTH",
"310 481 OFFCURVE",
"287 490 OFFCURVE",
"265 497 CURVE SMOOTH",
"250 502 OFFCURVE",
"247 502 OFFCURVE",
"228 501 CURVE SMOOTH",
"217 500 OFFCURVE",
"202 499 OFFCURVE",
"195 499 CURVE SMOOTH",
"183 499 OFFCURVE",
"167 495 OFFCURVE",
"163 492 CURVE SMOOTH",
"162 491 OFFCURVE",
"156 488 OFFCURVE",
"151 486 CURVE SMOOTH",
"140 482 OFFCURVE",
"112 465 OFFCURVE",
"103 457 CURVE SMOOTH",
"99 454 OFFCURVE",
"95 450 OFFCURVE",
"91 449 CURVE SMOOTH",
"88 447 OFFCURVE",
"83 441 OFFCURVE",
"79 435 CURVE SMOOTH",
"76 429 OFFCURVE",
"70 421 OFFCURVE",
"66 415 CURVE SMOOTH",
"62 410 OFFCURVE",
"58 402 OFFCURVE",
"58 398 CURVE SMOOTH",
"57 394 OFFCURVE",
"54 387 OFFCURVE",
"51 384 CURVE SMOOTH",
"45 378 OFFCURVE",
"36 355 OFFCURVE",
"31 335 CURVE SMOOTH",
"28 324 OFFCURVE",
"26 310 OFFCURVE",
"22 279 CURVE SMOOTH",
"18 249 OFFCURVE",
"20 208 OFFCURVE",
"28 159 CURVE SMOOTH",
"31 139 OFFCURVE",
"42 106 OFFCURVE",
"50 94 CURVE SMOOTH",
"53 89 OFFCURVE",
"58 81 OFFCURVE",
"61 76 CURVE SMOOTH",
"69 64 OFFCURVE",
"87 44 OFFCURVE",
"98 35 CURVE SMOOTH",
"113 23 OFFCURVE",
"139 9 OFFCURVE",
"160 1 CURVE SMOOTH",
"181 -6 OFFCURVE",
"181 -6 OFFCURVE",
"211 -6 CURVE SMOOTH",
"246 -6 OFFCURVE",
"259 -3 OFFCURVE",
"283 7 CURVE SMOOTH",
"291 11 OFFCURVE",
"299 14 OFFCURVE",
"300 14 CURVE SMOOTH",
"303 14 OFFCURVE",
"332 33 OFFCURVE",
"340 41 CURVE SMOOTH",
"344 45 OFFCURVE",
"350 47 OFFCURVE",
"352 47 CURVE SMOOTH",
"357 47 OFFCURVE",
"357 47 OFFCURVE",
"357 31 CURVE SMOOTH",
"357 10 OFFCURVE",
"361 4 OFFCURVE",
"374 2 CURVE SMOOTH",
"390 -1 OFFCURVE",
"510 -1 OFFCURVE",
"518 1 CURVE SMOOTH",
"528 3 OFFCURVE",
"534 9 OFFCURVE",
"537 17 CURVE SMOOTH",
"539 25 OFFCURVE",
"540 59 OFFCURVE",
"539 147 CURVE SMOOTH",
"539 201 OFFCURVE",
"538 564 OFFCURVE",
"538 597 CURVE SMOOTH",
"538 601 OFFCURVE",
"539 620 OFFCURVE",
"539 639 CURVE SMOOTH",
"541 674 OFFCURVE",
"541 675 OFFCURVE",
"536 682 CURVE SMOOTH",
"529 694 OFFCURVE",
"523 697 OFFCURVE",
"497 697 CURVE SMOOTH",
"485 697 OFFCURVE",
"467 697 OFFCURVE",
"456 697 CURVE SMOOTH",
"445 697 OFFCURVE",
"424 697 OFFCURVE",
"408 697 CURVE SMOOTH",
"392 698 OFFCURVE",
"377 698 OFFCURVE",
"374 698 CURVE SMOOTH"
);
},
{
closed = 1;
nodes = (
"325 385 OFFCURVE",
"330 382 OFFCURVE",
"339 373 CURVE SMOOTH",
"354 359 OFFCURVE",
"355 354 OFFCURVE",
"355 291 CURVE SMOOTH",
"356 264 OFFCURVE",
"356 235 OFFCURVE",
"356 228 CURVE SMOOTH",
"356 220 OFFCURVE",
"356 199 OFFCURVE",
"355 180 CURVE SMOOTH",
"354 138 OFFCURVE",
"354 139 OFFCURVE",
"331 119 CURVE SMOOTH",
"311 101 OFFCURVE",
"279 98 OFFCURVE",
"252 113 CURVE SMOOTH",
"228 127 OFFCURVE",
"218 152 OFFCURVE",
"215 212 CURVE SMOOTH",
"212 270 OFFCURVE",
"218 324 OFFCURVE",
"229 349 CURVE SMOOTH",
"247 387 OFFCURVE",
"277 400 OFFCURVE",
"315 389 CURVE SMOOTH"
);
},
{
closed = 1;
nodes = (
"77 142 OFFCURVE",
"75 141 OFFCURVE",
"74 141 CURVE SMOOTH",
"73 141 OFFCURVE",
"73 142 OFFCURVE",
"74 143 CURVE SMOOTH",
"74 144 OFFCURVE",
"75 145 OFFCURVE",
"77 145 CURVE SMOOTH",
"78 145 OFFCURVE",
"78 144 OFFCURVE",
"77 143 CURVE SMOOTH"
);
}
);
width = 560;
}
);
unicode = 0064;
},
{
glyphname = e;
lastChange = "2015-06-01 20:23:06 +0000";
layers = (
{
layerId = "258ED206-D907-4350-8EBA-CBDDA1C16BF7";
name = Regular;
paths = (
{
closed = 1;
nodes = (
"262 509 OFFCURVE",
"254 507 OFFCURVE",
"245 506 CURVE SMOOTH",
"236 505 OFFCURVE",
"226 502 OFFCURVE",
"223 501 CURVE SMOOTH",
"219 499 OFFCURVE",
"211 496 OFFCURVE",
"203 494 CURVE SMOOTH",
"184 488 OFFCURVE",
"131 462 OFFCURVE",
"121 453 CURVE SMOOTH",
"117 449 OFFCURVE",
"108 441 OFFCURVE",
"101 435 CURVE SMOOTH",
"82 420 OFFCURVE",
"53 379 OFFCURVE",
"43 352 CURVE SMOOTH",
"27 312 OFFCURVE",
"25 303 OFFCURVE",
"22 280 CURVE SMOOTH",
"16 239 OFFCURVE",
"21 188 OFFCURVE",
"34 155 CURVE SMOOTH",
"42 134 OFFCURVE",
"45 129 OFFCURVE",
"63 100 CURVE SMOOTH",
"76 79 OFFCURVE",
"121 38 OFFCURVE",
"131 38 CURVE SMOOTH",
"132 38 OFFCURVE",
"138 35 OFFCURVE",
"142 31 CURVE SMOOTH",
"160 18 OFFCURVE",
"196 3 OFFCURVE",
"218 0 CURVE SMOOTH",
"221 -1 OFFCURVE",
"228 -2 OFFCURVE",
"236 -4 CURVE SMOOTH",
"247 -7 OFFCURVE",
"258 -8 OFFCURVE",
"292 -8 CURVE SMOOTH",
"338 -8 OFFCURVE",
"361 -5 OFFCURVE",
"382 4 CURVE SMOOTH",
"389 6 OFFCURVE",
"395 8 OFFCURVE",
"397 8 CURVE SMOOTH",
"401 8 OFFCURVE",
"433 26 OFFCURVE",
"447 36 CURVE SMOOTH",
"454 41 OFFCURVE",
"463 47 OFFCURVE",
"467 49 CURVE SMOOTH",
"477 54 OFFCURVE",
"510 89 OFFCURVE",
"520 104 CURVE SMOOTH",
"524 111 OFFCURVE",
"528 119 OFFCURVE",
"528 121 CURVE SMOOTH",
"528 132 OFFCURVE",
"523 134 OFFCURVE",
"486 147 CURVE SMOOTH",
"479 150 OFFCURVE",
"473 152 OFFCURVE",
"472 153 CURVE SMOOTH",
"471 154 OFFCURVE",
"467 155 OFFCURVE",
"463 156 CURVE SMOOTH",
"459 156 OFFCURVE",
"455 158 OFFCURVE",
"453 160 CURVE SMOOTH",
"452 161 OFFCURVE",
"450 163 OFFCURVE",
"448 163 CURVE SMOOTH",
"446 163 OFFCURVE",
"441 165 OFFCURVE",
"437 167 CURVE SMOOTH",
"424 176 OFFCURVE",
"418 174 OFFCURVE",
"405 160 CURVE SMOOTH",
"398 153 OFFCURVE",
"386 143 OFFCURVE",
"377 137 CURVE SMOOTH",
"364 127 OFFCURVE",
"357 124 OFFCURVE",
"340 120 CURVE SMOOTH",
"319 114 OFFCURVE",
"314 114 OFFCURVE",
"291 117 CURVE SMOOTH",
"279 118 OFFCURVE",
"257 126 OFFCURVE",
"247 133 CURVE SMOOTH",
"239 138 OFFCURVE",
"227 149 OFFCURVE",
"224 156 CURVE SMOOTH",
"219 165 OFFCURVE",
"214 186 OFFCURVE",
"214 198 CURVE SMOOTH",
"214 216 OFFCURVE",
"213 216 OFFCURVE",
"256 216 CURVE SMOOTH",
"289 215 OFFCURVE",
"358 214 OFFCURVE",
"389 213 CURVE SMOOTH",
"422 212 OFFCURVE",
"523 215 OFFCURVE",
"528 217 CURVE SMOOTH",
"537 220 OFFCURVE",
"539 226 OFFCURVE",
"539 244 CURVE SMOOTH",
"539 254 OFFCURVE",
"538 264 OFFCURVE",
"537 268 CURVE SMOOTH",
"535 274 OFFCURVE",
"534 283 OFFCURVE",
"530 314 CURVE SMOOTH",
"528 324 OFFCURVE",
"525 332 OFFCURVE",
"511 367 CURVE SMOOTH",
"499 398 OFFCURVE",
"466 443 OFFCURVE",
"450 451 CURVE SMOOTH",
"447 453 OFFCURVE",
"441 457 OFFCURVE",
"437 460 CURVE SMOOTH",
"433 464 OFFCURVE",
"426 469 OFFCURVE",
"421 471 CURVE SMOOTH",
"417 473 OFFCURVE",
"409 477 OFFCURVE",
"404 481 CURVE SMOOTH",
"398 485 OFFCURVE",
"389 490 OFFCURVE",
"375 494 CURVE SMOOTH",
"364 497 OFFCURVE",
"351 501 OFFCURVE",
"346 503 CURVE SMOOTH",
"340 505 OFFCURVE",
"327 506 OFFCURVE",
"311 507 CURVE SMOOTH",
"296 507 OFFCURVE",
"280 508 OFFCURVE",
"274 509 CURVE SMOOTH",
"268 509 OFFCURVE",
"263 510 OFFCURVE",
"262 509 CURVE SMOOTH"
);
},
{
closed = 1;
nodes = (
"328 390 OFFCURVE",
"346 371 OFFCURVE",
"350 353 CURVE SMOOTH",
"351 348 OFFCURVE",
"353 341 OFFCURVE",
"354 337 CURVE SMOOTH",
"356 330 OFFCURVE",
"356 327 OFFCURVE",
"354 321 CURVE SMOOTH",
"352 313 LINE",
"341 312 LINE SMOOTH",
"335 312 OFFCURVE",
"327 312 OFFCURVE",
"325 312 CURVE SMOOTH",
"309 313 OFFCURVE",
"262 314 OFFCURVE",
"240 314 CURVE SMOOTH",
"216 314 LINE",
"216 325 LINE SMOOTH",
"216 331 OFFCURVE",
"218 341 OFFCURVE",
"220 348 CURVE SMOOTH",
"225 361 OFFCURVE",
"238 379 OFFCURVE",
"242 379 CURVE SMOOTH",
"243 379 OFFCURVE",
"247 382 OFFCURVE",
"250 386 CURVE SMOOTH",
"256 393 OFFCURVE",
"257 394 OFFCURVE",
"270 396 CURVE SMOOTH",
"278 397 OFFCURVE",
"287 399 OFFCURVE",
"291 399 CURVE SMOOTH",
"294 400 OFFCURVE",
"297 400 OFFCURVE",
"298 400 CURVE SMOOTH",
"299 400 OFFCURVE",
"304 399 OFFCURVE",
"309 397 CURVE SMOOTH"
);
}
);
width = 559;
}
);
unicode = 0065;
},
{
glyphname = f;
lastChange = "2015-06-01 20:23:06 +0000";
layers = (
{
layerId = "258ED206-D907-4350-8EBA-CBDDA1C16BF7";
name = Regular;
paths = (
{
closed = 1;
nodes = (
"297 697 OFFCURVE",
"279 696 OFFCURVE",
"258 695 CURVE SMOOTH",
"209 694 OFFCURVE",
"194 691 OFFCURVE",
"172 680 CURVE SMOOTH",
"143 665 OFFCURVE",
"124 645 OFFCURVE",
"111 614 CURVE SMOOTH",
"104 596 LINE",
"105 547 LINE SMOOTH",
"106 511 OFFCURVE",
"106 496 OFFCURVE",
"104 493 CURVE SMOOTH",
"101 487 OFFCURVE",
"94 486 OFFCURVE",
"77 487 CURVE SMOOTH",
"70 488 OFFCURVE",
"64 488 OFFCURVE",
"62 487 CURVE SMOOTH",
"59 486 OFFCURVE",
"56 486 OFFCURVE",
"52 487 CURVE SMOOTH",
"48 489 OFFCURVE",
"44 489 OFFCURVE",
"36 487 CURVE SMOOTH",
"20 483 OFFCURVE",
"20 481 OFFCURVE",
"20 429 CURVE SMOOTH",
"20 385 OFFCURVE",
"21 379 OFFCURVE",
"29 372 CURVE SMOOTH",
"33 369 OFFCURVE",
"54 369 OFFCURVE",
"82 371 CURVE SMOOTH",
"100 373 OFFCURVE",
"100 373 OFFCURVE",
"103 368 CURVE SMOOTH",
"105 364 OFFCURVE",
"105 335 OFFCURVE",
"103 160 CURVE SMOOTH",
"103 120 OFFCURVE",
"102 85 OFFCURVE",
"103 82 CURVE SMOOTH",
"103 69 OFFCURVE",
"103 59 OFFCURVE",
"102 38 CURVE SMOOTH",
"100 20 OFFCURVE",
"101 17 OFFCURVE",
"104 12 CURVE SMOOTH",
"110 1 OFFCURVE",
"117 0 OFFCURVE",
"161 0 CURVE SMOOTH",
"183 0 OFFCURVE",
"217 0 OFFCURVE",
"236 0 CURVE SMOOTH",
"274 -1 OFFCURVE",
"279 0 OFFCURVE",
"286 10 CURVE SMOOTH",
"291 16 OFFCURVE",
"291 14 OFFCURVE",
"289 97 CURVE SMOOTH",
"288 134 OFFCURVE",
"287 171 OFFCURVE",
"287 178 CURVE SMOOTH",
"287 186 OFFCURVE",
"288 231 OFFCURVE",
"288 278 CURVE SMOOTH",
"289 365 LINE",
"294 369 LINE SMOOTH",
"298 372 OFFCURVE",
"300 373 OFFCURVE",
"322 371 CURVE SMOOTH",
"364 368 OFFCURVE",
"373 370 OFFCURVE",
"378 381 CURVE SMOOTH",
"379 386 OFFCURVE",
"379 441 OFFCURVE",
"377 470 CURVE SMOOTH",
"376 479 OFFCURVE",
"374 482 OFFCURVE",
"359 487 CURVE SMOOTH",
"347 491 OFFCURVE",
"328 493 OFFCURVE",
"306 490 CURVE SMOOTH",
"298 489 OFFCURVE",
"293 490 OFFCURVE",
"290 492 CURVE SMOOTH",
"285 494 OFFCURVE",
"285 495 OFFCURVE",
"284 517 CURVE SMOOTH",
"284 542 OFFCURVE",
"286 548 OFFCURVE",
"298 560 CURVE SMOOTH",
"313 574 OFFCURVE",
"318 576 OFFCURVE",
"347 575 CURVE SMOOTH",
"370 575 OFFCURVE",
"373 575 OFFCURVE",
"376 578 CURVE SMOOTH",
"382 585 OFFCURVE",
"383 597 OFFCURVE",
"383 637 CURVE SMOOTH",
"383 676 LINE",
"376 683 LINE SMOOTH",
"370 689 OFFCURVE",
"366 692 OFFCURVE",
"359 694 CURVE SMOOTH",
"348 696 OFFCURVE",
"299 699 OFFCURVE",
"297 697 CURVE SMOOTH"
);
}
);
width = 403;
}
);
unicode = 0066;
},
{
glyphname = g;
lastChange = "2015-06-01 20:23:06 +0000";
layers = (
{
layerId = "258ED206-D907-4350-8EBA-CBDDA1C16BF7";
name = Regular;
paths = (
{
closed = 1;
nodes = (
"204 500 OFFCURVE",
"187 495 OFFCURVE",
"152 482 CURVE SMOOTH",
"123 470 OFFCURVE",
"85 438 OFFCURVE",
"72 414 CURVE SMOOTH",
"61 395 OFFCURVE",
"54 364 OFFCURVE",
"56 345 CURVE SMOOTH",
"59 314 OFFCURVE",
"69 292 OFFCURVE",
"94 269 CURVE SMOOTH",
"113 250 OFFCURVE",
"131 237 OFFCURVE",
"146 232 CURVE SMOOTH",
"161 227 OFFCURVE",
"160 223 OFFCURVE",
"137 212 CURVE SMOOTH",
"94 191 OFFCURVE",
"63 164 OFFCURVE",
"57 144 CURVE SMOOTH",
"53 132 OFFCURVE",
"49 108 OFFCURVE",
"49 101 CURVE SMOOTH",
"49 98 OFFCURVE",
"51 91 OFFCURVE",
"54 86 CURVE SMOOTH",
"64 68 OFFCURVE",
"71 60 OFFCURVE",
"84 53 CURVE SMOOTH",
"91 49 OFFCURVE",
"98 45 OFFCURVE",
"100 44 CURVE SMOOTH",
"101 43 OFFCURVE",
"105 41 OFFCURVE",
"108 40 CURVE SMOOTH",
"119 36 OFFCURVE",
"113 30 OFFCURVE",
"98 27 CURVE SMOOTH",
"93 26 OFFCURVE",
"87 24 OFFCURVE",
"84 21 CURVE SMOOTH",
"81 19 OFFCURVE",
"76 17 OFFCURVE",
"74 17 CURVE SMOOTH",
"71 17 OFFCURVE",
"66 14 OFFCURVE",
"62 11 CURVE SMOOTH",
"58 8 OFFCURVE",
"53 5 OFFCURVE",
"52 5 CURVE SMOOTH",
"51 5 OFFCURVE",
"46 1 OFFCURVE",
"40 -5 CURVE SMOOTH",
"30 -15 OFFCURVE",
"22 -32 OFFCURVE",
"20 -46 CURVE SMOOTH",
"18 -63 OFFCURVE",
"30 -87 OFFCURVE",
"47 -99 CURVE SMOOTH",
"56 -106 OFFCURVE",
"94 -126 OFFCURVE",
"99 -126 CURVE SMOOTH",
"100 -126 OFFCURVE",
"106 -128 OFFCURVE",
"113 -130 CURVE SMOOTH",
"134 -139 OFFCURVE",
"177 -144 OFFCURVE",
"238 -146 CURVE SMOOTH",
"324 -149 OFFCURVE",
"396 -147 OFFCURVE",
"424 -140 CURVE SMOOTH",
"431 -139 OFFCURVE",
"439 -137 OFFCURVE",
"443 -137 CURVE SMOOTH",
"449 -137 OFFCURVE",
"455 -136 OFFCURVE",
"491 -122 CURVE SMOOTH",
"521 -111 OFFCURVE",
"534 -102 OFFCURVE",
"556 -80 CURVE SMOOTH",
"562 -74 OFFCURVE",
"576 -57 OFFCURVE",
"576 -55 CURVE SMOOTH",
"576 -54 OFFCURVE",
"580 -45 OFFCURVE",
"585 -35 CURVE SMOOTH",
"592 -18 OFFCURVE",
"594 -13 OFFCURVE",
"595 -1 CURVE SMOOTH",
"596 28 OFFCURVE",
"588 59 OFFCURVE",
"573 79 CURVE SMOOTH",
"559 97 OFFCURVE",
"546 110 OFFCURVE",
"539 111 CURVE SMOOTH",
"536 112 OFFCURVE",
"532 115 OFFCURVE",
"529 117 CURVE SMOOTH",
"523 123 OFFCURVE",
"494 138 OFFCURVE",
"488 138 CURVE SMOOTH",
"485 138 OFFCURVE",
"477 139 OFFCURVE",
"469 141 CURVE SMOOTH",
"435 148 OFFCURVE",
"407 151 OFFCURVE",
"354 152 CURVE SMOOTH",
"343 153 OFFCURVE",
"325 153 OFFCURVE",
"313 154 CURVE SMOOTH",
"301 155 OFFCURVE",
"288 156 OFFCURVE",
"283 156 CURVE SMOOTH",
"241 159 OFFCURVE",
"231 160 OFFCURVE",
"221 164 CURVE SMOOTH",
"212 168 OFFCURVE",
"211 170 OFFCURVE",
"210 175 CURVE SMOOTH",
"208 183 OFFCURVE",
"212 190 OFFCURVE",
"220 196 CURVE SMOOTH",
"227 200 OFFCURVE",
"250 204 OFFCURVE",
"267 203 CURVE SMOOTH",
"288 203 OFFCURVE",
"348 204 OFFCURVE",
"361 205 CURVE SMOOTH",
"367 205 OFFCURVE",
"378 208 OFFCURVE",
"386 210 CURVE SMOOTH",
"394 212 OFFCURVE",
"405 215 OFFCURVE",
"410 216 CURVE SMOOTH",
"415 217 OFFCURVE",
"426 221 OFFCURVE",
"434 225 CURVE SMOOTH",
"443 230 OFFCURVE",
"452 233 OFFCURVE",
"453 233 CURVE SMOOTH",
"455 233 OFFCURVE",
"458 235 OFFCURVE",
"461 237 CURVE SMOOTH",
"463 239 OFFCURVE",
"469 242 OFFCURVE",
"473 244 CURVE SMOOTH",
"485 250 OFFCURVE",
"511 277 OFFCURVE",
"519 291 CURVE SMOOTH",
"528 309 OFFCURVE",
"535 328 OFFCURVE",
"537 344 CURVE SMOOTH",
"538 357 OFFCURVE",
"538 362 OFFCURVE",
"533 384 CURVE SMOOTH",
"529 405 OFFCURVE",
"529 409 OFFCURVE",
"531 412 CURVE SMOOTH",
"537 420 OFFCURVE",
"555 421 OFFCURVE",
"572 415 CURVE SMOOTH",
"582 411 OFFCURVE",
"589 406 OFFCURVE",
"602 393 CURVE SMOOTH",
"604 391 OFFCURVE",
"608 389 OFFCURVE",
"611 389 CURVE SMOOTH",
"620 389 OFFCURVE",
"623 395 OFFCURVE",
"624 414 CURVE SMOOTH",
"626 432 OFFCURVE",
"624 492 OFFCURVE",
"622 497 CURVE SMOOTH",
"618 505 OFFCURVE",
"594 509 OFFCURVE",
"573 506 CURVE SMOOTH",
"559 504 OFFCURVE",
"536 495 OFFCURVE",
"534 491 CURVE SMOOTH",
"533 490 OFFCURVE",
"531 489 OFFCURVE",
"528 489 CURVE SMOOTH",
"523 489 OFFCURVE",
"500 473 OFFCURVE",
"492 464 CURVE SMOOTH",
"483 455 OFFCURVE",
"478 456 OFFCURVE",
"461 467 CURVE SMOOTH",
"442 482 OFFCURVE",
"426 488 OFFCURVE",
"381 499 CURVE SMOOTH",
"350 507 OFFCURVE",
"285 510 OFFCURVE",
"249 505 CURVE SMOOTH"
);
},
{
closed = 1;
nodes = (
"342 413 OFFCURVE",
"356 401 OFFCURVE",
"364 385 CURVE SMOOTH",
"370 372 OFFCURVE",
"371 370 OFFCURVE",
"371 355 CURVE SMOOTH",
"371 337 OFFCURVE",
"368 328 OFFCURVE",
"358 313 CURVE SMOOTH",
"354 305 OFFCURVE",
"350 301 OFFCURVE",
"346 300 CURVE SMOOTH",
"343 299 OFFCURVE",
"335 296 OFFCURVE",
"329 293 CURVE SMOOTH",
"318 287 OFFCURVE",
"316 287 OFFCURVE",
"296 287 CURVE SMOOTH",
"273 287 OFFCURVE",
"270 288 OFFCURVE",
"252 301 CURVE SMOOTH",
"239 310 OFFCURVE",
"225 329 OFFCURVE",
"223 342 CURVE SMOOTH",
"221 355 OFFCURVE",
"224 374 OFFCURVE",
"228 384 CURVE SMOOTH",
"236 400 OFFCURVE",
"251 412 OFFCURVE",
"277 421 CURVE SMOOTH",
"290 425 OFFCURVE",
"310 424 OFFCURVE",
"325 419 CURVE SMOOTH"
);
},
{
closed = 1;
nodes = (
"291 11 OFFCURVE",
"312 10 OFFCURVE",
"329 10 CURVE SMOOTH",
"356 9 OFFCURVE",
"383 8 OFFCURVE",
"383 7 CURVE SMOOTH",
"383 7 OFFCURVE",
"387 6 OFFCURVE",
"392 6 CURVE SMOOTH",
"404 5 OFFCURVE",
"411 2 OFFCURVE",
"422 -5 CURVE SMOOTH",
"441 -19 OFFCURVE",
"439 -35 OFFCURVE",
"415 -46 CURVE SMOOTH",
"404 -51 OFFCURVE",
"397 -53 OFFCURVE",
"374 -54 CURVE SMOOTH",
"366 -55 OFFCURVE",
"354 -57 OFFCURVE",
"346 -58 CURVE SMOOTH",
"336 -60 OFFCURVE",
"325 -60 OFFCURVE",
"301 -59 CURVE SMOOTH",
"263 -57 OFFCURVE",
"223 -53 OFFCURVE",
"220 -50 CURVE SMOOTH",
"219 -49 OFFCURVE",
"214 -48 OFFCURVE",
"210 -48 CURVE SMOOTH",
"203 -48 OFFCURVE",
"186 -43 OFFCURVE",
"180 -40 CURVE SMOOTH",
"172 -36 OFFCURVE",
"166 -21 OFFCURVE",
"168 -11 CURVE SMOOTH",
"171 -2 OFFCURVE",
"190 10 OFFCURVE",
"205 13 CURVE SMOOTH",
"215 14 OFFCURVE",
"246 14 OFFCURVE",
"283 12 CURVE SMOOTH"
);
},
{
closed = 1;
nodes = (
"565 -14 OFFCURVE",
"563 -14 OFFCURVE",
"562 -14 CURVE SMOOTH",
"560 -13 OFFCURVE",
"561 -11 OFFCURVE",
"563 -8 CURVE SMOOTH",
"566 -5 OFFCURVE",
"567 -5 OFFCURVE",
"567 -8 CURVE SMOOTH",
"568 -9 OFFCURVE",
"567 -12 OFFCURVE",
"566 -13 CURVE SMOOTH"
);
}
);
width = 645;
}
);
unicode = 0067;
},
{
glyphname = h;
lastChange = "2015-06-01 20:23:06 +0000";
layers = (
{
layerId = "258ED206-D907-4350-8EBA-CBDDA1C16BF7";
name = Regular;
paths = (
{
closed = 1;
nodes = (
"35 694 OFFCURVE",
"32 693 OFFCURVE",
"29 690 CURVE SMOOTH",
"23 681 OFFCURVE",
"23 674 OFFCURVE",
"24 627 CURVE SMOOTH",
"24 602 OFFCURVE",
"24 555 OFFCURVE",
"23 523 CURVE SMOOTH",
"21 447 OFFCURVE",
"20 436 OFFCURVE",
"22 418 CURVE SMOOTH",
"23 409 OFFCURVE",
"24 401 OFFCURVE",
"24 399 CURVE SMOOTH",
"23 392 OFFCURVE",
"22 248 OFFCURVE",
"22 194 CURVE SMOOTH",
"22 163 OFFCURVE",
"22 131 OFFCURVE",
"22 124 CURVE SMOOTH",
"22 117 OFFCURVE",
"23 106 OFFCURVE",
"24 100 CURVE SMOOTH",
"25 91 OFFCURVE",
"25 85 OFFCURVE",
"23 71 CURVE SMOOTH",
"19 48 OFFCURVE",
"19 23 OFFCURVE",
"23 14 CURVE SMOOTH",
"24 10 OFFCURVE",
"28 6 OFFCURVE",
"32 3 CURVE SMOOTH",
"38 0 OFFCURVE",
"42 0 OFFCURVE",
"118 0 CURVE SMOOTH",
"198 0 LINE",
"202 4 LINE SMOOTH",
"209 11 OFFCURVE",
"210 19 OFFCURVE",
"207 63 CURVE SMOOTH",
"206 86 OFFCURVE",
"206 155 OFFCURVE",
"206 217 CURVE SMOOTH",
"206 330 LINE",
"211 338 LINE SMOOTH",
"215 346 OFFCURVE",
"236 365 OFFCURVE",
"249 372 CURVE SMOOTH",
"254 375 OFFCURVE",
"260 377 OFFCURVE",
"273 377 CURVE SMOOTH",
"303 379 OFFCURVE",
"313 373 OFFCURVE",
"325 349 CURVE SMOOTH",
"331 336 LINE",
"331 205 LINE SMOOTH",
"331 131 OFFCURVE",
"330 62 OFFCURVE",
"328 46 CURVE SMOOTH",
"327 27 OFFCURVE",
"327 15 OFFCURVE",
"328 12 CURVE SMOOTH",
"332 1 OFFCURVE",
"336 0 OFFCURVE",
"416 0 CURVE SMOOTH",
"519 0 OFFCURVE",
"514 -3 OFFCURVE",
"514 51 CURVE SMOOTH",
"514 70 OFFCURVE",
"515 100 OFFCURVE",
"515 117 CURVE SMOOTH",
"515 135 OFFCURVE",
"514 179 OFFCURVE",
"514 216 CURVE SMOOTH",
"513 253 OFFCURVE",
"513 285 OFFCURVE",
"513 288 CURVE SMOOTH",
"513 291 OFFCURVE",
"513 309 OFFCURVE",
"513 328 CURVE SMOOTH",
"514 354 OFFCURVE",
"513 368 OFFCURVE",
"510 380 CURVE SMOOTH",
"501 427 OFFCURVE",
"498 433 OFFCURVE",
"480 452 CURVE SMOOTH",
"469 465 OFFCURVE",
"457 472 OFFCURVE",
"443 478 CURVE SMOOTH",
"438 480 OFFCURVE",
"431 483 OFFCURVE",
"427 486 CURVE SMOOTH",
"412 496 OFFCURVE",
"391 499 OFFCURVE",
"351 496 CURVE SMOOTH",
"340 496 OFFCURVE",
"331 494 OFFCURVE",
"322 490 CURVE SMOOTH",
"315 487 OFFCURVE",
"308 485 OFFCURVE",
"307 485 CURVE SMOOTH",
"306 485 OFFCURVE",
"299 483 OFFCURVE",
"292 481 CURVE SMOOTH",
"279 476 OFFCURVE",
"256 462 OFFCURVE",
"230 441 CURVE SMOOTH",
"212 426 OFFCURVE",
"206 425 OFFCURVE",
"206 436 CURVE SMOOTH",
"205 440 OFFCURVE",
"205 460 OFFCURVE",
"205 480 CURVE SMOOTH",
"205 501 OFFCURVE",
"205 520 OFFCURVE",
"205 523 CURVE SMOOTH",
"205 564 OFFCURVE",
"206 595 OFFCURVE",
"206 631 CURVE SMOOTH",
"206 675 OFFCURVE",
"206 675 OFFCURVE",
"201 682 CURVE SMOOTH",
"193 695 OFFCURVE",
"193 695 OFFCURVE",
"145 695 CURVE SMOOTH",
"120 695 OFFCURVE",
"92 695 OFFCURVE",
"80 696 CURVE SMOOTH",
"69 696 OFFCURVE",
"54 696 OFFCURVE",
"46 695 CURVE SMOOTH"
);
}
);
width = 535;
}
);
unicode = 0068;
},
{
glyphname = i;
lastChange = "2015-06-01 20:23:06 +0000";
layers = (
{
layerId = "258ED206-D907-4350-8EBA-CBDDA1C16BF7";
name = Regular;
paths = (
{
closed = 1;
nodes = (
"33 697 OFFCURVE",
"29 695 OFFCURVE",
"26 687 CURVE SMOOTH",
"25 684 OFFCURVE",
"24 659 OFFCURVE",
"23 632 CURVE SMOOTH",
"23 605 OFFCURVE",
"22 581 OFFCURVE",
"21 578 CURVE SMOOTH",
"18 569 OFFCURVE",
"22 551 OFFCURVE",
"26 546 CURVE SMOOTH",
"31 542 LINE",
"113 542 LINE SMOOTH",
"157 542 OFFCURVE",
"196 542 OFFCURVE",
"198 543 CURVE SMOOTH",
"205 545 OFFCURVE",
"208 554 OFFCURVE",
"208 588 CURVE SMOOTH",
"209 606 OFFCURVE",
"209 625 OFFCURVE",
"209 630 CURVE SMOOTH",
"210 635 OFFCURVE",
"209 648 OFFCURVE",
"208 657 CURVE SMOOTH",
"208 667 OFFCURVE",
"207 677 OFFCURVE",
"207 680 CURVE SMOOTH",
"207 684 OFFCURVE",
"205 688 OFFCURVE",
"200 693 CURVE SMOOTH",
"193 699 OFFCURVE",
"192 699 OFFCURVE",
"175 699 CURVE SMOOTH",
"165 699 OFFCURVE",
"136 700 OFFCURVE",
"110 700 CURVE SMOOTH",
"83 700 OFFCURVE",
"56 700 OFFCURVE",
"49 699 CURVE SMOOTH"
);
},
{
closed = 1;
nodes = (
"40 492 OFFCURVE",
"36 490 OFFCURVE",
"33 489 CURVE SMOOTH",
"23 484 OFFCURVE",
"23 486 OFFCURVE",
"22 310 CURVE SMOOTH",
"22 221 OFFCURVE",
"22 145 OFFCURVE",
"22 141 CURVE SMOOTH",
"22 136 OFFCURVE",
"22 124 OFFCURVE",
"22 113 CURVE SMOOTH",
"22 41 OFFCURVE",
"22 16 OFFCURVE",
"23 14 CURVE SMOOTH",
"23 12 OFFCURVE",
"27 9 OFFCURVE",
"32 6 CURVE SMOOTH",
"40 0 LINE",
"115 0 LINE SMOOTH",
"196 0 OFFCURVE",
"200 0 OFFCURVE",
"206 10 CURVE SMOOTH",
"209 15 OFFCURVE",
"209 19 OFFCURVE",
"209 45 CURVE SMOOTH",
"208 71 OFFCURVE",
"208 112 OFFCURVE",
"208 235 CURVE SMOOTH",
"208 255 OFFCURVE",
"208 275 OFFCURVE",
"209 279 CURVE SMOOTH",
"209 283 OFFCURVE",
"209 309 OFFCURVE",
"208 336 CURVE SMOOTH",
"208 363 OFFCURVE",
"208 391 OFFCURVE",
"209 399 CURVE SMOOTH",
"209 407 OFFCURVE",
"208 423 OFFCURVE",
"207 434 CURVE SMOOTH",
"206 447 OFFCURVE",
"206 460 OFFCURVE",
"207 467 CURVE SMOOTH",
"208 478 OFFCURVE",
"208 481 OFFCURVE",
"206 485 CURVE SMOOTH",
"200 495 OFFCURVE",
"200 495 OFFCURVE",
"108 495 CURVE SMOOTH",
"62 495 OFFCURVE",
"45 495 OFFCURVE",
"42 493 CURVE SMOOTH"
);
}
);
width = 229;
}
);
unicode = 0069;
},
{
glyphname = j;
lastChange = "2015-06-01 20:23:06 +0000";
layers = (
{
layerId = "258ED206-D907-4350-8EBA-CBDDA1C16BF7";
name = Regular;
paths = (
{
closed = 1;
nodes = (
"85 694 OFFCURVE",
"84 687 OFFCURVE",
"83 623 CURVE SMOOTH",
"83 574 OFFCURVE",
"84 555 OFFCURVE",
"88 551 CURVE SMOOTH",
"92 546 OFFCURVE",
"116 541 OFFCURVE",
"123 544 CURVE SMOOTH",
"126 545 OFFCURVE",
"156 546 OFFCURVE",
"191 546 CURVE SMOOTH",
"271 547 OFFCURVE",
"268 546 OFFCURVE",
"270 578 CURVE SMOOTH",
"271 586 OFFCURVE",
"271 608 OFFCURVE",
"271 627 CURVE SMOOTH",
"272 687 OFFCURVE",
"271 691 OFFCURVE",
"261 701 CURVE SMOOTH",
"257 705 OFFCURVE",
"256 705 OFFCURVE",
"179 706 CURVE SMOOTH",
"104 706 OFFCURVE",
"101 706 OFFCURVE",
"97 703 CURVE SMOOTH"
);
},
{
closed = 1;
nodes = (
"123 499 OFFCURVE",
"119 499 OFFCURVE",
"114 500 CURVE SMOOTH",
"105 503 OFFCURVE",
"95 499 OFFCURVE",
"91 492 CURVE SMOOTH",
"85 480 OFFCURVE",
"84 457 OFFCURVE",
"85 292 CURVE SMOOTH",
"86 202 OFFCURVE",
"86 106 OFFCURVE",
"87 79 CURVE SMOOTH",
"88 25 OFFCURVE",
"87 19 OFFCURVE",
"76 1 CURVE SMOOTH",
"71 -7 OFFCURVE",
"70 -8 OFFCURVE",
"59 -10 CURVE SMOOTH",
"53 -11 OFFCURVE",
"45 -13 OFFCURVE",
"41 -14 CURVE SMOOTH",
"32 -15 OFFCURVE",
"22 -25 OFFCURVE",
"21 -33 CURVE SMOOTH",
"20 -36 OFFCURVE",
"20 -62 OFFCURVE",
"20 -91 CURVE SMOOTH",
"21 -143 OFFCURVE",
"21 -143 OFFCURVE",
"25 -148 CURVE SMOOTH",
"32 -155 OFFCURVE",
"42 -156 OFFCURVE",
"76 -156 CURVE SMOOTH",
"98 -156 OFFCURVE",
"109 -155 OFFCURVE",
"115 -152 CURVE SMOOTH",
"120 -151 OFFCURVE",
"126 -149 OFFCURVE",
"130 -149 CURVE SMOOTH",
"142 -149 OFFCURVE",
"182 -133 OFFCURVE",
"199 -121 CURVE SMOOTH",
"203 -118 OFFCURVE",
"209 -114 OFFCURVE",
"213 -111 CURVE SMOOTH",
"228 -100 OFFCURVE",
"239 -90 OFFCURVE",
"248 -75 CURVE SMOOTH",
"253 -67 OFFCURVE",
"258 -60 OFFCURVE",
"258 -59 CURVE SMOOTH",
"258 -58 OFFCURVE",
"260 -52 OFFCURVE",
"263 -46 CURVE SMOOTH",
"266 -40 OFFCURVE",
"269 -26 OFFCURVE",
"271 -14 CURVE SMOOTH",
"275 6 OFFCURVE",
"275 17 OFFCURVE",
"274 142 CURVE SMOOTH",
"273 216 OFFCURVE",
"272 282 OFFCURVE",
"272 288 CURVE SMOOTH",
"272 294 OFFCURVE",
"273 315 OFFCURVE",
"273 335 CURVE SMOOTH",
"273 356 OFFCURVE",
"273 397 OFFCURVE",
"272 426 CURVE SMOOTH",
"271 480 LINE",
"265 489 LINE SMOOTH",
"262 494 OFFCURVE",
"258 498 OFFCURVE",
"256 499 CURVE SMOOTH",
"250 501 OFFCURVE",
"198 502 OFFCURVE",
"196 500 CURVE SMOOTH",
"195 499 OFFCURVE",
"186 499 OFFCURVE",
"174 500 CURVE SMOOTH",
"140 503 OFFCURVE",
"135 504 OFFCURVE",
"128 501 CURVE SMOOTH"
);
}
);
width = 295;
}
);
unicode = 006A;
},
{
glyphname = k;
lastChange = "2015-06-01 20:23:06 +0000";
layers = (
{
layerId = "258ED206-D907-4350-8EBA-CBDDA1C16BF7";
name = Regular;
paths = (
{
closed = 1;
nodes = (
"33 695 OFFCURVE",
"27 690 OFFCURVE",
"24 679 CURVE SMOOTH",
"23 673 OFFCURVE",
"23 653 OFFCURVE",
"24 614 CURVE SMOOTH",
"25 577 OFFCURVE",
"25 545 OFFCURVE",
"24 521 CURVE SMOOTH",
"23 492 OFFCURVE",
"23 235 OFFCURVE",
"24 126 CURVE SMOOTH",
"24 113 OFFCURVE",
"23 97 OFFCURVE",
"22 91 CURVE SMOOTH",
"20 83 OFFCURVE",
"20 67 OFFCURVE",
"20 48 CURVE SMOOTH",
"21 22 OFFCURVE",
"21 16 OFFCURVE",
"24 12 CURVE SMOOTH",
"31 1 OFFCURVE",
"34 0 OFFCURVE",
"70 0 CURVE SMOOTH",
"88 1 OFFCURVE",
"125 1 OFFCURVE",
"152 0 CURVE SMOOTH",
"201 0 LINE",
"207 6 LINE",
"213 12 LINE",
"212 50 LINE SMOOTH",
"210 121 OFFCURVE",
"210 133 OFFCURVE",
"214 141 CURVE SMOOTH",
"216 144 OFFCURVE",
"228 159 OFFCURVE",
"242 172 CURVE SMOOTH",
"274 204 OFFCURVE",
"279 205 OFFCURVE",
"286 181 CURVE SMOOTH",
"288 176 OFFCURVE",
"293 162 OFFCURVE",
"298 152 CURVE SMOOTH",
"303 141 OFFCURVE",
"308 130 OFFCURVE",
"309 127 CURVE SMOOTH",
"310 124 OFFCURVE",
"313 118 OFFCURVE",
"315 113 CURVE SMOOTH",
"322 100 OFFCURVE",
"329 83 OFFCURVE",
"335 67 CURVE SMOOTH",
"347 36 OFFCURVE",
"349 30 OFFCURVE",
"355 20 CURVE SMOOTH",
"364 2 OFFCURVE",
"366 1 OFFCURVE",
"400 2 CURVE SMOOTH",
"421 2 OFFCURVE",
"429 3 OFFCURVE",
"435 6 CURVE SMOOTH",
"439 7 OFFCURVE",
"444 9 OFFCURVE",
"447 9 CURVE SMOOTH",
"451 8 OFFCURVE",
"453 9 OFFCURVE",
"454 12 CURVE SMOOTH",
"456 18 OFFCURVE",
"458 17 OFFCURVE",
"460 10 CURVE SMOOTH",
"462 1 OFFCURVE",
"464 1 OFFCURVE",
"513 1 CURVE SMOOTH",
"553 0 LINE",
"559 6 LINE SMOOTH",
"566 14 OFFCURVE",
"567 23 OFFCURVE",
"560 31 CURVE SMOOTH",
"558 34 OFFCURVE",
"554 41 OFFCURVE",
"551 47 CURVE SMOOTH",
"548 53 OFFCURVE",
"543 61 OFFCURVE",
"540 65 CURVE SMOOTH",
"537 69 OFFCURVE",
"535 73 OFFCURVE",
"535 74 CURVE SMOOTH",
"535 76 OFFCURVE",
"520 109 OFFCURVE",
"510 127 CURVE SMOOTH",
"507 134 OFFCURVE",
"494 160 OFFCURVE",
"482 184 CURVE SMOOTH",
"470 208 OFFCURVE",
"458 232 OFFCURVE",
"455 237 CURVE SMOOTH",
"452 243 OFFCURVE",
"444 259 OFFCURVE",
"436 274 CURVE SMOOTH",
"429 289 OFFCURVE",
"419 307 OFFCURVE",
"414 314 CURVE SMOOTH",
"408 324 OFFCURVE",
"406 328 OFFCURVE",
"406 335 CURVE SMOOTH",
"406 343 OFFCURVE",
"407 344 OFFCURVE",
"432 369 CURVE SMOOTH",
"458 395 OFFCURVE",
"518 452 OFFCURVE",
"531 464 CURVE SMOOTH",
"544 475 OFFCURVE",
"546 483 OFFCURVE",
"537 490 CURVE SMOOTH",
"531 495 LINE",
"456 495 LINE SMOOTH",
"406 495 OFFCURVE",
"380 494 OFFCURVE",
"378 492 CURVE SMOOTH",
"374 490 OFFCURVE",
"360 477 OFFCURVE",
"344 458 CURVE SMOOTH",
"330 442 OFFCURVE",
"307 416 OFFCURVE",
"289 397 CURVE SMOOTH",
"264 370 OFFCURVE",
"257 363 OFFCURVE",
"252 356 CURVE SMOOTH",
"245 346 OFFCURVE",
"218 320 OFFCURVE",
"216 320 CURVE SMOOTH",
"214 320 OFFCURVE",
"212 321 OFFCURVE",
"212 322 CURVE SMOOTH",
"211 324 OFFCURVE",
"210 386 OFFCURVE",
"209 460 CURVE SMOOTH",
"208 612 OFFCURVE",
"208 606 OFFCURVE",
"210 641 CURVE SMOOTH",
"210 655 OFFCURVE",
"210 669 OFFCURVE",
"209 673 CURVE SMOOTH",
"208 677 OFFCURVE",
"207 682 OFFCURVE",
"206 685 CURVE SMOOTH",
"204 695 OFFCURVE",
"196 697 OFFCURVE",
"150 698 CURVE SMOOTH",
"127 698 OFFCURVE",
"98 699 OFFCURVE",
"86 699 CURVE SMOOTH",
"73 699 OFFCURVE",
"57 699 OFFCURVE",
"49 697 CURVE SMOOTH"
);
}
);
width = 585;
}
);
unicode = 006B;
},
{
glyphname = l;
lastChange = "2015-06-01 20:23:06 +0000";
layers = (
{
layerId = "258ED206-D907-4350-8EBA-CBDDA1C16BF7";
name = Regular;
paths = (
{
closed = 1;
nodes = (
"36 697 OFFCURVE",
"32 694 OFFCURVE",
"30 690 CURVE SMOOTH",
"26 684 OFFCURVE",
"26 678 OFFCURVE",
"25 593 CURVE SMOOTH",
"25 543 OFFCURVE",
"25 467 OFFCURVE",
"25 425 CURVE SMOOTH",
"25 382 OFFCURVE",
"25 332 OFFCURVE",
"24 313 CURVE SMOOTH",
"24 293 OFFCURVE",
"25 238 OFFCURVE",
"25 189 CURVE SMOOTH",
"25 137 OFFCURVE",
"24 90 OFFCURVE",
"23 77 CURVE SMOOTH",
"22 64 OFFCURVE",
"21 44 OFFCURVE",
"20 32 CURVE SMOOTH",
"20 11 LINE",
"26 5 LINE",
"32 0 LINE",
"111 0 LINE SMOOTH",
"195 0 OFFCURVE",
"197 0 OFFCURVE",
"206 10 CURVE SMOOTH",
"212 17 OFFCURVE",
"214 31 OFFCURVE",
"213 98 CURVE SMOOTH",
"212 214 OFFCURVE",
"212 262 OFFCURVE",
"213 292 CURVE SMOOTH",
"214 308 OFFCURVE",
"214 333 OFFCURVE",
"214 347 CURVE SMOOTH",
"213 360 OFFCURVE",
"212 382 OFFCURVE",
"212 394 CURVE SMOOTH",
"212 448 OFFCURVE",
"212 456 OFFCURVE",
"213 476 CURVE SMOOTH",
"213 529 OFFCURVE",
"212 599 OFFCURVE",
"210 613 CURVE SMOOTH",
"209 624 OFFCURVE",
"209 631 OFFCURVE",
"210 634 CURVE SMOOTH",
"213 641 OFFCURVE",
"213 683 OFFCURVE",
"210 688 CURVE SMOOTH",
"206 696 OFFCURVE",
"199 697 OFFCURVE",
"169 697 CURVE SMOOTH",
"153 697 OFFCURVE",
"139 698 OFFCURVE",
"138 698 CURVE SMOOTH",
"137 699 OFFCURVE",
"116 700 OFFCURVE",
"92 701 CURVE SMOOTH",
"59 701 OFFCURVE",
"45 701 OFFCURVE",
"40 699 CURVE SMOOTH"
);
}
);
width = 234;
}
);
unicode = 006C;
},
{
glyphname = m;
lastChange = "2015-06-01 20:23:06 +0000";
layers = (
{
layerId = "258ED206-D907-4350-8EBA-CBDDA1C16BF7";
name = Regular;
paths = (
{
closed = 1;
nodes = (
"349 500 OFFCURVE",
"342 496 OFFCURVE",
"336 496 CURVE SMOOTH",
"321 496 OFFCURVE",
"291 485 OFFCURVE",
"275 474 CURVE SMOOTH",
"270 470 OFFCURVE",
"264 467 OFFCURVE",
"262 466 CURVE SMOOTH",
"260 465 OFFCURVE",
"250 458 OFFCURVE",
"241 449 CURVE SMOOTH",
"222 433 OFFCURVE",
"216 429 OFFCURVE",
"211 434 CURVE SMOOTH",
"208 437 OFFCURVE",
"207 456 OFFCURVE",
"209 471 CURVE SMOOTH",
"210 479 OFFCURVE",
"210 482 OFFCURVE",
"207 488 CURVE SMOOTH",
"201 497 OFFCURVE",
"195 499 OFFCURVE",
"182 496 CURVE SMOOTH",
"174 495 OFFCURVE",
"149 495 OFFCURVE",
"106 495 CURVE SMOOTH",
"71 496 OFFCURVE",
"40 495 OFFCURVE",
"37 495 CURVE SMOOTH",
"35 494 OFFCURVE",
"30 490 OFFCURVE",
"28 486 CURVE SMOOTH",
"22 477 LINE",
"23 413 LINE SMOOTH",
"24 208 OFFCURVE",
"23 71 OFFCURVE",
"21 62 CURVE SMOOTH",
"20 57 OFFCURVE",
"20 51 OFFCURVE",
"20 49 CURVE SMOOTH",
"21 46 OFFCURVE",
"22 38 OFFCURVE",
"22 30 CURVE SMOOTH",
"22 13 OFFCURVE",
"25 8 OFFCURVE",
"34 3 CURVE SMOOTH",
"39 0 OFFCURVE",
"47 0 OFFCURVE",
"119 0 CURVE SMOOTH",
"196 0 OFFCURVE",
"199 1 OFFCURVE",
"206 4 CURVE SMOOTH",
"209 7 OFFCURVE",
"213 10 OFFCURVE",
"213 13 CURVE SMOOTH",
"214 15 OFFCURVE",
"214 47 OFFCURVE",
"213 84 CURVE SMOOTH",
"212 121 OFFCURVE",
"211 157 OFFCURVE",
"212 163 CURVE SMOOTH",
"213 218 OFFCURVE",
"212 268 OFFCURVE",
"210 275 CURVE SMOOTH",
"209 280 OFFCURVE",
"209 284 OFFCURVE",
"210 289 CURVE SMOOTH",
"211 293 OFFCURVE",
"212 306 OFFCURVE",
"212 317 CURVE SMOOTH",
"213 339 LINE",
"220 346 LINE SMOOTH",
"244 371 OFFCURVE",
"275 382 OFFCURVE",
"300 373 CURVE SMOOTH",
"311 370 OFFCURVE",
"314 367 OFFCURVE",
"319 360 CURVE SMOOTH",
"333 341 OFFCURVE",
"332 351 OFFCURVE",
"332 205 CURVE SMOOTH",
"331 133 OFFCURVE",
"330 61 OFFCURVE",
"329 46 CURVE SMOOTH",
"328 26 OFFCURVE",
"328 18 OFFCURVE",
"330 13 CURVE SMOOTH",
"335 1 OFFCURVE",
"332 2 OFFCURVE",
"421 2 CURVE SMOOTH",
"474 2 OFFCURVE",
"504 3 OFFCURVE",
"507 4 CURVE SMOOTH",
"518 8 OFFCURVE",
"519 16 OFFCURVE",
"518 56 CURVE SMOOTH",
"517 75 OFFCURVE",
"516 144 OFFCURVE",
"516 209 CURVE SMOOTH",
"516 310 OFFCURVE",
"517 328 OFFCURVE",
"519 334 CURVE SMOOTH",
"523 343 OFFCURVE",
"543 361 OFFCURVE",
"561 370 CURVE SMOOTH",
"576 378 OFFCURVE",
"586 379 OFFCURVE",
"605 375 CURVE SMOOTH",
"613 373 OFFCURVE",
"617 371 OFFCURVE",
"624 363 CURVE SMOOTH",
"630 357 OFFCURVE",
"634 351 OFFCURVE",
"636 345 CURVE SMOOTH",
"639 335 OFFCURVE",
"639 228 OFFCURVE",
"637 108 CURVE SMOOTH",
"636 65 OFFCURVE",
"635 27 OFFCURVE",
"635 23 CURVE SMOOTH",
"635 12 OFFCURVE",
"641 4 OFFCURVE",
"650 4 CURVE SMOOTH",
"653 4 OFFCURVE",
"676 4 OFFCURVE",
"701 4 CURVE SMOOTH",
"806 3 OFFCURVE",
"804 3 OFFCURVE",
"811 8 CURVE SMOOTH",
"815 10 OFFCURVE",
"819 14 OFFCURVE",
"821 17 CURVE SMOOTH",
"824 24 OFFCURVE",
"824 23 OFFCURVE",
"821 104 CURVE SMOOTH",
"820 138 OFFCURVE",
"820 211 OFFCURVE",
"820 266 CURVE SMOOTH",
"821 373 OFFCURVE",
"820 391 OFFCURVE",
"811 408 CURVE SMOOTH",
"809 412 OFFCURVE",
"807 417 OFFCURVE",
"807 418 CURVE SMOOTH",
"807 423 OFFCURVE",
"792 447 OFFCURVE",
"780 459 CURVE SMOOTH",
"766 474 OFFCURVE",
"750 484 OFFCURVE",
"729 491 CURVE SMOOTH",
"703 499 OFFCURVE",
"699 500 OFFCURVE",
"680 499 CURVE SMOOTH",
"649 497 OFFCURVE",
"641 496 OFFCURVE",
"622 491 CURVE SMOOTH",
"603 487 OFFCURVE",
"591 480 OFFCURVE",
"563 459 CURVE SMOOTH",
"558 456 OFFCURVE",
"553 453 OFFCURVE",
"552 452 CURVE SMOOTH",
"550 451 OFFCURVE",
"542 444 OFFCURVE",
"533 436 CURVE SMOOTH",
"518 421 OFFCURVE",
"508 415 OFFCURVE",
"502 417 CURVE SMOOTH",
"501 418 OFFCURVE",
"498 421 OFFCURVE",
"496 425 CURVE SMOOTH",
"490 439 OFFCURVE",
"479 453 OFFCURVE",
"467 464 CURVE SMOOTH",
"446 483 OFFCURVE",
"404 500 OFFCURVE",
"377 500 CURVE SMOOTH",
"368 500 OFFCURVE",
"362 501 OFFCURVE",
"360 503 CURVE SMOOTH",
"355 506 OFFCURVE",
"349 507 OFFCURVE",
"349 504 CURVE SMOOTH"
);
}
);
width = 843;
}
);
unicode = 006D;
},
{
glyphname = n;
lastChange = "2015-06-01 20:23:06 +0000";
layers = (
{
layerId = "258ED206-D907-4350-8EBA-CBDDA1C16BF7";
name = Regular;
paths = (
{
closed = 1;
nodes = (
"353 503 OFFCURVE",
"347 501 OFFCURVE",
"342 501 CURVE SMOOTH",
"325 499 OFFCURVE",
"307 493 OFFCURVE",
"298 488 CURVE SMOOTH",
"293 485 OFFCURVE",
"288 482 OFFCURVE",
"286 482 CURVE SMOOTH",
"284 482 OFFCURVE",
"278 478 OFFCURVE",
"272 474 CURVE SMOOTH",
"267 469 OFFCURVE",
"257 462 OFFCURVE",
"251 458 CURVE SMOOTH",
"244 454 OFFCURVE",
"237 448 OFFCURVE",
"234 444 CURVE SMOOTH",
"225 433 OFFCURVE",
"213 428 OFFCURVE",
"208 434 CURVE SMOOTH",
"206 437 OFFCURVE",
"206 439 OFFCURVE",
"208 447 CURVE SMOOTH",
"211 459 OFFCURVE",
"212 476 OFFCURVE",
"210 487 CURVE SMOOTH",
"209 492 OFFCURVE",
"207 495 OFFCURVE",
"203 496 CURVE SMOOTH",
"198 498 OFFCURVE",
"135 500 OFFCURVE",
"60 500 CURVE SMOOTH",
"38 501 OFFCURVE",
"35 500 OFFCURVE",
"29 496 CURVE SMOOTH",
"24 493 OFFCURVE",
"23 490 OFFCURVE",
"22 481 CURVE SMOOTH",
"21 475 OFFCURVE",
"21 464 OFFCURVE",
"22 456 CURVE SMOOTH",
"23 448 OFFCURVE",
"24 435 OFFCURVE",
"24 426 CURVE SMOOTH",
"24 402 OFFCURVE",
"21 127 OFFCURVE",
"21 121 CURVE SMOOTH",
"20 79 OFFCURVE",
"21 29 OFFCURVE",
"23 20 CURVE SMOOTH",
"25 11 OFFCURVE",
"32 5 OFFCURVE",
"41 3 CURVE SMOOTH",
"45 2 OFFCURVE",
"60 2 OFFCURVE",
"76 3 CURVE SMOOTH",
"91 3 OFFCURVE",
"104 4 OFFCURVE",
"105 3 CURVE SMOOTH",
"106 3 OFFCURVE",
"129 2 OFFCURVE",
"156 2 CURVE SMOOTH",
"210 2 OFFCURVE",
"209 2 OFFCURVE",
"212 14 CURVE SMOOTH",
"213 18 OFFCURVE",
"213 33 OFFCURVE",
"212 47 CURVE SMOOTH",
"211 62 OFFCURVE",
"210 104 OFFCURVE",
"211 141 CURVE SMOOTH",
"211 178 OFFCURVE",
"211 236 OFFCURVE",
"211 270 CURVE SMOOTH",
"210 326 OFFCURVE",
"210 331 OFFCURVE",
"214 337 CURVE SMOOTH",
"219 347 OFFCURVE",
"238 362 OFFCURVE",
"255 371 CURVE SMOOTH",
"270 378 OFFCURVE",
"274 379 OFFCURVE",
"285 379 CURVE SMOOTH",
"295 380 OFFCURVE",
"299 379 OFFCURVE",
"308 374 CURVE SMOOTH",
"319 367 OFFCURVE",
"321 365 OFFCURVE",
"329 349 CURVE SMOOTH",
"334 339 LINE",
"334 259 LINE SMOOTH",
"333 165 OFFCURVE",
"331 82 OFFCURVE",
"329 53 CURVE SMOOTH",
"328 29 OFFCURVE",
"328 11 OFFCURVE",
"331 7 CURVE SMOOTH",
"336 2 OFFCURVE",
"346 0 OFFCURVE",
"376 1 CURVE SMOOTH",
"393 2 OFFCURVE",
"427 1 OFFCURVE",
"452 0 CURVE SMOOTH",
"477 0 OFFCURVE",
"501 0 OFFCURVE",
"504 1 CURVE SMOOTH",
"508 2 OFFCURVE",
"512 5 OFFCURVE",
"515 10 CURVE SMOOTH",
"520 17 LINE",
"519 76 LINE SMOOTH",
"518 108 OFFCURVE",
"517 163 OFFCURVE",
"518 199 CURVE SMOOTH",
"519 292 OFFCURVE",
"518 350 OFFCURVE",
"516 371 CURVE SMOOTH",
"514 396 OFFCURVE",
"507 423 OFFCURVE",
"499 437 CURVE SMOOTH",
"491 451 OFFCURVE",
"466 476 OFFCURVE",
"452 482 CURVE SMOOTH",
"430 494 OFFCURVE",
"407 501 OFFCURVE",
"391 503 CURVE SMOOTH",
"382 503 OFFCURVE",
"371 504 OFFCURVE",
"366 505 CURVE SMOOTH",
"361 505 OFFCURVE",
"356 505 OFFCURVE",
"355 504 CURVE SMOOTH"
);
}
);
width = 540;
}
);
unicode = 006E;
},
{
glyphname = o;
lastChange = "2015-06-01 20:23:06 +0000";
layers = (
{
layerId = "258ED206-D907-4350-8EBA-CBDDA1C16BF7";
name = Regular;
paths = (
{
closed = 1;
nodes = (
"227 502 OFFCURVE",
"212 500 OFFCURVE",
"208 499 CURVE SMOOTH",
"198 497 OFFCURVE",
"176 488 OFFCURVE",
"172 486 CURVE SMOOTH",
"170 484 OFFCURVE",
"166 483 OFFCURVE",
"164 483 CURVE SMOOTH",
"161 483 OFFCURVE",
"154 479 OFFCURVE",
"148 475 CURVE SMOOTH",
"142 471 OFFCURVE",
"136 467 OFFCURVE",
"135 467 CURVE SMOOTH",
"128 467 OFFCURVE",
"82 424 OFFCURVE",
"69 405 CURVE SMOOTH",
"65 400 OFFCURVE",
"60 393 OFFCURVE",
"57 390 CURVE SMOOTH",
"54 386 OFFCURVE",
"51 380 OFFCURVE",
"51 377 CURVE SMOOTH",
"50 373 OFFCURVE",
"46 366 OFFCURVE",
"42 361 CURVE SMOOTH",
"28 342 OFFCURVE",
"20 304 OFFCURVE",
"20 256 CURVE SMOOTH",
"20 228 OFFCURVE",
"22 210 OFFCURVE",
"28 176 CURVE SMOOTH",
"31 163 OFFCURVE",
"44 132 OFFCURVE",
"51 121 CURVE SMOOTH",
"54 117 OFFCURVE",
"59 108 OFFCURVE",
"63 101 CURVE SMOOTH",
"73 83 OFFCURVE",
"114 43 OFFCURVE",
"138 28 CURVE SMOOTH",
"144 24 OFFCURVE",
"177 9 OFFCURVE",
"180 9 CURVE SMOOTH",
"181 9 OFFCURVE",
"186 7 OFFCURVE",
"190 5 CURVE SMOOTH",
"205 -3 OFFCURVE",
"252 -9 OFFCURVE",
"292 -8 CURVE SMOOTH",
"313 -7 OFFCURVE",
"320 -6 OFFCURVE",
"351 1 CURVE SMOOTH",
"359 3 OFFCURVE",
"372 6 OFFCURVE",
"378 8 CURVE SMOOTH",
"391 11 OFFCURVE",
"393 11 OFFCURVE",
"422 26 CURVE SMOOTH",
"444 37 OFFCURVE",
"453 44 OFFCURVE",
"472 61 CURVE SMOOTH",
"488 77 OFFCURVE",
"525 128 OFFCURVE",
"525 135 CURVE SMOOTH",
"525 136 OFFCURVE",
"528 141 OFFCURVE",
"530 147 CURVE SMOOTH",
"537 159 OFFCURVE",
"544 187 OFFCURVE",
"547 209 CURVE SMOOTH",
"550 232 OFFCURVE",
"550 281 OFFCURVE",
"547 292 CURVE SMOOTH",
"544 303 OFFCURVE",
"539 322 OFFCURVE",
"537 333 CURVE SMOOTH",
"536 339 OFFCURVE",
"531 350 OFFCURVE",
"527 358 CURVE SMOOTH",
"522 366 OFFCURVE",
"517 375 OFFCURVE",
"517 377 CURVE SMOOTH",
"514 384 OFFCURVE",
"498 414 OFFCURVE",
"493 422 CURVE SMOOTH",
"490 425 OFFCURVE",
"484 431 OFFCURVE",
"479 435 CURVE SMOOTH",
"474 439 OFFCURVE",
"465 445 OFFCURVE",
"460 450 CURVE SMOOTH",
"446 461 OFFCURVE",
"416 481 OFFCURVE",
"407 484 CURVE SMOOTH",
"402 485 OFFCURVE",
"396 488 OFFCURVE",
"393 490 CURVE SMOOTH",
"389 492 OFFCURVE",
"382 495 OFFCURVE",
"378 496 CURVE SMOOTH",
"374 496 OFFCURVE",
"368 498 OFFCURVE",
"365 499 CURVE SMOOTH",
"357 503 OFFCURVE",
"317 508 OFFCURVE",
"294 508 CURVE SMOOTH",
"282 507 OFFCURVE",
"260 506 OFFCURVE",
"244 504 CURVE SMOOTH"
);
},
{
closed = 1;
nodes = (
"328 379 OFFCURVE",
"342 364 OFFCURVE",
"342 360 CURVE SMOOTH",
"342 359 OFFCURVE",
"344 356 OFFCURVE",
"346 354 CURVE SMOOTH",
"352 345 OFFCURVE",
"358 311 OFFCURVE",
"359 277 CURVE SMOOTH",
"359 222 OFFCURVE",
"354 164 OFFCURVE",
"347 148 CURVE SMOOTH",
"342 138 OFFCURVE",
"325 121 OFFCURVE",
"317 116 CURVE SMOOTH",
"301 108 OFFCURVE",
"270 108 OFFCURVE",
"255 115 CURVE SMOOTH",
"246 120 OFFCURVE",
"231 137 OFFCURVE",
"225 148 CURVE SMOOTH",
"217 166 OFFCURVE",
"215 179 OFFCURVE",
"214 236 CURVE SMOOTH",
"212 298 OFFCURVE",
"215 329 OFFCURVE",
"223 347 CURVE SMOOTH",
"224 349 OFFCURVE",
"226 354 OFFCURVE",
"228 358 CURVE SMOOTH",
"231 367 OFFCURVE",
"241 378 OFFCURVE",
"253 386 CURVE SMOOTH",
"263 393 LINE",
"285 393 LINE SMOOTH",
"307 392 OFFCURVE",
"308 392 OFFCURVE",
"318 385 CURVE SMOOTH"
);
}
);
width = 569;
}
);
unicode = 006F;
},
{
glyphname = p;
lastChange = "2015-06-01 20:23:06 +0000";
layers = (
{
layerId = "258ED206-D907-4350-8EBA-CBDDA1C16BF7";
name = Regular;
paths = (
{
closed = 1;
nodes = (
"332 503 OFFCURVE",
"323 502 OFFCURVE",
"313 501 CURVE SMOOTH",
"300 499 OFFCURVE",
"291 497 OFFCURVE",
"279 491 CURVE SMOOTH",
"256 481 OFFCURVE",
"240 473 OFFCURVE",
"237 470 CURVE SMOOTH",
"232 463 OFFCURVE",
"214 451 OFFCURVE",
"209 452 CURVE SMOOTH",
"205 452 OFFCURVE",
"205 453 OFFCURVE",
"204 470 CURVE SMOOTH",
"204 501 OFFCURVE",
"204 501 OFFCURVE",
"108 500 CURVE SMOOTH",
"33 499 OFFCURVE",
"32 499 OFFCURVE",
"26 488 CURVE SMOOTH",
"23 483 OFFCURVE",
"20 426 OFFCURVE",
"20 358 CURVE SMOOTH",
"21 263 OFFCURVE",
"22 26 OFFCURVE",
"22 21 CURVE SMOOTH",
"22 18 OFFCURVE",
"22 6 OFFCURVE",
"21 -7 CURVE SMOOTH",
"19 -44 OFFCURVE",
"20 -134 OFFCURVE",
"22 -140 CURVE SMOOTH",
"28 -155 OFFCURVE",
"35 -157 OFFCURVE",
"84 -157 CURVE SMOOTH",
"187 -156 OFFCURVE",
"188 -156 OFFCURVE",
"195 -151 CURVE SMOOTH",
"199 -149 OFFCURVE",
"202 -145 OFFCURVE",
"203 -142 CURVE SMOOTH",
"204 -140 OFFCURVE",
"204 -121 OFFCURVE",
"204 -99 CURVE SMOOTH",
"203 -77 OFFCURVE",
"202 -57 OFFCURVE",
"203 -54 CURVE SMOOTH",
"203 -51 OFFCURVE",
"204 -28 OFFCURVE",
"204 -2 CURVE SMOOTH",
"204 30 OFFCURVE",
"205 45 OFFCURVE",
"206 47 CURVE SMOOTH",
"208 50 OFFCURVE",
"211 49 OFFCURVE",
"226 37 CURVE SMOOTH",
"235 30 OFFCURVE",
"243 24 OFFCURVE",
"244 24 CURVE SMOOTH",
"245 24 OFFCURVE",
"251 21 OFFCURVE",
"257 18 CURVE SMOOTH",
"281 3 OFFCURVE",
"314 -5 OFFCURVE",
"343 -5 CURVE SMOOTH",
"365 -4 OFFCURVE",
"379 -2 OFFCURVE",
"402 5 CURVE SMOOTH",
"435 16 OFFCURVE",
"444 22 OFFCURVE",
"472 50 CURVE SMOOTH",
"493 70 OFFCURVE",
"504 85 OFFCURVE",
"510 99 CURVE SMOOTH",
"512 104 OFFCURVE",
"515 111 OFFCURVE",
"516 114 CURVE SMOOTH",
"521 123 OFFCURVE",
"530 158 OFFCURVE",
"534 179 CURVE SMOOTH",
"538 208 OFFCURVE",
"538 298 OFFCURVE",
"533 307 CURVE SMOOTH",
"532 309 OFFCURVE",
"531 317 OFFCURVE",
"531 325 CURVE SMOOTH",
"531 353 OFFCURVE",
"519 391 OFFCURVE",
"501 419 CURVE SMOOTH",
"495 429 OFFCURVE",
"480 444 OFFCURVE",
"453 470 CURVE SMOOTH",
"440 482 OFFCURVE",
"410 495 OFFCURVE",
"383 501 CURVE SMOOTH",
"366 505 OFFCURVE",
"338 507 OFFCURVE",
"334 504 CURVE SMOOTH"
);
},
{
closed = 1;
nodes = (
"306 393 OFFCURVE",
"322 380 OFFCURVE",
"332 360 CURVE SMOOTH",
"337 350 OFFCURVE",
"340 340 OFFCURVE",
"342 331 CURVE SMOOTH",
"344 314 OFFCURVE",
"348 256 OFFCURVE",
"347 250 CURVE SMOOTH",
"346 248 OFFCURVE",
"345 234 OFFCURVE",
"345 219 CURVE SMOOTH",
"344 205 OFFCURVE",
"344 191 OFFCURVE",
"343 187 CURVE SMOOTH",
"342 184 OFFCURVE",
"341 178 OFFCURVE",
"341 173 CURVE SMOOTH",
"338 156 OFFCURVE",
"334 145 OFFCURVE",
"325 131 CURVE SMOOTH",
"320 123 OFFCURVE",
"313 116 OFFCURVE",
"309 114 CURVE SMOOTH",
"300 109 OFFCURVE",
"279 100 OFFCURVE",
"276 100 CURVE SMOOTH",
"274 100 OFFCURVE",
"264 103 OFFCURVE",
"254 107 CURVE SMOOTH",
"227 117 OFFCURVE",
"202 137 OFFCURVE",
"204 146 CURVE SMOOTH",
"205 149 OFFCURVE",
"206 196 OFFCURVE",
"206 252 CURVE SMOOTH",
"207 308 OFFCURVE",
"208 356 OFFCURVE",
"209 358 CURVE SMOOTH",
"212 370 OFFCURVE",
"231 386 OFFCURVE",
"250 392 CURVE SMOOTH",
"263 397 OFFCURVE",
"274 398 OFFCURVE",
"290 395 CURVE SMOOTH"
);
}
);
width = 557;
}
);
unicode = 0070;
},
{
glyphname = q;
lastChange = "2015-06-01 20:23:06 +0000";
layers = (
{
layerId = "258ED206-D907-4350-8EBA-CBDDA1C16BF7";
name = Regular;
paths = (
{
closed = 1;
nodes = (
"188 499 OFFCURVE",
"170 495 OFFCURVE",
"148 484 CURVE SMOOTH",
"104 462 OFFCURVE",
"83 444 OFFCURVE",
"62 410 CURVE SMOOTH",
"60 407 OFFCURVE",
"57 402 OFFCURVE",
"54 398 CURVE SMOOTH",
"50 392 OFFCURVE",
"37 363 OFFCURVE",
"31 342 CURVE SMOOTH",
"24 323 OFFCURVE",
"19 250 OFFCURVE",
"20 207 CURVE SMOOTH",
"22 155 OFFCURVE",
"28 133 OFFCURVE",
"54 83 CURVE SMOOTH",
"64 65 OFFCURVE",
"83 43 OFFCURVE",
"100 30 CURVE SMOOTH",
"106 25 OFFCURVE",
"112 21 OFFCURVE",
"112 21 CURVE SMOOTH",
"112 21 OFFCURVE",
"121 17 OFFCURVE",
"130 11 CURVE SMOOTH",
"141 5 OFFCURVE",
"151 1 OFFCURVE",
"158 -1 CURVE SMOOTH",
"164 -2 OFFCURVE",
"173 -4 OFFCURVE",
"179 -6 CURVE SMOOTH",
"186 -8 OFFCURVE",
"195 -9 OFFCURVE",
"213 -9 CURVE SMOOTH",
"234 -9 OFFCURVE",
"240 -8 OFFCURVE",
"258 -3 CURVE SMOOTH",
"285 5 OFFCURVE",
"296 11 OFFCURVE",
"336 37 CURVE SMOOTH",
"349 46 OFFCURVE",
"350 45 OFFCURVE",
"351 9 CURVE SMOOTH",
"351 -7 OFFCURVE",
"352 -25 OFFCURVE",
"352 -31 CURVE SMOOTH",
"352 -49 OFFCURVE",
"349 -128 OFFCURVE",
"348 -135 CURVE SMOOTH",
"347 -145 OFFCURVE",
"352 -154 OFFCURVE",
"363 -156 CURVE SMOOTH",
"374 -159 OFFCURVE",
"520 -158 OFFCURVE",
"527 -155 CURVE SMOOTH",
"538 -149 OFFCURVE",
"538 -148 OFFCURVE",
"539 -64 CURVE SMOOTH",
"539 -22 OFFCURVE",
"539 19 OFFCURVE",
"539 28 CURVE SMOOTH",
"539 37 OFFCURVE",
"539 46 OFFCURVE",
"539 49 CURVE SMOOTH",
"539 53 OFFCURVE",
"539 109 OFFCURVE",
"539 175 CURVE SMOOTH",
"539 345 OFFCURVE",
"540 447 OFFCURVE",
"542 460 CURVE SMOOTH",
"543 469 OFFCURVE",
"543 475 OFFCURVE",
"539 490 CURVE SMOOTH",
"539 492 OFFCURVE",
"536 496 OFFCURVE",
"532 498 CURVE SMOOTH",
"527 501 OFFCURVE",
"523 501 OFFCURVE",
"479 500 CURVE SMOOTH",
"429 498 OFFCURVE",
"422 497 OFFCURVE",
"417 489 CURVE SMOOTH",
"415 486 OFFCURVE",
"412 477 OFFCURVE",
"410 469 CURVE SMOOTH",
"401 435 OFFCURVE",
"398 427 OFFCURVE",
"394 427 CURVE SMOOTH",
"393 427 OFFCURVE",
"385 433 OFFCURVE",
"378 440 CURVE SMOOTH",
"351 466 OFFCURVE",
"327 480 OFFCURVE",
"295 491 CURVE SMOOTH",
"275 498 OFFCURVE",
"267 499 OFFCURVE",
"248 501 CURVE SMOOTH",
"245 502 OFFCURVE",
"232 501 OFFCURVE",
"219 501 CURVE SMOOTH"
);
},
{
closed = 1;
nodes = (
"318 397 OFFCURVE",
"329 389 OFFCURVE",
"337 375 CURVE SMOOTH",
"352 352 OFFCURVE",
"352 353 OFFCURVE",
"352 238 CURVE SMOOTH",
"351 171 OFFCURVE",
"351 135 OFFCURVE",
"349 132 CURVE SMOOTH",
"346 126 OFFCURVE",
"315 109 OFFCURVE",
"302 107 CURVE SMOOTH",
"299 107 OFFCURVE",
"294 105 OFFCURVE",
"293 104 CURVE SMOOTH",
"289 101 OFFCURVE",
"267 104 OFFCURVE",
"258 109 CURVE SMOOTH",
"239 119 OFFCURVE",
"226 137 OFFCURVE",
"222 162 CURVE SMOOTH",
"214 200 OFFCURVE",
"214 204 OFFCURVE",
"215 257 CURVE SMOOTH",
"216 314 OFFCURVE",
"219 333 OFFCURVE",
"226 353 CURVE SMOOTH",
"231 364 OFFCURVE",
"243 384 OFFCURVE",
"247 386 CURVE SMOOTH",
"248 386 OFFCURVE",
"250 388 OFFCURVE",
"251 389 CURVE SMOOTH",
"264 402 OFFCURVE",
"281 405 OFFCURVE",
"306 400 CURVE SMOOTH"
);
}
);
width = 563;
}
);
unicode = 0071;
},
{
glyphname = r;
lastChange = "2015-06-01 20:23:06 +0000";
layers = (
{
layerId = "258ED206-D907-4350-8EBA-CBDDA1C16BF7";
name = Regular;
paths = (
{
closed = 1;
nodes = (
"352 505 OFFCURVE",
"346 503 OFFCURVE",
"342 502 CURVE SMOOTH",
"327 500 OFFCURVE",
"280 480 OFFCURVE",
"270 472 CURVE SMOOTH",
"265 468 OFFCURVE",
"259 464 OFFCURVE",
"256 462 CURVE SMOOTH",
"248 458 OFFCURVE",
"223 433 OFFCURVE",
"219 426 CURVE SMOOTH",
"217 421 OFFCURVE",
"215 420 OFFCURVE",
"211 420 CURVE SMOOTH",
"204 420 OFFCURVE",
"204 421 OFFCURVE",
"204 469 CURVE SMOOTH",
"204 492 OFFCURVE",
"203 500 OFFCURVE",
"198 503 CURVE SMOOTH",
"196 505 OFFCURVE",
"54 504 OFFCURVE",
"47 502 CURVE SMOOTH",
"37 500 OFFCURVE",
"24 492 OFFCURVE",
"22 487 CURVE SMOOTH",
"20 484 OFFCURVE",
"20 464 OFFCURVE",
"20 418 CURVE SMOOTH",
"21 383 OFFCURVE",
"21 293 OFFCURVE",
"21 219 CURVE SMOOTH",
"20 13 OFFCURVE",
"20 20 OFFCURVE",
"30 10 CURVE SMOOTH",
"41 0 OFFCURVE",
"45 0 OFFCURVE",
"139 0 CURVE SMOOTH",
"195 0 OFFCURVE",
"195 0 OFFCURVE",
"202 5 CURVE SMOOTH",
"214 13 OFFCURVE",
"215 16 OFFCURVE",
"213 66 CURVE SMOOTH",
"212 91 OFFCURVE",
"211 114 OFFCURVE",
"212 119 CURVE SMOOTH",
"213 124 OFFCURVE",
"213 153 OFFCURVE",
"212 185 CURVE SMOOTH",
"209 300 OFFCURVE",
"210 304 OFFCURVE",
"224 318 CURVE SMOOTH",
"234 328 OFFCURVE",
"240 332 OFFCURVE",
"259 340 CURVE SMOOTH",
"269 345 OFFCURVE",
"275 346 OFFCURVE",
"289 346 CURVE SMOOTH",
"309 347 OFFCURVE",
"333 344 OFFCURVE",
"349 340 CURVE SMOOTH",
"372 334 OFFCURVE",
"391 331 OFFCURVE",
"395 332 CURVE SMOOTH",
"397 333 OFFCURVE",
"401 336 OFFCURVE",
"403 339 CURVE SMOOTH",
"406 344 OFFCURVE",
"406 350 OFFCURVE",
"406 418 CURVE SMOOTH",
"406 458 OFFCURVE",
"405 493 OFFCURVE",
"405 496 CURVE SMOOTH",
"402 505 OFFCURVE",
"393 509 OFFCURVE",
"375 509 CURVE SMOOTH",
"365 509 OFFCURVE",
"358 508 OFFCURVE",
"355 506 CURVE SMOOTH"
);
},
{
closed = 1;
nodes = (
"388 337 OFFCURVE",
"383 337 OFFCURVE",
"379 340 CURVE SMOOTH",
"376 342 OFFCURVE",
"376 344 OFFCURVE",
"378 347 CURVE SMOOTH",
"380 351 LINE",
"384 347 LINE SMOOTH",
"386 344 OFFCURVE",
"388 341 OFFCURVE",
"388 340 CURVE SMOOTH"
);
}
);
width = 426;
}
);
unicode = 0072;
},
{
glyphname = s;
lastChange = "2015-06-01 20:23:06 +0000";
layers = (
{
layerId = "258ED206-D907-4350-8EBA-CBDDA1C16BF7";
name = Regular;
paths = (
{
closed = 1;
nodes = (
"234 509 OFFCURVE",
"221 508 OFFCURVE",
"216 507 CURVE SMOOTH",
"211 507 OFFCURVE",
"206 507 OFFCURVE",
"203 508 CURVE SMOOTH",
"200 510 OFFCURVE",
"198 510 OFFCURVE",
"193 508 CURVE SMOOTH",
"190 506 OFFCURVE",
"185 505 OFFCURVE",
"183 505 CURVE SMOOTH",
"180 505 OFFCURVE",
"173 502 OFFCURVE",
"167 500 CURVE SMOOTH",
"161 497 OFFCURVE",
"154 495 OFFCURVE",
"151 495 CURVE SMOOTH",
"145 495 OFFCURVE",
"107 477 OFFCURVE",
"104 473 CURVE SMOOTH",
"104 472 OFFCURVE",
"100 470 OFFCURVE",
"96 467 CURVE SMOOTH",
"83 461 OFFCURVE",
"56 428 OFFCURVE",
"47 409 CURVE SMOOTH",
"42 400 OFFCURVE",
"38 391 OFFCURVE",
"37 389 CURVE SMOOTH",
"29 374 OFFCURVE",
"26 361 OFFCURVE",
"27 336 CURVE SMOOTH",
"27 313 OFFCURVE",
"27 309 OFFCURVE",
"33 292 CURVE SMOOTH",
"42 263 OFFCURVE",
"63 238 OFFCURVE",
"90 222 CURVE SMOOTH",
"109 210 OFFCURVE",
"135 199 OFFCURVE",
"144 197 CURVE SMOOTH",
"148 196 OFFCURVE",
"153 195 OFFCURVE",
"154 194 CURVE SMOOTH",
"160 191 OFFCURVE",
"194 183 OFFCURVE",
"204 182 CURVE SMOOTH",
"210 182 OFFCURVE",
"216 180 OFFCURVE",
"219 179 CURVE SMOOTH",
"221 178 OFFCURVE",
"230 176 OFFCURVE",
"240 176 CURVE SMOOTH",
"267 175 OFFCURVE",
"297 171 OFFCURVE",
"307 168 CURVE SMOOTH",
"338 159 OFFCURVE",
"344 153 OFFCURVE",
"338 138 CURVE SMOOTH",
"334 124 OFFCURVE",
"330 121 OFFCURVE",
"319 116 CURVE SMOOTH",
"307 110 OFFCURVE",
"280 107 OFFCURVE",
"262 108 CURVE SMOOTH",
"255 108 OFFCURVE",
"247 108 OFFCURVE",
"245 107 CURVE SMOOTH",
"241 105 OFFCURVE",
"238 106 OFFCURVE",
"233 108 CURVE SMOOTH",
"229 109 OFFCURVE",
"220 111 OFFCURVE",
"214 113 CURVE SMOOTH",
"207 114 OFFCURVE",
"201 116 OFFCURVE",
"200 116 CURVE SMOOTH",
"199 117 OFFCURVE",
"192 120 OFFCURVE",
"184 122 CURVE SMOOTH",
"163 129 OFFCURVE",
"152 135 OFFCURVE",
"144 147 CURVE SMOOTH",
"134 162 OFFCURVE",
"129 165 OFFCURVE",
"118 162 CURVE SMOOTH",
"113 160 OFFCURVE",
"105 157 OFFCURVE",
"101 155 CURVE SMOOTH",
"98 152 OFFCURVE",
"91 149 OFFCURVE",
"87 148 CURVE SMOOTH",
"83 147 OFFCURVE",
"75 143 OFFCURVE",
"70 140 CURVE SMOOTH",
"58 132 OFFCURVE",
"57 131 OFFCURVE",
"41 124 CURVE SMOOTH",
"16 112 OFFCURVE",
"14 100 OFFCURVE",
"31 77 CURVE SMOOTH",
"57 44 OFFCURVE",
"85 23 OFFCURVE",
"124 11 CURVE SMOOTH",
"144 4 OFFCURVE",
"171 -2 OFFCURVE",
"180 -2 CURVE SMOOTH",
"183 -2 OFFCURVE",
"188 -4 OFFCURVE",
"193 -5 CURVE SMOOTH",
"200 -8 OFFCURVE",
"209 -8 OFFCURVE",
"253 -8 CURVE SMOOTH",
"306 -7 OFFCURVE",
"326 -5 OFFCURVE",
"346 1 CURVE SMOOTH",
"353 2 OFFCURVE",
"361 5 OFFCURVE",
"366 6 CURVE SMOOTH",
"383 10 OFFCURVE",
"399 16 OFFCURVE",
"408 22 CURVE SMOOTH",
"413 25 OFFCURVE",
"420 30 OFFCURVE",
"425 32 CURVE SMOOTH",
"444 41 OFFCURVE",
"454 49 OFFCURVE",
"469 67 CURVE SMOOTH",
"496 98 OFFCURVE",
"505 122 OFFCURVE",
"505 158 CURVE SMOOTH",
"505 179 OFFCURVE",
"499 216 OFFCURVE",
"493 226 CURVE SMOOTH",
"487 239 OFFCURVE",
"461 269 OFFCURVE",
"455 273 CURVE SMOOTH",
"451 275 OFFCURVE",
"444 279 OFFCURVE",
"440 284 CURVE SMOOTH",
"431 292 OFFCURVE",
"402 305 OFFCURVE",
"368 316 CURVE SMOOTH",
"356 320 OFFCURVE",
"345 324 OFFCURVE",
"344 325 CURVE SMOOTH",
"342 327 OFFCURVE",
"302 335 OFFCURVE",
"294 335 CURVE SMOOTH",
"291 335 OFFCURVE",
"281 336 OFFCURVE",
"272 338 CURVE SMOOTH",
"264 339 OFFCURVE",
"256 340 OFFCURVE",
"256 340 CURVE SMOOTH",
"253 338 OFFCURVE",
"231 342 OFFCURVE",
"216 347 CURVE SMOOTH",
"202 351 OFFCURVE",
"191 359 OFFCURVE",
"191 366 CURVE SMOOTH",
"191 372 OFFCURVE",
"200 386 OFFCURVE",
"206 388 CURVE SMOOTH",
"209 389 OFFCURVE",
"215 392 OFFCURVE",
"219 394 CURVE SMOOTH",
"226 398 OFFCURVE",
"230 398 OFFCURVE",
"253 398 CURVE SMOOTH",
"267 398 OFFCURVE",
"283 397 OFFCURVE",
"289 397 CURVE SMOOTH",
"306 395 OFFCURVE",
"326 385 OFFCURVE",
"347 366 CURVE SMOOTH",
"371 345 OFFCURVE",
"372 345 OFFCURVE",
"413 367 CURVE SMOOTH",
"416 368 OFFCURVE",
"428 374 OFFCURVE",
"440 380 CURVE SMOOTH",
"477 398 OFFCURVE",
"481 406 OFFCURVE",
"466 428 CURVE SMOOTH",
"453 445 OFFCURVE",
"431 464 OFFCURVE",
"416 471 CURVE SMOOTH",
"409 475 OFFCURVE",
"401 480 OFFCURVE",
"398 482 CURVE SMOOTH",
"396 485 OFFCURVE",
"392 487 OFFCURVE",
"390 487 CURVE SMOOTH",
"387 487 OFFCURVE",
"383 488 OFFCURVE",
"380 490 CURVE SMOOTH",
"371 494 OFFCURVE",
"349 501 OFFCURVE",
"344 501 CURVE SMOOTH",
"342 501 OFFCURVE",
"336 502 OFFCURVE",
"331 504 CURVE SMOOTH",
"326 505 OFFCURVE",
"317 506 OFFCURVE",
"313 506 CURVE SMOOTH",
"308 506 OFFCURVE",
"299 508 OFFCURVE",
"293 509 CURVE SMOOTH",
"282 512 OFFCURVE",
"275 513 OFFCURVE",
"244 510 CURVE SMOOTH"
);
}
);
width = 525;
}
);
unicode = 0073;
},
{
glyphname = t;
lastChange = "2015-06-01 20:23:06 +0000";
layers = (
{
layerId = "258ED206-D907-4350-8EBA-CBDDA1C16BF7";
name = Regular;
paths = (
{
closed = 1;
nodes = (
"236 669 OFFCURVE",
"223 669 OFFCURVE",
"212 669 CURVE SMOOTH",
"184 671 OFFCURVE",
"148 671 OFFCURVE",
"142 669 CURVE SMOOTH",
"131 666 OFFCURVE",
"127 649 OFFCURVE",
"123 588 CURVE SMOOTH",
"117 507 OFFCURVE",
"118 511 OFFCURVE",
"113 506 CURVE SMOOTH",
"107 500 OFFCURVE",
"91 498 OFFCURVE",
"75 501 CURVE SMOOTH",
"68 503 OFFCURVE",
"57 503 OFFCURVE",
"46 502 CURVE SMOOTH",
"20 500 OFFCURVE",
"21 502 OFFCURVE",
"20 442 CURVE SMOOTH",
"20 396 OFFCURVE",
"20 393 OFFCURVE",
"24 387 CURVE SMOOTH",
"28 379 OFFCURVE",
"36 376 OFFCURVE",
"46 378 CURVE SMOOTH",
"50 378 OFFCURVE",
"64 379 OFFCURVE",
"77 379 CURVE SMOOTH",
"111 380 OFFCURVE",
"108 387 OFFCURVE",
"107 303 CURVE SMOOTH",
"106 134 OFFCURVE",
"106 116 OFFCURVE",
"111 95 CURVE SMOOTH",
"114 84 OFFCURVE",
"117 74 OFFCURVE",
"118 73 CURVE SMOOTH",
"120 71 OFFCURVE",
"122 67 OFFCURVE",
"124 63 CURVE SMOOTH",
"134 42 OFFCURVE",
"174 17 OFFCURVE",
"208 9 CURVE SMOOTH",
"226 4 OFFCURVE",
"281 0 OFFCURVE",
"307 0 CURVE SMOOTH",
"327 0 OFFCURVE",
"388 6 OFFCURVE",
"397 9 CURVE SMOOTH",
"401 10 OFFCURVE",
"406 14 OFFCURVE",
"408 17 CURVE SMOOTH",
"412 22 OFFCURVE",
"413 24 OFFCURVE",
"412 70 CURVE SMOOTH",
"412 115 OFFCURVE",
"412 118 OFFCURVE",
"408 122 CURVE SMOOTH",
"404 126 OFFCURVE",
"391 130 OFFCURVE",
"382 129 CURVE SMOOTH",
"356 129 OFFCURVE",
"344 129 OFFCURVE",
"329 133 CURVE SMOOTH",
"311 138 OFFCURVE",
"303 143 OFFCURVE",
"295 156 CURVE SMOOTH",
"290 164 OFFCURVE",
"290 167 OFFCURVE",
"290 182 CURVE SMOOTH",
"292 348 OFFCURVE",
"293 375 OFFCURVE",
"298 379 CURVE SMOOTH",
"301 381 OFFCURVE",
"303 381 OFFCURVE",
"361 381 CURVE SMOOTH",
"404 380 OFFCURVE",
"408 381 OFFCURVE",
"412 390 CURVE SMOOTH",
"414 396 OFFCURVE",
"414 470 OFFCURVE",
"412 485 CURVE SMOOTH",
"410 498 OFFCURVE",
"398 503 OFFCURVE",
"377 500 CURVE SMOOTH",
"370 499 OFFCURVE",
"358 499 OFFCURVE",
"350 499 CURVE SMOOTH",
"343 500 OFFCURVE",
"327 500 OFFCURVE",
"315 500 CURVE SMOOTH",
"296 501 OFFCURVE",
"294 501 OFFCURVE",
"293 505 CURVE SMOOTH",
"292 507 OFFCURVE",
"292 519 OFFCURVE",
"292 532 CURVE SMOOTH",
"292 545 OFFCURVE",
"293 569 OFFCURVE",
"293 586 CURVE SMOOTH",
"293 602 OFFCURVE",
"294 620 OFFCURVE",
"295 625 CURVE SMOOTH",
"296 631 OFFCURVE",
"296 636 OFFCURVE",
"295 644 CURVE SMOOTH",
"293 654 OFFCURVE",
"291 657 OFFCURVE",
"283 664 CURVE SMOOTH",
"274 673 OFFCURVE",
"273 673 OFFCURVE",
"264 673 CURVE SMOOTH",
"259 673 OFFCURVE",
"249 672 OFFCURVE",
"243 670 CURVE SMOOTH"
);
},
{
closed = 1;
nodes = (
"273 653 OFFCURVE",
"272 652 OFFCURVE",
"272 652 CURVE SMOOTH",
"272 652 OFFCURVE",
"271 653 OFFCURVE",
"271 655 CURVE SMOOTH",
"271 656 OFFCURVE",
"272 658 OFFCURVE",
"273 658 CURVE SMOOTH",
"274 658 OFFCURVE",
"274 656 OFFCURVE",
"274 655 CURVE SMOOTH"
);
}
);
width = 434;
}
);
unicode = 0074;
},
{
glyphname = u;
lastChange = "2015-06-01 20:23:06 +0000";
layers = (
{
layerId = "258ED206-D907-4350-8EBA-CBDDA1C16BF7";
name = Regular;
paths = (
{
closed = 1;
nodes = (
"38 506 OFFCURVE",
"30 504 OFFCURVE",
"29 503 CURVE SMOOTH",
"21 499 OFFCURVE",
"21 496 OFFCURVE",
"21 367 CURVE SMOOTH",
"21 298 OFFCURVE",
"20 216 OFFCURVE",
"20 185 CURVE SMOOTH",
"20 129 OFFCURVE",
"20 128 OFFCURVE",
"25 105 CURVE SMOOTH",
"37 56 OFFCURVE",
"55 34 OFFCURVE",
"102 12 CURVE SMOOTH",
"121 3 OFFCURVE",
"126 1 OFFCURVE",
"148 0 CURVE SMOOTH",
"188 -1 OFFCURVE",
"220 3 OFFCURVE",
"246 15 CURVE SMOOTH",
"255 19 OFFCURVE",
"263 22 OFFCURVE",
"264 22 CURVE SMOOTH",
"265 22 OFFCURVE",
"267 24 OFFCURVE",
"268 25 CURVE SMOOTH",
"270 27 OFFCURVE",
"275 31 OFFCURVE",
"281 34 CURVE SMOOTH",
"286 37 OFFCURVE",
"298 47 OFFCURVE",
"308 56 CURVE SMOOTH",
"317 66 OFFCURVE",
"326 73 OFFCURVE",
"328 73 CURVE SMOOTH",
"332 73 OFFCURVE",
"333 68 OFFCURVE",
"333 43 CURVE SMOOTH",
"332 17 LINE",
"338 12 LINE SMOOTH",
"346 6 OFFCURVE",
"359 4 OFFCURVE",
"390 6 CURVE SMOOTH",
"417 8 OFFCURVE",
"413 8 OFFCURVE",
"444 6 CURVE SMOOTH",
"472 4 OFFCURVE",
"493 4 OFFCURVE",
"501 6 CURVE SMOOTH",
"506 8 OFFCURVE",
"508 10 OFFCURVE",
"512 18 CURVE SMOOTH",
"517 28 LINE",
"516 85 LINE SMOOTH",
"516 117 OFFCURVE",
"516 145 OFFCURVE",
"515 149 CURVE SMOOTH",
"514 153 OFFCURVE",
"515 162 OFFCURVE",
"517 172 CURVE SMOOTH",
"520 185 OFFCURVE",
"520 189 OFFCURVE",
"518 197 CURVE SMOOTH",
"517 202 OFFCURVE",
"516 208 OFFCURVE",
"517 210 CURVE SMOOTH",
"518 215 OFFCURVE",
"521 409 OFFCURVE",
"520 459 CURVE SMOOTH",
"520 477 OFFCURVE",
"519 492 OFFCURVE",
"518 494 CURVE SMOOTH",
"513 504 OFFCURVE",
"512 504 OFFCURVE",
"428 505 CURVE SMOOTH",
"385 505 OFFCURVE",
"347 505 OFFCURVE",
"344 504 CURVE SMOOTH",
"330 500 OFFCURVE",
"331 512 OFFCURVE",
"331 330 CURVE SMOOTH",
"331 167 LINE",
"322 158 LINE SMOOTH",
"309 147 OFFCURVE",
"294 137 OFFCURVE",
"279 131 CURVE SMOOTH",
"270 128 OFFCURVE",
"265 127 OFFCURVE",
"253 128 CURVE SMOOTH",
"236 130 OFFCURVE",
"233 131 OFFCURVE",
"221 144 CURVE SMOOTH",
"209 155 OFFCURVE",
"206 166 OFFCURVE",
"206 194 CURVE SMOOTH",
"206 206 OFFCURVE",
"206 216 OFFCURVE",
"207 217 CURVE SMOOTH",
"208 220 OFFCURVE",
"208 315 OFFCURVE",
"207 321 CURVE SMOOTH",
"206 324 OFFCURVE",
"207 332 OFFCURVE",
"209 338 CURVE SMOOTH",
"210 345 OFFCURVE",
"211 351 OFFCURVE",
"210 353 CURVE SMOOTH",
"210 354 OFFCURVE",
"209 386 OFFCURVE",
"210 425 CURVE SMOOTH",
"210 494 LINE",
"205 499 LINE SMOOTH",
"201 503 OFFCURVE",
"197 504 OFFCURVE",
"190 504 CURVE SMOOTH",
"185 504 OFFCURVE",
"171 505 OFFCURVE",
"157 505 CURVE SMOOTH",
"117 507 OFFCURVE",
"61 507 OFFCURVE",
"46 506 CURVE SMOOTH"
);
}
);
width = 540;
}
);
unicode = 0075;
},
{
glyphname = v;
lastChange = "2015-06-01 20:23:06 +0000";
layers = (
{
layerId = "258ED206-D907-4350-8EBA-CBDDA1C16BF7";
name = Regular;
paths = (
{
closed = 1;
nodes = (
"32 503 OFFCURVE",
"26 501 OFFCURVE",
"24 500 CURVE SMOOTH",
"19 495 OFFCURVE",
"19 484 OFFCURVE",
"23 473 CURVE SMOOTH",
"25 468 OFFCURVE",
"27 462 OFFCURVE",
"27 460 CURVE SMOOTH",
"27 458 OFFCURVE",
"30 451 OFFCURVE",
"33 444 CURVE SMOOTH",
"47 414 OFFCURVE",
"59 386 OFFCURVE",
"65 368 CURVE SMOOTH",
"68 359 OFFCURVE",
"72 349 OFFCURVE",
"74 346 CURVE SMOOTH",
"76 342 OFFCURVE",
"80 331 OFFCURVE",
"84 322 CURVE SMOOTH",
"87 313 OFFCURVE",
"92 301 OFFCURVE",
"94 296 CURVE SMOOTH",
"97 290 OFFCURVE",
"105 272 OFFCURVE",
"112 255 CURVE SMOOTH",
"119 238 OFFCURVE",
"127 220 OFFCURVE",
"129 215 CURVE SMOOTH",
"131 210 OFFCURVE",
"134 201 OFFCURVE",
"136 195 CURVE SMOOTH",
"140 186 OFFCURVE",
"149 163 OFFCURVE",
"168 116 CURVE SMOOTH",
"171 109 OFFCURVE",
"177 92 OFFCURVE",
"183 79 CURVE SMOOTH",
"188 66 OFFCURVE",
"193 54 OFFCURVE",
"193 52 CURVE SMOOTH",
"193 51 OFFCURVE",
"194 49 OFFCURVE",
"195 48 CURVE SMOOTH",
"196 47 OFFCURVE",
"199 41 OFFCURVE",
"201 33 CURVE SMOOTH",
"204 22 OFFCURVE",
"207 17 OFFCURVE",
"213 11 CURVE SMOOTH",
"224 1 OFFCURVE",
"230 0 OFFCURVE",
"272 2 CURVE SMOOTH",
"288 2 OFFCURVE",
"308 2 OFFCURVE",
"317 1 CURVE SMOOTH",
"331 -1 OFFCURVE",
"335 0 OFFCURVE",
"342 3 CURVE SMOOTH",
"346 5 OFFCURVE",
"352 8 OFFCURVE",
"354 10 CURVE SMOOTH",
"358 14 OFFCURVE",
"370 39 OFFCURVE",
"370 43 CURVE SMOOTH",
"370 45 OFFCURVE",
"372 49 OFFCURVE",
"374 53 CURVE SMOOTH",
"376 57 OFFCURVE",
"379 64 OFFCURVE",
"380 69 CURVE SMOOTH",
"381 73 OFFCURVE",
"384 79 OFFCURVE",
"385 81 CURVE SMOOTH",
"387 85 OFFCURVE",
"395 103 OFFCURVE",
"402 121 CURVE SMOOTH",
"404 127 OFFCURVE",
"407 134 OFFCURVE",
"409 136 CURVE SMOOTH",
"410 138 OFFCURVE",
"411 141 OFFCURVE",
"411 142 CURVE SMOOTH",
"411 144 OFFCURVE",
"413 149 OFFCURVE",
"415 153 CURVE SMOOTH",
"417 158 OFFCURVE",
"422 170 OFFCURVE",
"426 180 CURVE SMOOTH",
"430 190 OFFCURVE",
"435 203 OFFCURVE",
"438 208 CURVE SMOOTH",
"440 213 OFFCURVE",
"444 224 OFFCURVE",
"447 232 CURVE SMOOTH",
"454 251 OFFCURVE",
"460 264 OFFCURVE",
"469 285 CURVE SMOOTH",
"472 294 OFFCURVE",
"476 304 OFFCURVE",
"478 308 CURVE SMOOTH",
"480 317 OFFCURVE",
"494 348 OFFCURVE",
"509 381 CURVE SMOOTH",
"515 395 OFFCURVE",
"521 407 OFFCURVE",
"521 408 CURVE SMOOTH",
"521 410 OFFCURVE",
"528 428 OFFCURVE",
"535 441 CURVE SMOOTH",
"543 457 OFFCURVE",
"550 479 OFFCURVE",
"549 485 CURVE SMOOTH",
"548 487 OFFCURVE",
"545 492 OFFCURVE",
"542 495 CURVE SMOOTH",
"536 500 OFFCURVE",
"535 501 OFFCURVE",
"513 501 CURVE SMOOTH",
"501 501 OFFCURVE",
"475 502 OFFCURVE",
"455 502 CURVE SMOOTH",
"410 503 OFFCURVE",
"410 503 OFFCURVE",
"398 473 CURVE SMOOTH",
"390 454 OFFCURVE",
"386 442 OFFCURVE",
"374 408 CURVE SMOOTH",
"372 402 OFFCURVE",
"369 393 OFFCURVE",
"367 387 CURVE SMOOTH",
"366 382 OFFCURVE",
"363 373 OFFCURVE",
"360 367 CURVE SMOOTH",
"354 353 OFFCURVE",
"350 344 OFFCURVE",
"340 314 CURVE SMOOTH",
"336 301 OFFCURVE",
"330 286 OFFCURVE",
"327 281 CURVE SMOOTH",
"324 276 OFFCURVE",
"321 269 OFFCURVE",
"320 264 CURVE SMOOTH",
"318 256 OFFCURVE",
"313 252 OFFCURVE",
"309 256 CURVE SMOOTH",
"307 258 OFFCURVE",
"281 322 OFFCURVE",
"273 345 CURVE SMOOTH",
"270 353 OFFCURVE",
"265 367 OFFCURVE",
"262 376 CURVE SMOOTH",
"255 394 OFFCURVE",
"253 399 OFFCURVE",
"238 443 CURVE SMOOTH",
"223 484 OFFCURVE",
"218 496 OFFCURVE",
"212 499 CURVE SMOOTH",
"209 501 OFFCURVE",
"196 502 OFFCURVE",
"159 503 CURVE SMOOTH",
"132 503 OFFCURVE",
"96 504 OFFCURVE",
"80 504 CURVE SMOOTH",
"63 505 OFFCURVE",
"45 505 OFFCURVE",
"38 504 CURVE SMOOTH"
);
}
);
width = 569;
}
);
unicode = 0076;
},
{
glyphname = w;
lastChange = "2015-06-01 20:23:06 +0000";
layers = (
{
layerId = "258ED206-D907-4350-8EBA-CBDDA1C16BF7";
name = Regular;
paths = (
{
closed = 1;
nodes = (
"37 499 OFFCURVE",
"34 498 OFFCURVE",
"31 498 CURVE SMOOTH",
"28 497 OFFCURVE",
"24 494 OFFCURVE",
"22 492 CURVE SMOOTH",
"20 488 OFFCURVE",
"20 486 OFFCURVE",
"22 474 CURVE SMOOTH",
"25 460 OFFCURVE",
"38 420 OFFCURVE",
"41 415 CURVE SMOOTH",
"45 408 OFFCURVE",
"55 387 OFFCURVE",
"55 384 CURVE SMOOTH",
"55 383 OFFCURVE",
"58 373 OFFCURVE",
"62 361 CURVE SMOOTH",
"67 350 OFFCURVE",
"71 334 OFFCURVE",
"73 327 CURVE SMOOTH",
"74 320 OFFCURVE",
"78 310 OFFCURVE",
"81 304 CURVE SMOOTH",
"83 299 OFFCURVE",
"86 291 OFFCURVE",
"88 286 CURVE SMOOTH",
"89 281 OFFCURVE",
"93 269 OFFCURVE",
"97 260 CURVE SMOOTH",
"100 250 OFFCURVE",
"109 224 OFFCURVE",
"116 201 CURVE SMOOTH",
"123 178 OFFCURVE",
"130 158 OFFCURVE",
"132 154 CURVE SMOOTH",
"133 151 OFFCURVE",
"136 141 OFFCURVE",
"139 133 CURVE SMOOTH",
"141 124 OFFCURVE",
"144 115 OFFCURVE",
"145 111 CURVE SMOOTH",
"149 104 OFFCURVE",
"172 34 OFFCURVE",
"172 31 CURVE SMOOTH",
"172 30 OFFCURVE",
"174 24 OFFCURVE",
"177 18 CURVE SMOOTH",
"186 -1 OFFCURVE",
"184 0 OFFCURVE",
"255 0 CURVE SMOOTH",
"314 0 OFFCURVE",
"316 0 OFFCURVE",
"320 4 CURVE SMOOTH",
"324 9 OFFCURVE",
"330 28 OFFCURVE",
"344 77 CURVE SMOOTH",
"350 100 OFFCURVE",
"382 194 OFFCURVE",
"384 197 CURVE SMOOTH",
"385 199 OFFCURVE",
"388 205 OFFCURVE",
"390 212 CURVE SMOOTH",
"394 226 OFFCURVE",
"400 232 OFFCURVE",
"403 226 CURVE SMOOTH",
"407 219 OFFCURVE",
"429 151 OFFCURVE",
"429 147 CURVE SMOOTH",
"429 146 OFFCURVE",
"430 142 OFFCURVE",
"432 139 CURVE SMOOTH",
"435 132 OFFCURVE",
"440 115 OFFCURVE",
"448 90 CURVE SMOOTH",
"450 80 OFFCURVE",
"456 63 OFFCURVE",
"459 51 CURVE SMOOTH",
"463 39 OFFCURVE",
"467 24 OFFCURVE",
"469 18 CURVE SMOOTH",
"474 1 OFFCURVE",
"474 1 OFFCURVE",
"542 1 CURVE SMOOTH",
"596 1 LINE",
"604 6 LINE SMOOTH",
"612 11 OFFCURVE",
"618 24 OFFCURVE",
"625 48 CURVE SMOOTH",
"631 71 OFFCURVE",
"637 90 OFFCURVE",
"643 106 CURVE SMOOTH",
"647 114 OFFCURVE",
"656 140 OFFCURVE",
"664 163 CURVE SMOOTH",
"677 202 OFFCURVE",
"680 211 OFFCURVE",
"687 226 CURVE SMOOTH",
"690 232 OFFCURVE",
"694 244 OFFCURVE",
"711 292 CURVE SMOOTH",
"715 303 OFFCURVE",
"720 321 OFFCURVE",
"723 331 CURVE SMOOTH",
"734 366 OFFCURVE",
"737 375 OFFCURVE",
"743 385 CURVE SMOOTH",
"748 396 OFFCURVE",
"759 423 OFFCURVE",
"765 442 CURVE SMOOTH",
"767 447 OFFCURVE",
"770 457 OFFCURVE",
"773 466 CURVE SMOOTH",
"778 480 OFFCURVE",
"778 481 OFFCURVE",
"775 488 CURVE SMOOTH",
"772 495 LINE",
"756 495 LINE SMOOTH",
"747 495 OFFCURVE",
"722 495 OFFCURVE",
"701 495 CURVE SMOOTH",
"667 496 OFFCURVE",
"661 496 OFFCURVE",
"654 493 CURVE SMOOTH",
"650 491 OFFCURVE",
"645 488 OFFCURVE",
"644 487 CURVE SMOOTH",
"641 482 OFFCURVE",
"626 437 OFFCURVE",
"624 422 CURVE SMOOTH",
"622 415 OFFCURVE",
"620 406 OFFCURVE",
"618 402 CURVE SMOOTH",
"616 398 OFFCURVE",
"607 370 OFFCURVE",
"597 340 CURVE SMOOTH",
"578 284 OFFCURVE",
"572 266 OFFCURVE",
"569 266 CURVE SMOOTH",
"566 266 OFFCURVE",
"556 291 OFFCURVE",
"554 303 CURVE SMOOTH",
"553 310 OFFCURVE",
"551 317 OFFCURVE",
"550 319 CURVE SMOOTH",
"547 325 OFFCURVE",
"532 371 OFFCURVE",
"532 375 CURVE SMOOTH",
"532 378 OFFCURVE",
"531 384 OFFCURVE",
"529 391 CURVE SMOOTH",
"526 397 OFFCURVE",
"523 407 OFFCURVE",
"522 413 CURVE SMOOTH",
"520 419 OFFCURVE",
"516 435 OFFCURVE",
"512 450 CURVE SMOOTH",
"508 464 OFFCURVE",
"503 480 OFFCURVE",
"501 484 CURVE SMOOTH",
"497 492 OFFCURVE",
"484 502 OFFCURVE",
"479 500 CURVE SMOOTH",
"477 499 OFFCURVE",
"460 498 OFFCURVE",
"440 497 CURVE SMOOTH",
"363 495 OFFCURVE",
"364 495 OFFCURVE",
"359 491 CURVE SMOOTH",
"356 489 OFFCURVE",
"352 483 OFFCURVE",
"350 474 CURVE SMOOTH",
"342 449 OFFCURVE",
"333 422 OFFCURVE",
"333 419 CURVE SMOOTH",
"333 418 OFFCURVE",
"333 415 OFFCURVE",
"332 413 CURVE SMOOTH",
"331 411 OFFCURVE",
"328 403 OFFCURVE",
"326 395 CURVE SMOOTH",
"324 387 OFFCURVE",
"319 372 OFFCURVE",
"315 361 CURVE SMOOTH",
"311 350 OFFCURVE",
"307 337 OFFCURVE",
"305 331 CURVE SMOOTH",
"303 325 OFFCURVE",
"300 317 OFFCURVE",
"298 313 CURVE SMOOTH",
"296 310 OFFCURVE",
"292 299 OFFCURVE",
"290 291 CURVE SMOOTH",
"283 269 OFFCURVE",
"282 268 OFFCURVE",
"277 276 CURVE SMOOTH",
"275 280 OFFCURVE",
"273 285 OFFCURVE",
"273 287 CURVE SMOOTH",
"273 290 OFFCURVE",
"272 292 OFFCURVE",
"271 293 CURVE SMOOTH",
"270 293 OFFCURVE",
"269 296 OFFCURVE",
"268 298 CURVE SMOOTH",
"268 301 OFFCURVE",
"262 318 OFFCURVE",
"255 337 CURVE SMOOTH",
"249 355 OFFCURVE",
"243 374 OFFCURVE",
"242 379 CURVE SMOOTH",
"241 384 OFFCURVE",
"239 390 OFFCURVE",
"237 393 CURVE SMOOTH",
"236 396 OFFCURVE",
"234 401 OFFCURVE",
"233 405 CURVE SMOOTH",
"232 409 OFFCURVE",
"229 420 OFFCURVE",
"226 430 CURVE SMOOTH",
"217 458 OFFCURVE",
"217 460 OFFCURVE",
"215 469 CURVE SMOOTH",
"214 481 OFFCURVE",
"206 494 OFFCURVE",
"199 498 CURVE SMOOTH",
"194 500 OFFCURVE",
"189 500 OFFCURVE",
"173 499 CURVE SMOOTH",
"162 498 OFFCURVE",
"151 497 OFFCURVE",
"149 496 CURVE SMOOTH",
"146 495 OFFCURVE",
"140 496 OFFCURVE",
"135 497 CURVE SMOOTH",
"125 498 OFFCURVE",
"42 501 OFFCURVE",
"38 500 CURVE SMOOTH"
);
},
{
closed = 1;
nodes = (
"371 308 OFFCURVE",
"371 307 OFFCURVE",
"369 305 CURVE SMOOTH",
"365 303 OFFCURVE",
"363 305 OFFCURVE",
"363 309 CURVE SMOOTH",
"363 314 OFFCURVE",
"365 314 OFFCURVE",
"369 310 CURVE SMOOTH"
);
}
);
width = 797;
}
);
unicode = 0077;
},
{
glyphname = x;
lastChange = "2015-06-01 20:23:06 +0000";
layers = (
{
layerId = "258ED206-D907-4350-8EBA-CBDDA1C16BF7";
name = Regular;
paths = (
{
closed = 1;
nodes = (
"39 507 OFFCURVE",
"36 506 OFFCURVE",
"33 506 CURVE SMOOTH",
"26 504 OFFCURVE",
"20 498 OFFCURVE",
"20 492 CURVE SMOOTH",
"20 487 OFFCURVE",
"37 460 OFFCURVE",
"40 460 CURVE SMOOTH",
"41 460 OFFCURVE",
"49 449 OFFCURVE",
"66 426 CURVE SMOOTH",
"76 412 OFFCURVE",
"95 389 OFFCURVE",
"104 379 CURVE SMOOTH",
"108 374 OFFCURVE",
"117 362 OFFCURVE",
"124 351 CURVE SMOOTH",
"140 327 OFFCURVE",
"151 313 OFFCURVE",
"184 274 CURVE SMOOTH",
"199 258 OFFCURVE",
"201 252 OFFCURVE",
"194 242 CURVE SMOOTH",
"190 235 OFFCURVE",
"165 203 OFFCURVE",
"156 194 CURVE SMOOTH",
"148 185 OFFCURVE",
"138 172 OFFCURVE",
"129 159 CURVE SMOOTH",
"125 153 OFFCURVE",
"118 145 OFFCURVE",
"114 139 CURVE SMOOTH",
"104 128 OFFCURVE",
"92 112 OFFCURVE",
"83 99 CURVE SMOOTH",
"80 94 OFFCURVE",
"71 83 OFFCURVE",
"63 75 CURVE SMOOTH",
"55 67 OFFCURVE",
"46 56 OFFCURVE",
"42 51 CURVE SMOOTH",
"39 46 OFFCURVE",
"32 37 OFFCURVE",
"28 33 CURVE SMOOTH",
"24 28 OFFCURVE",
"20 22 OFFCURVE",
"20 20 CURVE SMOOTH",
"20 17 OFFCURVE",
"23 12 OFFCURVE",
"28 7 CURVE SMOOTH",
"35 0 OFFCURVE",
"36 -1 OFFCURVE",
"41 1 CURVE SMOOTH",
"44 1 OFFCURVE",
"75 2 OFFCURVE",
"110 2 CURVE SMOOTH",
"181 2 OFFCURVE",
"180 2 OFFCURVE",
"189 18 CURVE SMOOTH",
"192 23 OFFCURVE",
"208 47 OFFCURVE",
"224 71 CURVE SMOOTH",
"240 95 OFFCURVE",
"256 120 OFFCURVE",
"260 126 CURVE SMOOTH",
"276 150 OFFCURVE",
"277 150 OFFCURVE",
"290 130 CURVE SMOOTH",
"295 122 OFFCURVE",
"302 113 OFFCURVE",
"304 110 CURVE SMOOTH",
"313 95 OFFCURVE",
"362 22 OFFCURVE",
"367 16 CURVE SMOOTH",
"378 4 OFFCURVE",
"383 4 OFFCURVE",
"471 2 CURVE SMOOTH",
"579 0 OFFCURVE",
"577 0 OFFCURVE",
"583 5 CURVE SMOOTH",
"590 13 OFFCURVE",
"586 21 OFFCURVE",
"563 46 CURVE SMOOTH",
"558 51 OFFCURVE",
"548 64 OFFCURVE",
"539 76 CURVE SMOOTH",
"530 88 OFFCURVE",
"522 98 OFFCURVE",
"521 99 CURVE SMOOTH",
"520 99 OFFCURVE",
"518 102 OFFCURVE",
"516 105 CURVE SMOOTH",
"515 108 OFFCURVE",
"510 114 OFFCURVE",
"505 119 CURVE SMOOTH",
"492 135 OFFCURVE",
"486 142 OFFCURVE",
"480 150 CURVE SMOOTH",
"473 159 OFFCURVE",
"461 177 OFFCURVE",
"459 183 CURVE SMOOTH",
"457 188 OFFCURVE",
"435 214 OFFCURVE",
"422 228 CURVE SMOOTH",
"418 233 OFFCURVE",
"413 239 OFFCURVE",
"411 243 CURVE SMOOTH",
"407 251 OFFCURVE",
"403 257 OFFCURVE",
"393 268 CURVE SMOOTH",
"386 276 OFFCURVE",
"385 284 OFFCURVE",
"389 288 CURVE SMOOTH",
"390 290 OFFCURVE",
"394 295 OFFCURVE",
"398 300 CURVE SMOOTH",
"402 306 OFFCURVE",
"409 314 OFFCURVE",
"413 319 CURVE SMOOTH",
"425 332 OFFCURVE",
"437 348 OFFCURVE",
"437 351 CURVE SMOOTH",
"437 353 OFFCURVE",
"480 405 OFFCURVE",
"502 431 CURVE SMOOTH",
"510 440 OFFCURVE",
"519 451 OFFCURVE",
"522 455 CURVE SMOOTH",
"525 460 OFFCURVE",
"529 465 OFFCURVE",
"532 467 CURVE SMOOTH",
"538 471 OFFCURVE",
"545 481 OFFCURVE",
"545 487 CURVE SMOOTH",
"545 491 OFFCURVE",
"543 494 OFFCURVE",
"539 497 CURVE SMOOTH",
"534 501 OFFCURVE",
"532 501 OFFCURVE",
"470 500 CURVE SMOOTH",
"434 500 OFFCURVE",
"401 499 OFFCURVE",
"397 498 CURVE SMOOTH",
"388 496 OFFCURVE",
"379 487 OFFCURVE",
"365 465 CURVE SMOOTH",
"361 459 OFFCURVE",
"351 446 OFFCURVE",
"343 434 CURVE SMOOTH",
"335 423 OFFCURVE",
"326 410 OFFCURVE",
"323 406 CURVE SMOOTH",
"316 396 OFFCURVE",
"308 387 OFFCURVE",
"306 387 CURVE SMOOTH",
"306 387 OFFCURVE",
"300 394 OFFCURVE",
"295 403 CURVE SMOOTH",
"289 411 OFFCURVE",
"283 419 OFFCURVE",
"282 420 CURVE SMOOTH",
"281 421 OFFCURVE",
"276 428 OFFCURVE",
"271 436 CURVE SMOOTH",
"267 444 OFFCURVE",
"262 453 OFFCURVE",
"260 455 CURVE SMOOTH",
"258 457 OFFCURVE",
"254 464 OFFCURVE",
"250 470 CURVE SMOOTH",
"235 499 OFFCURVE",
"229 502 OFFCURVE",
"193 501 CURVE SMOOTH",
"179 500 OFFCURVE",
"167 499 OFFCURVE",
"166 500 CURVE SMOOTH",
"165 500 OFFCURVE",
"152 501 OFFCURVE",
"137 501 CURVE SMOOTH",
"112 501 OFFCURVE",
"60 505 OFFCURVE",
"47 507 CURVE SMOOTH",
"45 508 OFFCURVE",
"42 508 OFFCURVE",
"40 507 CURVE SMOOTH"
);
}
);
width = 606;
}
);
unicode = 0078;
},
{
glyphname = y;
lastChange = "2015-06-01 20:23:06 +0000";
layers = (
{
layerId = "258ED206-D907-4350-8EBA-CBDDA1C16BF7";
name = Regular;
paths = (
{
closed = 1;
nodes = (
"26 500 OFFCURVE",
"20 492 OFFCURVE",
"20 482 CURVE SMOOTH",
"20 472 OFFCURVE",
"24 460 OFFCURVE",
"39 429 CURVE SMOOTH",
"45 415 OFFCURVE",
"53 396 OFFCURVE",
"57 385 CURVE SMOOTH",
"62 374 OFFCURVE",
"68 360 OFFCURVE",
"71 353 CURVE SMOOTH",
"74 346 OFFCURVE",
"78 335 OFFCURVE",
"81 329 CURVE SMOOTH",
"83 324 OFFCURVE",
"87 313 OFFCURVE",
"90 307 CURVE SMOOTH",
"94 301 OFFCURVE",
"96 294 OFFCURVE",
"96 293 CURVE SMOOTH",
"96 292 OFFCURVE",
"98 286 OFFCURVE",
"101 280 CURVE SMOOTH",
"107 266 OFFCURVE",
"131 204 OFFCURVE",
"143 172 CURVE SMOOTH",
"145 166 OFFCURVE",
"149 158 OFFCURVE",
"151 155 CURVE SMOOTH",
"153 151 OFFCURVE",
"157 143 OFFCURVE",
"159 136 CURVE SMOOTH",
"170 107 OFFCURVE",
"174 97 OFFCURVE",
"179 88 CURVE SMOOTH",
"186 77 OFFCURVE",
"205 21 OFFCURVE",
"205 13 CURVE SMOOTH",
"205 3 OFFCURVE",
"197 -8 OFFCURVE",
"185 -16 CURVE SMOOTH",
"173 -23 OFFCURVE",
"173 -23 OFFCURVE",
"143 -25 CURVE SMOOTH",
"125 -27 OFFCURVE",
"103 -27 OFFCURVE",
"90 -26 CURVE SMOOTH",
"65 -25 OFFCURVE",
"55 -27 OFFCURVE",
"51 -36 CURVE SMOOTH",
"49 -41 OFFCURVE",
"44 -114 OFFCURVE",
"46 -117 CURVE SMOOTH",
"47 -118 OFFCURVE",
"48 -125 OFFCURVE",
"48 -133 CURVE SMOOTH",
"50 -149 OFFCURVE",
"51 -152 OFFCURVE",
"61 -156 CURVE SMOOTH",
"79 -163 OFFCURVE",
"183 -157 OFFCURVE",
"209 -147 CURVE SMOOTH",
"213 -146 OFFCURVE",
"219 -144 OFFCURVE",
"222 -143 CURVE SMOOTH",
"226 -143 OFFCURVE",
"233 -139 OFFCURVE",
"240 -135 CURVE SMOOTH",
"246 -132 OFFCURVE",
"256 -126 OFFCURVE",
"262 -123 CURVE SMOOTH",
"283 -112 OFFCURVE",
"320 -67 OFFCURVE",
"330 -43 CURVE SMOOTH",
"331 -40 OFFCURVE",
"335 -33 OFFCURVE",
"339 -27 CURVE SMOOTH",
"342 -20 OFFCURVE",
"347 -11 OFFCURVE",
"349 -6 CURVE SMOOTH",
"356 15 OFFCURVE",
"372 52 OFFCURVE",
"374 54 CURVE SMOOTH",
"375 56 OFFCURVE",
"377 61 OFFCURVE",
"378 66 CURVE SMOOTH",
"381 75 OFFCURVE",
"384 85 OFFCURVE",
"394 109 CURVE SMOOTH",
"398 117 OFFCURVE",
"401 127 OFFCURVE",
"402 131 CURVE SMOOTH",
"403 134 OFFCURVE",
"410 150 OFFCURVE",
"418 167 CURVE SMOOTH",
"425 183 OFFCURVE",
"431 197 OFFCURVE",
"431 199 CURVE SMOOTH",
"431 201 OFFCURVE",
"433 204 OFFCURVE",
"434 206 CURVE SMOOTH",
"435 208 OFFCURVE",
"439 216 OFFCURVE",
"442 224 CURVE SMOOTH",
"454 254 OFFCURVE",
"471 295 OFFCURVE",
"477 308 CURVE SMOOTH",
"481 315 OFFCURVE",
"486 326 OFFCURVE",
"488 333 CURVE SMOOTH",
"490 339 OFFCURVE",
"493 346 OFFCURVE",
"494 346 CURVE SMOOTH",
"495 347 OFFCURVE",
"496 349 OFFCURVE",
"496 350 CURVE SMOOTH",
"496 355 OFFCURVE",
"514 399 OFFCURVE",
"527 426 CURVE SMOOTH",
"547 467 OFFCURVE",
"548 470 OFFCURVE",
"550 480 CURVE SMOOTH",
"551 487 OFFCURVE",
"550 489 OFFCURVE",
"547 493 CURVE SMOOTH",
"544 497 OFFCURVE",
"541 498 OFFCURVE",
"532 498 CURVE SMOOTH",
"506 498 OFFCURVE",
"436 498 OFFCURVE",
"425 498 CURVE SMOOTH",
"405 497 OFFCURVE",
"404 496 OFFCURVE",
"386 440 CURVE SMOOTH",
"380 418 OFFCURVE",
"376 408 OFFCURVE",
"364 377 CURVE SMOOTH",
"359 364 OFFCURVE",
"354 350 OFFCURVE",
"352 345 CURVE SMOOTH",
"349 333 OFFCURVE",
"341 312 OFFCURVE",
"337 305 CURVE SMOOTH",
"336 302 OFFCURVE",
"332 292 OFFCURVE",
"329 283 CURVE SMOOTH",
"322 262 OFFCURVE",
"319 254 OFFCURVE",
"313 249 CURVE SMOOTH",
"308 244 OFFCURVE",
"303 247 OFFCURVE",
"302 257 CURVE SMOOTH",
"301 261 OFFCURVE",
"299 268 OFFCURVE",
"297 272 CURVE SMOOTH",
"295 277 OFFCURVE",
"293 282 OFFCURVE",
"293 283 CURVE SMOOTH",
"293 284 OFFCURVE",
"289 294 OFFCURVE",
"283 305 CURVE SMOOTH",
"278 316 OFFCURVE",
"272 332 OFFCURVE",
"270 340 CURVE SMOOTH",
"267 349 OFFCURVE",
"263 361 OFFCURVE",
"261 366 CURVE SMOOTH",
"256 378 OFFCURVE",
"253 387 OFFCURVE",
"240 425 CURVE SMOOTH",
"236 438 OFFCURVE",
"232 451 OFFCURVE",
"231 452 CURVE SMOOTH",
"230 454 OFFCURVE",
"228 461 OFFCURVE",
"226 467 CURVE SMOOTH",
"221 485 OFFCURVE",
"218 493 OFFCURVE",
"212 496 CURVE SMOOTH",
"208 499 OFFCURVE",
"200 500 OFFCURVE",
"151 500 CURVE SMOOTH",
"101 500 OFFCURVE",
"72 502 OFFCURVE",
"48 504 CURVE SMOOTH",
"44 504 OFFCURVE",
"38 504 OFFCURVE",
"34 503 CURVE SMOOTH"
);
}
);
width = 570;
}
);
unicode = 0079;
},
{
glyphname = z;
lastChange = "2015-06-01 20:23:06 +0000";
layers = (
{
layerId = "258ED206-D907-4350-8EBA-CBDDA1C16BF7";
name = Regular;
paths = (
{
closed = 1;
nodes = (
"117 498 OFFCURVE",
"102 497 OFFCURVE",
"85 497 CURVE SMOOTH",
"54 496 OFFCURVE",
"54 496 OFFCURVE",
"48 491 CURVE SMOOTH",
"43 486 LINE",
"41 439 LINE SMOOTH",
"40 414 OFFCURVE",
"40 391 OFFCURVE",
"41 389 CURVE SMOOTH",
"42 383 OFFCURVE",
"52 377 OFFCURVE",
"63 376 CURVE SMOOTH",
"69 375 OFFCURVE",
"85 376 OFFCURVE",
"97 377 CURVE SMOOTH",
"110 378 OFFCURVE",
"128 379 OFFCURVE",
"136 379 CURVE SMOOTH",
"145 380 OFFCURVE",
"170 381 OFFCURVE",
"192 383 CURVE SMOOTH",
"240 387 OFFCURVE",
"247 386 OFFCURVE",
"248 382 CURVE SMOOTH",
"248 380 OFFCURVE",
"244 373 OFFCURVE",
"238 366 CURVE SMOOTH",
"232 360 OFFCURVE",
"225 351 OFFCURVE",
"223 346 CURVE SMOOTH",
"221 342 OFFCURVE",
"217 335 OFFCURVE",
"214 332 CURVE SMOOTH",
"212 328 OFFCURVE",
"210 324 OFFCURVE",
"210 323 CURVE SMOOTH",
"210 322 OFFCURVE",
"205 317 OFFCURVE",
"200 311 CURVE SMOOTH",
"194 306 OFFCURVE",
"190 301 OFFCURVE",
"190 300 CURVE SMOOTH",
"190 299 OFFCURVE",
"187 297 OFFCURVE",
"183 294 CURVE SMOOTH",
"177 289 OFFCURVE",
"166 276 OFFCURVE",
"157 263 CURVE SMOOTH",
"152 255 OFFCURVE",
"126 222 OFFCURVE",
"123 220 CURVE SMOOTH",
"122 219 OFFCURVE",
"116 213 OFFCURVE",
"112 205 CURVE SMOOTH",
"107 198 OFFCURVE",
"101 190 OFFCURVE",
"98 188 CURVE SMOOTH",
"93 183 OFFCURVE",
"77 161 OFFCURVE",
"77 158 CURVE SMOOTH",
"77 157 OFFCURVE",
"74 153 OFFCURVE",
"70 148 CURVE SMOOTH",
"51 128 OFFCURVE",
"48 123 OFFCURVE",
"37 108 CURVE SMOOTH",
"30 100 OFFCURVE",
"24 90 OFFCURVE",
"23 86 CURVE SMOOTH",
"19 74 OFFCURVE",
"19 22 OFFCURVE",
"23 13 CURVE SMOOTH",
"29 0 OFFCURVE",
"31 -1 OFFCURVE",
"99 1 CURVE SMOOTH",
"173 3 OFFCURVE",
"145 3 OFFCURVE",
"314 1 CURVE SMOOTH",
"392 0 OFFCURVE",
"460 0 OFFCURVE",
"465 0 CURVE SMOOTH",
"476 0 OFFCURVE",
"484 4 OFFCURVE",
"487 12 CURVE SMOOTH",
"492 20 OFFCURVE",
"495 93 OFFCURVE",
"492 106 CURVE SMOOTH",
"490 111 OFFCURVE",
"480 118 OFFCURVE",
"476 116 CURVE SMOOTH",
"475 115 OFFCURVE",
"473 116 OFFCURVE",
"472 117 CURVE SMOOTH",
"469 119 OFFCURVE",
"468 119 OFFCURVE",
"423 118 CURVE SMOOTH",
"405 118 OFFCURVE",
"370 117 OFFCURVE",
"347 117 CURVE SMOOTH",
"323 117 OFFCURVE",
"302 117 OFFCURVE",
"299 115 CURVE SMOOTH",
"296 114 OFFCURVE",
"288 114 OFFCURVE",
"281 115 CURVE SMOOTH",
"271 116 OFFCURVE",
"267 117 OFFCURVE",
"266 119 CURVE SMOOTH",
"263 124 OFFCURVE",
"265 127 OFFCURVE",
"280 146 CURVE SMOOTH",
"287 155 OFFCURVE",
"299 170 OFFCURVE",
"307 181 CURVE SMOOTH",
"314 191 OFFCURVE",
"326 205 OFFCURVE",
"332 212 CURVE SMOOTH",
"338 219 OFFCURVE",
"344 225 OFFCURVE",
"345 227 CURVE SMOOTH",
"346 229 OFFCURVE",
"351 235 OFFCURVE",
"355 240 CURVE SMOOTH",
"359 246 OFFCURVE",
"368 258 OFFCURVE",
"374 266 CURVE SMOOTH",
"381 275 OFFCURVE",
"390 286 OFFCURVE",
"394 292 CURVE SMOOTH",
"398 298 OFFCURVE",
"409 311 OFFCURVE",
"417 321 CURVE SMOOTH",
"426 331 OFFCURVE",
"438 347 OFFCURVE",
"444 355 CURVE SMOOTH",
"450 364 OFFCURVE",
"460 376 OFFCURVE",
"466 382 CURVE SMOOTH",
"472 389 OFFCURVE",
"481 400 OFFCURVE",
"485 408 CURVE SMOOTH",
"492 421 LINE",
"492 454 LINE SMOOTH",
"492 485 OFFCURVE",
"491 487 OFFCURVE",
"487 491 CURVE SMOOTH",
"483 496 LINE",
"364 496 LINE SMOOTH",
"299 496 OFFCURVE",
"239 496 OFFCURVE",
"231 496 CURVE SMOOTH",
"208 495 OFFCURVE",
"133 497 OFFCURVE",
"125 498 CURVE SMOOTH",
"122 499 OFFCURVE",
"118 499 OFFCURVE",
"117 498 CURVE SMOOTH"
);
},
{
closed = 1;
nodes = (
"67 382 OFFCURVE",
"66 381 OFFCURVE",
"64 381 CURVE SMOOTH",
"62 382 OFFCURVE",
"60 382 OFFCURVE",
"59 382 CURVE SMOOTH",
"59 382 OFFCURVE",
"60 383 OFFCURVE",
"61 384 CURVE SMOOTH",
"64 386 OFFCURVE",
"67 385 OFFCURVE",
"67 383 CURVE SMOOTH"
);
}
);
width = 513;
}
);
unicode = 007A;
},
{
glyphname = zero;
lastChange = "2015-06-01 20:32:39 +0000";
layers = (
{
layerId = "258ED206-D907-4350-8EBA-CBDDA1C16BF7";
name = Regular;
paths = (
{
closed = 1;
nodes = (
"288 705 OFFCURVE",
"281 704 OFFCURVE",
"276 705 CURVE SMOOTH",
"263 705 OFFCURVE",
"226 696 OFFCURVE",
"215 691 CURVE SMOOTH",
"213 690 OFFCURVE",
"202 684 OFFCURVE",
"191 679 CURVE SMOOTH",
"162 665 OFFCURVE",
"114 625 OFFCURVE",
"101 605 CURVE SMOOTH",
"99 600 OFFCURVE",
"92 591 OFFCURVE",
"86 584 CURVE SMOOTH",
"80 577 OFFCURVE",
"74 566 OFFCURVE",
"71 561 CURVE SMOOTH",
"69 555 OFFCURVE",
"66 550 OFFCURVE",
"65 549 CURVE SMOOTH",
"63 548 OFFCURVE",
"46 509 OFFCURVE",
"44 500 CURVE SMOOTH",
"43 497 OFFCURVE",
"41 491 OFFCURVE",
"39 486 CURVE SMOOTH",
"25 449 OFFCURVE",
"17 368 OFFCURVE",
"21 296 CURVE SMOOTH",
"23 258 OFFCURVE",
"25 252 OFFCURVE",
"37 213 CURVE SMOOTH",
"45 188 OFFCURVE",
"57 160 OFFCURVE",
"60 159 CURVE SMOOTH",
"61 158 OFFCURVE",
"63 154 OFFCURVE",
"65 150 CURVE SMOOTH",
"67 140 OFFCURVE",
"78 122 OFFCURVE",
"90 107 CURVE SMOOTH",
"95 100 OFFCURVE",
"100 93 OFFCURVE",
"101 90 CURVE SMOOTH",
"103 88 OFFCURVE",
"105 84 OFFCURVE",
"107 82 CURVE SMOOTH",
"109 81 OFFCURVE",
"114 75 OFFCURVE",
"118 70 CURVE SMOOTH",
"123 65 OFFCURVE",
"130 59 OFFCURVE",
"134 56 CURVE SMOOTH",
"138 53 OFFCURVE",
"145 48 OFFCURVE",
"149 45 CURVE SMOOTH",
"172 28 OFFCURVE",
"197 15 OFFCURVE",
"234 2 CURVE SMOOTH",
"256 -5 OFFCURVE",
"291 -8 OFFCURVE",
"336 -7 CURVE SMOOTH",
"372 -6 OFFCURVE",
"385 -4 OFFCURVE",
"407 3 CURVE SMOOTH",
"414 6 OFFCURVE",
"425 9 OFFCURVE",
"432 11 CURVE SMOOTH",
"444 14 OFFCURVE",
"467 27 OFFCURVE",
"476 34 CURVE SMOOTH",
"478 36 OFFCURVE",
"486 41 OFFCURVE",
"492 44 CURVE SMOOTH",
"505 50 OFFCURVE",
"538 82 OFFCURVE",
"543 93 CURVE SMOOTH",
"545 96 OFFCURVE",
"551 104 OFFCURVE",
"556 110 CURVE SMOOTH",
"562 117 OFFCURVE",
"570 129 OFFCURVE",
"574 138 CURVE SMOOTH",
"578 146 OFFCURVE",
"584 158 OFFCURVE",
"587 164 CURVE SMOOTH",
"595 179 OFFCURVE",
"603 200 OFFCURVE",
"603 207 CURVE SMOOTH",
"603 210 OFFCURVE",
"604 214 OFFCURVE",
"605 216 CURVE SMOOTH",
"607 218 OFFCURVE",
"610 227 OFFCURVE",
"613 235 CURVE SMOOTH",
"617 248 OFFCURVE",
"619 255 OFFCURVE",
"619 274 CURVE SMOOTH",
"620 287 OFFCURVE",
"621 301 OFFCURVE",
"622 304 CURVE SMOOTH",
"623 308 OFFCURVE",
"624 330 OFFCURVE",
"624 352 CURVE SMOOTH",
"624 384 OFFCURVE",
"623 396 OFFCURVE",
"621 404 CURVE SMOOTH",
"619 410 OFFCURVE",
"618 420 OFFCURVE",
"617 427 CURVE SMOOTH",
"617 442 OFFCURVE",
"610 476 OFFCURVE",
"604 492 CURVE SMOOTH",
"594 520 OFFCURVE",
"581 547 OFFCURVE",
"569 565 CURVE SMOOTH",
"565 571 OFFCURVE",
"562 577 OFFCURVE",
"562 578 CURVE SMOOTH",
"562 578 OFFCURVE",
"557 585 OFFCURVE",
"551 593 CURVE SMOOTH",
"519 636 OFFCURVE",
"494 656 OFFCURVE",
"451 677 CURVE SMOOTH",
"411 697 OFFCURVE",
"397 700 OFFCURVE",
"353 704 CURVE SMOOTH",
"316 707 OFFCURVE",
"297 708 OFFCURVE",
"291 706 CURVE SMOOTH"
);
},
{
closed = 1;
nodes = (
"350 564 OFFCURVE",
"358 560 OFFCURVE",
"363 557 CURVE SMOOTH",
"369 553 OFFCURVE",
"373 550 OFFCURVE",
"374 550 CURVE SMOOTH",
"378 550 OFFCURVE",
"393 527 OFFCURVE",
"400 512 CURVE SMOOTH",
"408 493 OFFCURVE",
"415 457 OFFCURVE",
"416 429 CURVE SMOOTH",
"419 387 OFFCURVE",
"419 354 OFFCURVE",
"417 313 CURVE SMOOTH",
"416 288 OFFCURVE",
"415 262 OFFCURVE",
"414 255 CURVE SMOOTH",
"413 216 OFFCURVE",
"399 177 OFFCURVE",
"380 154 CURVE SMOOTH",
"371 144 OFFCURVE",
"365 141 OFFCURVE",
"345 136 CURVE SMOOTH",
"316 128 OFFCURVE",
"289 133 OFFCURVE",
"273 149 CURVE SMOOTH",
"260 163 OFFCURVE",
"254 170 OFFCURVE",
"251 178 CURVE SMOOTH",
"249 183 OFFCURVE",
"246 188 OFFCURVE",
"245 190 CURVE SMOOTH",
"242 196 OFFCURVE",
"236 230 OFFCURVE",
"235 246 CURVE SMOOTH",
"230 320 OFFCURVE",
"230 317 OFFCURVE",
"233 408 CURVE SMOOTH",
"235 463 OFFCURVE",
"240 492 OFFCURVE",
"252 518 CURVE SMOOTH",
"260 536 OFFCURVE",
"272 550 OFFCURVE",
"283 557 CURVE SMOOTH",
"300 566 OFFCURVE",
"326 570 OFFCURVE",
"344 565 CURVE SMOOTH"
);
},
{
closed = 1;
nodes = (
"500 63 OFFCURVE",
"499 63 OFFCURVE",
"499 64 CURVE SMOOTH",
"499 66 OFFCURVE",
"502 69 OFFCURVE",
"503 68 CURVE SMOOTH",
"503 67 OFFCURVE",
"503 66 OFFCURVE",
"501 64 CURVE SMOOTH"
);
}
);
width = 644;
}
);
unicode = 0030;
},
{
glyphname = one;
lastChange = "2015-06-01 20:28:09 +0000";
layers = (
{
layerId = "258ED206-D907-4350-8EBA-CBDDA1C16BF7";
name = Regular;
paths = (
{
closed = 1;
nodes = (
"243 701 OFFCURVE",
"237 700 OFFCURVE",
"235 699 CURVE SMOOTH",
"233 698 OFFCURVE",
"230 697 OFFCURVE",
"228 697 CURVE SMOOTH",
"226 697 OFFCURVE",
"220 694 OFFCURVE",
"216 691 CURVE SMOOTH",
"211 688 OFFCURVE",
"201 682 OFFCURVE",
"194 678 CURVE SMOOTH",
"186 674 OFFCURVE",
"176 669 OFFCURVE",
"172 667 CURVE SMOOTH",
"168 665 OFFCURVE",
"159 660 OFFCURVE",
"153 656 CURVE SMOOTH",
"147 652 OFFCURVE",
"141 648 OFFCURVE",
"140 648 CURVE SMOOTH",
"137 648 OFFCURVE",
"110 636 OFFCURVE",
"107 634 CURVE SMOOTH",
"105 632 OFFCURVE",
"95 627 OFFCURVE",
"85 623 CURVE SMOOTH",
"75 618 OFFCURVE",
"63 613 OFFCURVE",
"59 611 CURVE SMOOTH",
"54 609 OFFCURVE",
"45 605 OFFCURVE",
"38 602 CURVE SMOOTH",
"26 596 OFFCURVE",
"25 595 OFFCURVE",
"23 588 CURVE SMOOTH",
"22 584 OFFCURVE",
"21 560 OFFCURVE",
"20 534 CURVE SMOOTH",
"20 491 OFFCURVE",
"20 487 OFFCURVE",
"23 482 CURVE SMOOTH",
"30 471 OFFCURVE",
"39 471 OFFCURVE",
"69 479 CURVE SMOOTH",
"77 481 OFFCURVE",
"89 483 OFFCURVE",
"96 484 CURVE SMOOTH",
"102 484 OFFCURVE",
"112 486 OFFCURVE",
"117 488 CURVE SMOOTH",
"127 493 OFFCURVE",
"134 493 OFFCURVE",
"137 490 CURVE SMOOTH",
"139 487 OFFCURVE",
"139 159 OFFCURVE",
"137 155 CURVE SMOOTH",
"136 153 OFFCURVE",
"128 153 OFFCURVE",
"42 155 CURVE SMOOTH",
"34 155 OFFCURVE",
"27 150 OFFCURVE",
"25 142 CURVE SMOOTH",
"24 138 OFFCURVE",
"22 106 OFFCURVE",
"22 72 CURVE SMOOTH",
"21 2 OFFCURVE",
"20 4 OFFCURVE",
"37 1 CURVE SMOOTH",
"43 0 OFFCURVE",
"61 -1 OFFCURVE",
"78 0 CURVE SMOOTH",
"121 2 OFFCURVE",
"377 2 OFFCURVE",
"415 0 CURVE SMOOTH",
"445 -2 LINE",
"451 3 LINE",
"456 8 LINE",
"457 73 LINE",
"457 137 LINE",
"451 144 LINE SMOOTH",
"444 153 OFFCURVE",
"441 153 OFFCURVE",
"422 151 CURVE SMOOTH",
"413 150 OFFCURVE",
"394 150 OFFCURVE",
"377 151 CURVE SMOOTH",
"351 152 OFFCURVE",
"347 153 OFFCURVE",
"343 157 CURVE SMOOTH",
"339 161 OFFCURVE",
"339 162 OFFCURVE",
"340 267 CURVE SMOOTH",
"340 326 OFFCURVE",
"340 437 OFFCURVE",
"340 515 CURVE SMOOTH",
"340 681 OFFCURVE",
"340 664 OFFCURVE",
"341 680 CURVE SMOOTH",
"341 692 OFFCURVE",
"341 693 OFFCURVE",
"336 698 CURVE SMOOTH",
"330 704 LINE",
"295 704 LINE SMOOTH",
"275 704 OFFCURVE",
"255 703 OFFCURVE",
"249 702 CURVE SMOOTH"
);
}
);
width = 477;
}
);
unicode = 0031;
},
